<svg xmlns="http://www.w3.org/2000/svg" width="29.545" height="25.459" viewBox="0 0 29.545 25.459">
  <g id="Group_1347" data-name="Group 1347" transform="translate(-215.428 -758.5)">
    <g id="Group_1247" data-name="Group 1247" transform="translate(23.664 -0.37)">
      <path id="Subtraction_12" data-name="Subtraction 12" d="M3877.806,720.83a3.136,3.136,0,0,1-3.135-3.14,7.583,7.583,0,0,0,.715-6.358l-5.725-13.081h-1.254a.941.941,0,1,1,0-1.881h1.881a.941.941,0,0,1,.86.564l1.253,2.884a1.876,1.876,0,0,1,1.016-.313h20.693a1.88,1.88,0,0,1,1.731,2.62l-3.763,8.779a1.879,1.879,0,0,1-1.731,1.142h-12.516a1.254,1.254,0,1,0,0,2.508h12.56a3.135,3.135,0,1,1-2.909,1.881h-6.8a3.136,3.136,0,0,1-2.873,4.393Zm12.542-4.393a1.254,1.254,0,1,0,1.254,1.254A1.255,1.255,0,0,0,3890.348,716.437Zm-12.541,0a1.254,1.254,0,1,0,1.253,1.254A1.255,1.255,0,0,0,3877.807,716.437Zm-4.39-15.05h0l3.763,8.779h13.168l3.763-8.779Z" transform="translate(-3675.202 63)" fill="#fff" stroke="rgba(0,0,0,0)" stroke-miterlimit="10" stroke-width="1"/>
    </g>
  </g>
</svg>
