<?xml version="1.0" encoding="utf-8"?>
<!-- Generator: Adobe Illustrator 25.3.1, SVG Export Plug-In . SVG Version: 6.00 Build 0)  -->
<svg version="1.1" id="Layer_1" xmlns="http://www.w3.org/2000/svg" xmlns:xlink="http://www.w3.org/1999/xlink" x="0px" y="0px"
	 viewBox="0 0 1174 299.39" style="enable-background:new 0 0 1174 299.39;" xml:space="preserve">
<style type="text/css">
	.st0{fill:#fff;}
	.st1{enable-background:new    ;}
</style>
<g id="Group_1374_1_" transform="translate(13.359 -1.55)">
	<g id="Group_1371_1_" transform="translate(-45.165 92.206)">
		<path id="Path_2969_1_" class="st0" d="M264.02-67.74h-3.67c-30.27,0-54.96,20.42-55.02,45.44V90.15
			c0.76,7.28,7.22,12.59,14.51,11.97h29.68v79.21c1.56,8.02,9.34,13.23,17.34,11.67c5.89-1.16,10.5-5.77,11.67-11.67V-55.75
			C277.75-63.03,271.31-68.36,264.02-67.74z M249.51-41.88V78.16h-15.19V-22.3C234.81-31.34,240.87-39.14,249.51-41.88z"/>
		<path id="Path_2970_1_" class="st0" d="M151.91-67.74c-7.3-0.62-13.75,4.69-14.51,11.97V4.84c-1.38,8-7.34,14.45-15.19,16.48
			v-77.07c-1.52-8.02-9.26-13.27-17.28-11.73c-5.95,1.14-10.6,5.79-11.73,11.73V21.3c-7.78-2-13.71-8.34-15.19-16.24v-60.77
			c-1.52-8.02-9.26-13.27-17.28-11.73c-5.95,1.14-10.6,5.79-11.73,11.73V5.28c3.35,22.33,21.69,39.37,44.2,41.05v135.05
			c1.52,8.02,9.26,13.27,17.28,11.73c5.95-1.14,10.6-5.79,11.73-11.73V46.17c22.57-1.7,40.93-18.82,44.2-41.21v-60.77
			C165.6-63.07,159.17-68.36,151.91-67.74z"/>
	</g>
	<g class="st1">
		<path class="st0" d="M327.5,150.03c-6.92-3.81-12.35-9.1-16.28-15.85s-5.91-14.31-5.91-22.69s1.96-15.93,5.91-22.69
			c3.93-6.75,9.38-12.03,16.34-15.85c6.96-3.81,14.75-5.71,23.37-5.71c6.47,0,12.43,1.08,17.9,3.23c5.47,2.16,10.1,5.31,13.93,9.44
			l-5.85,5.85c-6.79-6.87-15.37-10.32-25.74-10.32c-6.88,0-13.13,1.58-18.76,4.73c-5.63,3.15-10.04,7.46-13.23,12.93
			c-3.19,5.47-4.79,11.61-4.79,18.4s1.6,12.93,4.79,18.4c3.19,5.47,7.6,9.78,13.23,12.93c5.63,3.15,11.89,4.73,18.76,4.73
			c10.44,0,19.02-3.49,25.74-10.44l5.83,5.83c-3.81,4.15-8.48,7.32-13.99,9.5c-5.51,2.2-11.51,3.29-17.96,3.29
			C342.17,155.74,334.41,153.84,327.5,150.03z"/>
		<path class="st0" d="M415.13,149.95c-7-3.85-12.47-9.14-16.42-15.85c-3.93-6.71-5.91-14.25-5.91-22.63s1.96-15.91,5.91-22.63
			c3.93-6.71,9.4-11.99,16.42-15.85c7-3.85,14.81-5.77,23.43-5.77s16.4,1.9,23.31,5.71c6.92,3.81,12.37,9.1,16.34,15.85
			c3.97,6.75,5.97,14.31,5.97,22.69s-1.98,15.93-5.97,22.69c-3.97,6.75-9.42,12.05-16.34,15.85c-6.92,3.81-14.69,5.71-23.31,5.71
			C429.94,155.74,422.13,153.82,415.13,149.95z M457.2,142.87c5.55-3.11,9.9-7.42,13.05-12.93s4.73-11.67,4.73-18.46
			s-1.58-12.95-4.73-18.46c-3.15-5.51-7.5-9.82-13.05-12.93c-5.55-3.11-11.77-4.67-18.64-4.67c-6.87,0-13.11,1.56-18.7,4.67
			c-5.59,3.11-9.98,7.42-13.17,12.93s-4.79,11.67-4.79,18.46s1.6,12.95,4.79,18.46c3.19,5.51,7.58,9.82,13.17,12.93
			c5.59,3.11,11.83,4.67,18.7,4.67C445.44,147.54,451.65,145.98,457.2,142.87z"/>
		<path class="st0" d="M577.52,67.99V155h-7.58l-55.94-70.59V155h-9.2V67.99h7.58l56.06,70.59V67.99H577.52z"/>
		<path class="st0" d="M611.26,152.64c-5.93-2.06-10.5-4.81-13.73-8.2l3.61-7.08c3.15,3.15,7.34,5.69,12.55,7.64
			c5.21,1.94,10.6,2.93,16.16,2.93c7.8,0,13.63-1.42,17.52-4.29c3.89-2.87,5.83-6.57,5.83-11.12c0-3.49-1.06-6.25-3.17-8.34
			c-2.1-2.06-4.71-3.67-7.78-4.79c-3.07-1.12-7.34-2.35-12.81-3.67c-6.55-1.66-11.77-3.25-15.65-4.79c-3.89-1.52-7.24-3.87-10-7.02
			c-2.79-3.15-4.17-7.42-4.17-12.81c0-4.39,1.16-8.4,3.49-12.01c2.33-3.61,5.87-6.47,10.68-8.64c4.81-2.14,10.76-3.23,17.9-3.23
			c4.97,0,9.84,0.68,14.61,2.04c4.77,1.36,8.88,3.25,12.37,5.65l-3.11,7.34c-3.65-2.41-7.54-4.21-11.69-5.41
			c-4.15-1.2-8.2-1.8-12.19-1.8c-7.62,0-13.37,1.46-17.22,4.41c-3.85,2.95-5.77,6.73-5.77,11.36c0,3.49,1.06,6.27,3.17,8.4
			c2.1,2.1,4.77,3.73,7.96,4.85c3.19,1.12,7.48,2.35,12.87,3.67c6.37,1.58,11.55,3.13,15.47,4.67c3.93,1.54,7.28,3.85,10,6.96
			c2.73,3.11,4.11,7.32,4.11,12.61c0,4.39-1.18,8.4-3.55,11.99c-2.37,3.61-5.99,6.45-10.88,8.58c-4.89,2.1-10.9,3.17-18.02,3.17
			C623.38,155.74,617.19,154.7,611.26,152.64z"/>
		<path class="st0" d="M691.01,146.04c-6.29-6.45-9.44-15.87-9.44-28.22V67.97h9.2v49.47c0,10.1,2.29,17.66,6.83,22.63
			c4.55,4.97,11.14,7.46,19.76,7.46c8.7,0,15.33-2.49,19.88-7.46c4.55-4.97,6.83-12.51,6.83-22.63V67.97h8.94v49.85
			c0,12.35-3.13,21.75-9.38,28.22c-6.25,6.45-15.01,9.7-26.3,9.7C706.08,155.74,697.31,152.52,691.01,146.04z"/>
		<path class="st0" d="M871.1,67.99V155h-8.82V85.39l-34.17,58.55h-4.35l-34.19-58.19v69.23h-8.82V67.97h7.58l37.78,64.52
			l37.42-64.52h7.58V67.99z"/>
		<path class="st0" d="M899.45,67.99h9.2V155h-9.2V67.99z"/>
		<path class="st0" d="M996.4,155l-19.88-27.96c-2.24,0.24-4.55,0.38-6.96,0.38h-23.37v27.6h-9.2V68.01h32.57
			c11.1,0,19.8,2.65,26.1,7.96c6.29,5.31,9.44,12.61,9.44,21.89c0,6.79-1.72,12.53-5.15,17.22c-3.45,4.69-8.36,8.06-14.73,10.12
			l21.25,29.83H996.4V155z M989.06,113.85c4.55-3.81,6.83-9.16,6.83-16.03c0-7.04-2.29-12.45-6.83-16.22
			c-4.55-3.77-11.14-5.65-19.76-5.65h-23.11v43.64h23.11C977.92,119.56,984.51,117.66,989.06,113.85z"/>
	</g>
	<g class="st1">
		<path class="st0" d="M374.54,271.33v7.96h-61.53v-87.01h59.67v7.96h-50.47v30.95h45v7.84h-45v32.31L374.54,271.33L374.54,271.33z"
			/>
		<path class="st0" d="M468.89,192.28v87.01h-7.58l-55.94-70.61v70.59h-9.2v-87.01h7.58l56.06,70.59v-70.59h9.08V192.28z"/>
		<path class="st0" d="M591.31,271.33v7.96h-61.53v-87.01h59.67v7.96h-50.47v30.95h45v7.84h-45v32.31L591.31,271.33L591.31,271.33z"
			/>
		<path class="st0" d="M612.94,192.28h9.2v79.05h48.73v7.96h-57.93V192.28z"/>
		<path class="st0" d="M718.71,192.28h9.2v79.05h48.73v7.96h-57.93V192.28z"/>
		<path class="st0" d="M799.03,270.33c-6.29-6.45-9.44-15.87-9.44-28.22v-49.85h9.2v49.47c0,10.1,2.29,17.66,6.83,22.63
			c4.55,4.97,11.14,7.46,19.76,7.46c8.7,0,15.33-2.49,19.88-7.46c4.55-4.97,6.83-12.51,6.83-22.63v-49.47h8.94v49.85
			c0,12.35-3.13,21.75-9.38,28.22c-6.25,6.45-15.01,9.7-26.3,9.7C814.1,280.03,805.32,276.81,799.03,270.33z"/>
		<path class="st0" d="M950.04,235.78h8.82v33.19c-4.07,3.57-8.86,6.29-14.41,8.2c-5.55,1.9-11.4,2.87-17.52,2.87
			c-8.7,0-16.54-1.9-23.49-5.71c-6.96-3.81-12.43-9.1-16.42-15.85c-3.97-6.75-5.97-14.31-5.97-22.69s1.98-15.93,5.97-22.69
			c3.97-6.75,9.44-12.03,16.42-15.85c6.96-3.81,14.83-5.71,23.61-5.71c6.63,0,12.73,1.06,18.28,3.17c5.55,2.1,10.24,5.25,14.05,9.38
			l-5.71,5.83c-6.87-6.79-15.61-10.18-26.24-10.18c-7.04,0-13.41,1.56-19.08,4.67c-5.67,3.11-10.12,7.42-13.37,12.93
			c-3.23,5.51-4.85,11.67-4.85,18.46s1.62,12.93,4.85,18.4c3.23,5.47,7.66,9.78,13.31,12.93c5.63,3.15,11.97,4.73,19.02,4.73
			c8.96,0,16.54-2.24,22.75-6.71v-29.34H950.04z"/>
		<path class="st0" d="M1039.41,256.04h-48.49l-10.44,23.25h-9.56l39.77-87.01h9.08l39.77,87.01h-9.7L1039.41,256.04z
			 M1036.06,248.58l-20.89-46.74l-20.89,46.74H1036.06z"/>
		<path class="st0" d="M1133.38,279.29l-19.88-27.96c-2.24,0.24-4.55,0.38-6.96,0.38h-23.37v27.6h-9.2V192.3h32.57
			c11.1,0,19.8,2.65,26.1,7.96c6.29,5.31,9.44,12.61,9.44,21.89c0,6.79-1.72,12.53-5.15,17.22c-3.45,4.69-8.36,8.06-14.73,10.12
			l21.25,29.83h-10.06V279.29z M1126.04,238.14c4.55-3.81,6.83-9.16,6.83-16.03c0-7.04-2.29-12.45-6.83-16.22
			c-4.55-3.77-11.14-5.65-19.76-5.65h-23.11v43.64h23.11C1114.9,243.85,1121.49,241.95,1126.04,238.14z"/>
	</g>
</g>
</svg>
