<?xml version="1.0" encoding="utf-8"?>
<!-- Generator: Adobe Illustrator 25.3.1, SVG Export Plug-In . SVG Version: 6.00 Build 0)  -->
<svg version="1.1" id="Layer_1" xmlns="http://www.w3.org/2000/svg" xmlns:xlink="http://www.w3.org/1999/xlink" x="0px" y="0px"
	 viewBox="0 0 1039.26 1174" style="enable-background:new 0 0 1039.26 1174;" xml:space="preserve">
<style type="text/css">
	.st0{fill:#fc060b;}
</style>
<g id="Group_1374" transform="translate(13.359 -1.55)">
	<g id="Group_1371" transform="translate(-45.165 92.206)">
		<path id="Path_2969" class="st0" d="M979.29-62.65h-15.71c-129.61,0-235.36,87.47-235.62,194.59v481.53
			c3.26,31.16,30.9,53.9,62.14,51.24h127.12v339.22c6.7,34.33,40,56.65,74.25,49.96c25.24-4.98,44.98-24.72,49.96-49.96V-11.32
			C1038.09-42.48,1010.54-65.31,979.29-62.65z M917.15,48.07v514.07h-65.06v-430.2C854.23,93.22,880.16,59.83,917.15,48.07z"/>
		<path id="Path_2970" class="st0" d="M499.13-62.65c-31.24-2.66-58.88,20.09-62.14,51.24v259.56
			c-5.92,34.25-31.42,61.89-65.06,70.56V-11.32c-6.52-34.33-39.66-56.82-73.99-50.21c-25.49,4.89-45.41,24.81-50.21,50.21v329.95
			c-33.3-8.58-58.71-35.71-65.06-69.53V-11.15c-6.52-34.33-39.66-56.82-73.99-50.21c-25.49,4.89-45.41,24.81-50.21,50.21v261.2
			c14.33,95.62,92.87,168.58,189.27,175.79v578.36c6.52,34.33,39.66,56.82,73.99,50.21c25.49-4.89,45.41-24.81,50.21-50.21V425.15
			c96.65-7.3,175.27-80.6,189.27-176.48V-11.58C557.85-42.65,530.29-65.31,499.13-62.65z"/>
	</g>
</g>
</svg>
