<svg xmlns="http://www.w3.org/2000/svg" width="21.165" height="23" viewBox="0 0 21.165 23">
  <g id="Grupo_1298" data-name="Grupo 1298" transform="translate(-3.117 -2)">
    <path id="Trazado_2887" data-name="Trazado 2887" d="M11.165,2A2.088,2.088,0,0,0,9.09,4.074V5.286H3.938a.821.821,0,1,0,0,1.643h.752c.536,5.223,1.023,10.453,1.528,15.686A2.561,2.561,0,0,0,8.68,25h9.857A2.562,2.562,0,0,0,21,22.618C21.524,17.381,22,12.147,22.563,6.929h.9a.821.821,0,0,0,0-1.643H18.126V4.074A2.089,2.089,0,0,0,16.051,2Zm0,1.643h4.887a.413.413,0,0,1,.432.431V5.286h-5.75V4.074A.413.413,0,0,1,11.165,3.643ZM6.34,6.929H20.914c-.577,5.393-1.092,10.968-1.547,15.521-.056.566-.364.908-.83.908H8.68c-.467,0-.77-.337-.825-.9C7.356,17.284,6.87,12.105,6.34,6.929Z" transform="translate(0)" fill="#fc060b"/>
    <path id="Trazado_2888" data-name="Trazado 2888" d="M13,13a1,1,0,0,0-1,1v8a1,1,0,0,0,2,0V14A1,1,0,0,0,13,13Z" transform="translate(-1.72 -3.056)" fill="#fc060b"/>
    <path id="Trazado_2889" data-name="Trazado 2889" d="M19,13a1,1,0,0,0-1,1v8a1,1,0,0,0,2,0V14A1,1,0,0,0,19,13Z" transform="translate(-2.881 -3.056)" fill="#fc060b"/>
  </g>
</svg>
