<?xml version="1.0" encoding="utf-8"?>
<!-- Generator: Adobe Illustrator 25.3.1, SVG Export Plug-In . SVG Version: 6.00 Build 0)  -->
<svg version="1.1" id="Layer_1" xmlns="http://www.w3.org/2000/svg" xmlns:xlink="http://www.w3.org/1999/xlink" x="0px" y="0px"
	 viewBox="0 0 1174 932.01" style="enable-background:new 0 0 1174 932.01;" xml:space="preserve">
<style type="text/css">
	.st0{fill:#fff;}
</style>
<g id="Group_1375" transform="translate(-18.13)">
	<path id="Path_2968" class="st0" d="M1153.01,684.63c-3.7-146.06-119.35-264.58-265.28-271.85l-5.67-0.25V201.12
		c-0.45-21.17-17.53-38.19-38.7-38.63H706.23c-21.36,0-38.63,17.34-38.63,38.7c0,21.29,17.28,38.57,38.63,38.63h102.01v163.72
		c1.02,36.79-7.52,73.25-24.8,105.77c-31.18,64.2-88.87,111.57-157.85,129.74c-20.53,5.8-41.89,8.16-63.18,7.01h-5.93V341.82
		c-0.45-21.17-17.53-38.19-38.63-38.63h-112.4V70.93c-0.45-21.17-17.53-38.19-38.63-38.63H95.91
		c-21.17,0.45-38.19,17.53-38.63,38.63v270.89c0.45,21.17,17.53,38.19,38.63,38.63h116.35l-13.2,10.52
		C111.08,463.08,60.27,570.96,60.65,684.69c0.45,21.17,17.53,38.19,38.63,38.63h84.79v5.93c-0.19,4.08-0.7,8.16-1.53,12.11
		c-1.08,5.04-1.72,10.2-1.91,15.3c1.02,77.72,63.82,140.51,141.53,141.53c77.4,0.83,140.7-61.27,141.53-138.6c0-0.96,0-1.91,0-2.93
		c0.57-8.67-0.51-17.34-3.12-25.57l-2.61-7.84h338.92l-2.68,7.84c-2.36,8.29-3.44,16.96-3.06,25.57
		c1.02,77.72,63.75,140.51,141.47,141.53c77.33,0.83,140.7-61.2,141.53-138.54c0-1.02,0-1.98,0-3c0.7-8.35-0.25-16.77-2.74-24.8
		l-4.4-8.8h47.24C1135.42,722.69,1152.44,705.73,1153.01,684.63z M137.92,306.44v-197h197.13V306.5L137.92,306.44z M318.73,820.87
		c-37.36-0.06-67.58-30.28-67.64-67.64c0.19-8.03,1.91-16,5.1-23.4l3.44-10.01h116.35l1.79,1.79c7.08,8.93,10.26,20.34,8.8,31.62
		C386.5,790.65,356.15,820.93,318.73,820.87c-0.06,0-0.06,0-0.06,0H318.73z M489.34,645.93H140.35l1.02-6.69
		c20.97-149.63,149.69-260.43,300.79-258.9h47.18V645.93z M929.24,820.87c-37.36-0.06-67.58-30.28-67.64-67.64
		c0.25-10.46,2.81-20.72,7.52-30.09l1.59-3.32H988.4l3.44,10.01c3.19,7.4,4.91,15.3,5.16,23.4c-0.06,37.42-30.41,67.71-67.83,67.64
		H929.24z M769.98,645.93l11.22-10.26c43.23-38.95,74.66-89.13,90.91-144.98l1.21-4.4h7.84c91.74-1.02,171.5,62.61,191.01,152.24
		l1.4,7.08L769.98,645.93z"/>
</g>
</svg>
