<?xml version="1.0" encoding="utf-8"?>
<!-- Generator: Adobe Illustrator 25.3.1, SVG Export Plug-In . SVG Version: 6.00 Build 0)  -->
<svg version="1.1" id="Layer_1" xmlns="http://www.w3.org/2000/svg" xmlns:xlink="http://www.w3.org/1999/xlink" x="0px" y="0px"
	 viewBox="0 0 1174 360.67" style="enable-background:new 0 0 1174 360.67;" xml:space="preserve">
<style type="text/css">
	.st0{fill:#fff;}
	.st1{enable-background:new    ;}
</style>
<g id="Group_1375_1_" transform="translate(-18.13)">
	<path id="Path_2968_1_" class="st0" d="M412.39,255.09c-1.26-49.78-40.67-90.17-90.41-92.64l-1.93-0.09V90.32
		c-0.15-7.21-5.97-13.01-13.19-13.17h-46.73c-7.28,0-13.17,5.91-13.17,13.19c0,7.26,5.89,13.14,13.17,13.17h34.76v55.79
		c0.35,12.54-2.56,24.96-8.45,36.04c-10.62,21.88-30.29,38.02-53.8,44.21c-7,1.98-14.27,2.78-21.53,2.39h-2.02V138.27
		c-0.15-7.21-5.97-13.01-13.17-13.17h-38.3V45.95c-0.15-7.21-5.97-13.01-13.17-13.17H52.14c-7.21,0.15-13.01,5.97-13.17,13.17v92.32
		c0.15,7.21,5.97,13.01,13.17,13.17h39.65l-4.5,3.58c-29.98,24.57-47.3,61.33-47.17,100.1c0.15,7.21,5.97,13.01,13.17,13.17h28.9
		v2.02c-0.07,1.39-0.24,2.78-0.52,4.13c-0.37,1.72-0.59,3.48-0.65,5.21c0.35,26.48,21.75,47.89,48.23,48.23
		c26.38,0.28,47.95-20.88,48.23-47.23c0-0.33,0-0.65,0-1c0.2-2.95-0.17-5.91-1.06-8.71l-0.89-2.67h115.5l-0.91,2.67
		c-0.8,2.82-1.17,5.78-1.04,8.71c0.35,26.48,21.73,47.89,48.21,48.23c26.35,0.28,47.95-20.86,48.23-47.21c0-0.35,0-0.67,0-1.02
		c0.24-2.85-0.09-5.71-0.93-8.45l-1.5-3h16.12C406.39,268.07,412.2,262.29,412.39,255.09z M66.46,126.21V59.08h67.18v67.16
		L66.46,126.21z M128.1,301.52c-12.73-0.02-23.03-10.32-23.05-23.05c0.07-2.74,0.65-5.45,1.74-7.97l1.17-3.41h39.65l0.61,0.61
		c2.41,3.04,3.5,6.93,3,10.78C151.17,291.23,140.83,301.55,128.1,301.52c-0.02,0-0.02,0-0.02,0H128.1z M186.24,241.91H67.3
		l0.35-2.28c7.15-50.99,51.01-88.75,102.51-88.23h16.08V241.91z M336.13,301.52c-12.73-0.02-23.03-10.32-23.05-23.05
		c0.09-3.56,0.96-7.06,2.56-10.26l0.54-1.13h40.11l1.17,3.41c1.09,2.52,1.67,5.21,1.76,7.97c-0.02,12.75-10.36,23.07-23.12,23.05
		H336.13z M281.86,241.91l3.82-3.5c14.73-13.28,25.44-30.37,30.98-49.41l0.41-1.5h2.67c31.26-0.35,58.45,21.34,65.09,51.88
		l0.48,2.41L281.86,241.91z"/>
	<g class="st1">
		<path class="st0" d="M502.6,145.55h38.39c9.97,0,18.77,2,26.4,6c7.63,4,13.56,9.56,17.79,16.71c4.22,7.15,6.32,15.3,6.32,24.46
			c0,9.17-2.11,17.32-6.32,24.46c-4.21,7.15-10.15,12.71-17.79,16.71c-7.63,4-16.45,6-26.4,6H502.6L502.6,145.55L502.6,145.55z
			 M540.47,231.24c8.26,0,15.49-1.63,21.68-4.91c6.19-3.28,10.99-7.82,14.4-13.6c3.41-5.8,5.13-12.47,5.13-20.01
			s-1.72-14.21-5.13-20.01c-3.41-5.8-8.21-10.32-14.4-13.6c-6.19-3.28-13.43-4.91-21.68-4.91h-27.9v77.07h27.9V231.24z"/>
		<path class="st0" d="M680.59,231.24v8.63h-66.7v-94.32h64.68v8.63h-54.71v33.55h48.78v8.5h-48.78v35.02L680.59,231.24
			L680.59,231.24z"/>
		<path class="st0" d="M704.03,145.55H714v85.69h52.82v8.63h-62.79V145.55z"/>
		<path class="st0" d="M783.38,145.55h9.97v94.32h-9.97V145.55z"/>
		<path class="st0" d="M901.42,145.55l-41.76,94.32h-9.84l-41.76-94.32h10.78l36.11,81.93l36.37-81.93H901.42z"/>
		<path class="st0" d="M981.72,231.24v8.63h-66.7v-94.32h64.68v8.63h-54.71v33.55h48.78v8.5h-48.78v35.02L981.72,231.24
			L981.72,231.24z"/>
		<path class="st0" d="M1069.56,239.86l-21.55-30.31c-2.43,0.26-4.93,0.41-7.54,0.41h-25.33v29.92h-9.97v-94.32h35.31
			c12.04,0,21.47,2.87,28.29,8.63c6.82,5.76,10.23,13.67,10.23,23.73c0,7.37-1.87,13.58-5.58,18.66
			c-3.74,5.08-9.06,8.73-15.97,10.97l23.03,32.33h-10.91V239.86z M1061.61,195.26c4.93-4.13,7.41-9.93,7.41-17.38
			c0-7.63-2.48-13.49-7.41-17.58c-4.93-4.08-12.08-6.13-21.42-6.13h-25.05v47.3h25.05C1049.53,201.45,1056.68,199.39,1061.61,195.26
			z"/>
		<path class="st0" d="M1133.57,207.25v32.61h-9.84v-32.61l-37.72-61.7h10.65l32.33,52.95l32.33-52.95h9.97L1133.57,207.25z"/>
	</g>
</g>
</svg>
