<svg xmlns="http://www.w3.org/2000/svg" width="21.766" height="21.815" viewBox="0 0 21.766 21.815">
  <g id="Grupo_1299" data-name="Grupo 1299" transform="translate(-7.684 -6.775)">
    <path id="Trazado_2895" data-name="Trazado 2895" d="M27.246,7.559a2.668,2.668,0,0,0-3.778,0L9.725,21.276a.47.47,0,0,0-.107.134.026.026,0,0,1-.027.027c-.027.054-.054.08-.054.134V21.6L7.715,27.545a.866.866,0,0,0,.188.8.771.771,0,0,0,.563.241.742.742,0,0,0,.241-.027l5.921-1.822h.027c.054-.027.107-.027.134-.054a.026.026,0,0,0,.027-.027.267.267,0,0,0,.134-.107L28.666,12.837a2.668,2.668,0,0,0,0-3.778ZM9.7,26.554l.991-3.188,2.224,2.224Zm4.715-1.741-2.974-2.947,10.4-10.4,2.974,2.974ZM27.541,11.658l-1.607,1.607-2.947-2.947,1.607-1.607a1.067,1.067,0,0,1,1.527,0l1.447,1.447A1.06,1.06,0,0,1,27.541,11.658Z" transform="translate(0 0)" fill="#fc060b"/>
  </g>
</svg>
