<?xml version="1.0" encoding="utf-8"?>
<!-- Generator: Adobe Illustrator 25.3.1, SVG Export Plug-In . SVG Version: 6.00 Build 0)  -->
<svg version="1.1" id="Layer_1" xmlns="http://www.w3.org/2000/svg" xmlns:xlink="http://www.w3.org/1999/xlink" x="0px" y="0px"
	 viewBox="0 0 1174 748.54" style="enable-background:new 0 0 1174 748.54;" xml:space="preserve">
<style type="text/css">
	.st0{enable-background:new    ;}
	.st1{fill:#fff;}
</style>
<g class="st0">
	<path class="st1" d="M242.34,92.05v73.07h127.98v51.34H242.34v100.71h-64.02V40.65h209.01v51.34H242.34V92.05z"/>
	<path class="st1" d="M461.41,289.15c-21.98-21.85-33-53.06-33-93.64V40.65h64.02v152.5c0,49.5,20.51,74.28,61.6,74.28
		c20,0,35.29-5.99,45.8-17.96c10.51-11.98,15.8-30.77,15.8-56.31V40.65h63.19v154.86c0,40.58-11.02,71.79-33,93.64
		c-21.98,21.85-52.75,32.81-92.24,32.81S483.39,311,461.41,289.15z"/>
	<path class="st1" d="M995.68,40.65v276.53h-52.55L805.28,149.26v167.92h-63.19V40.65h52.94l137.47,167.92V40.65H995.68z"/>
</g>
<g class="st0">
	<path class="st1" d="M255.33,660.09v52.17H13.58v-41.47L165.26,487.9H16.7v-52.17h232.71v41.47L98.12,660.09H255.33z"/>
	<path class="st1" d="M349.93,698.44c-23.06-12.36-41.09-29.43-54.15-51.15c-13.06-21.72-19.56-46.18-19.56-73.26
		c0-27.14,6.5-51.54,19.56-73.26s31.09-38.8,54.15-51.15c23.06-12.36,48.92-18.6,77.65-18.6s54.53,6.18,77.46,18.6
		c22.93,12.42,40.96,29.43,54.15,51.15c13.19,21.72,19.75,46.18,19.75,73.26c0,27.14-6.56,51.54-19.75,73.26
		c-13.19,21.72-31.21,38.8-54.15,51.15c-22.93,12.36-48.73,18.6-77.46,18.6C398.85,716.98,372.99,710.8,349.93,698.44z
		 M471.86,651.23c13.19-7.52,23.51-17.96,31.02-31.41c7.52-13.44,11.28-28.73,11.28-45.8c0-17.14-3.76-32.36-11.28-45.8
		c-7.52-13.44-17.84-23.89-31.02-31.41c-13.19-7.52-27.9-11.28-44.27-11.28c-16.37,0-31.09,3.76-44.27,11.28
		c-13.19,7.52-23.51,17.96-31.02,31.41c-7.52,13.44-11.28,28.73-11.28,45.8c0,17.14,3.76,32.36,11.28,45.8
		c7.52,13.44,17.84,23.89,31.02,31.41c13.19,7.52,27.9,11.28,44.27,11.28C443.96,662.51,458.67,658.69,471.86,651.23z"/>
	<path class="st1" d="M880.7,435.73v276.53h-52.55L690.29,544.34v167.92H627.1V435.73h52.94l137.47,167.92V435.73H880.7z"/>
	<path class="st1" d="M1160.42,660.92v51.34h-214.1V435.73h209.01v51.34h-145.37v60.07h128.36v49.75h-128.36v64.02H1160.42z"/>
</g>
</svg>
