<?xml version="1.0" encoding="utf-8"?>
<!-- Generator: Adobe Illustrator 25.3.1, SVG Export Plug-In . SVG Version: 6.00 Build 0)  -->
<svg version="1.1" id="Layer_1" xmlns="http://www.w3.org/2000/svg" xmlns:xlink="http://www.w3.org/1999/xlink" x="0px" y="0px"
	 viewBox="0 0 1174 324.32" style="enable-background:new 0 0 1174 324.32;" xml:space="preserve">
<style type="text/css">
	.st0{enable-background:new    ;}
	.st1{fill:#fff;}
</style>
<g>
	<g>
		<g class="st0">
			<path class="st1" d="M105.29,53.25V80.7h48.07v19.28h-48.07v37.83H81.24V33.95h78.51v19.28h-54.46V53.25z"/>
			<path class="st1" d="M187.58,127.29c-8.26-8.21-12.4-19.93-12.4-35.17V33.95h24.05v57.28c0,18.59,7.7,27.9,23.14,27.9
				c7.51,0,13.26-2.25,17.2-6.75c3.95-4.5,5.93-11.56,5.93-21.15V33.95h23.74v58.17c0,15.24-4.14,26.97-12.4,35.17
				c-8.26,8.21-19.81,12.32-34.65,12.32C207.36,139.61,195.83,135.5,187.58,127.29z"/>
			<path class="st1" d="M388.26,33.95v103.87h-19.74l-51.78-63.07v63.07h-23.74V33.95h19.89l51.64,63.07V33.95H388.26z"/>
		</g>
		<g class="st0">
			<path class="st1" d="M110.17,266.62v19.6H19.36v-15.58l56.97-68.7h-55.8v-19.6h87.41v15.58l-56.83,68.7H110.17z"/>
			<path class="st1" d="M145.7,281.03c-8.66-4.64-15.43-11.05-20.34-19.21c-4.91-8.16-7.35-17.35-7.35-27.52
				c0-10.19,2.44-19.36,7.35-27.52c4.91-8.16,11.68-14.57,20.34-19.21c8.66-4.64,18.38-6.99,29.17-6.99
				c10.79,0,20.48,2.32,29.1,6.99c8.61,4.67,15.39,11.05,20.34,19.21s7.42,17.35,7.42,27.52c0,10.19-2.46,19.36-7.42,27.52
				c-4.95,8.16-11.72,14.57-20.34,19.21c-8.61,4.64-18.3,6.99-29.1,6.99C164.08,287.99,154.36,285.67,145.7,281.03z M191.5,263.3
				c4.95-2.82,8.83-6.75,11.65-11.8c2.82-5.05,4.24-10.79,4.24-17.2c0-6.44-1.41-12.16-4.24-17.2s-6.7-8.97-11.65-11.8
				c-4.95-2.82-10.48-4.24-16.63-4.24c-6.15,0-11.68,1.41-16.63,4.24c-4.95,2.82-8.83,6.75-11.65,11.8
				c-2.82,5.05-4.24,10.79-4.24,17.2c0,6.44,1.41,12.16,4.24,17.2c2.82,5.05,6.7,8.97,11.65,11.8c4.95,2.82,10.48,4.24,16.63,4.24
				C181.02,267.53,186.55,266.1,191.5,263.3z"/>
			<path class="st1" d="M345.07,182.35v103.87h-19.74l-51.78-63.07v63.07h-23.74V182.35h19.89l51.64,63.07v-63.07H345.07z"/>
			<path class="st1" d="M450.14,266.94v19.28h-80.42V182.35h78.51v19.28h-54.6v22.56h48.22v18.69h-48.22v24.05L450.14,266.94
				L450.14,266.94z"/>
		</g>
	</g>
	<g class="st0">
		<path class="st1" d="M497.18,125.58c-4.46-2.27-8.09-5.51-10.88-9.7l5.77-6.56c5.07,7.52,11.67,11.28,19.8,11.28
			c11.36,0,17.05-6.73,17.05-20.19V44.8h-33.57v-8.39h43.14v63.6c0,9.62-2.25,16.85-6.75,21.7c-4.5,4.85-11.17,7.28-20,7.28
			C506.49,128.99,501.64,127.85,497.18,125.58z"/>
		<path class="st1" d="M576.77,118.76c-6.64-6.82-9.97-16.74-9.97-29.77V36.41h9.7V88.6c0,10.67,2.4,18.62,7.21,23.87
			c4.81,5.25,11.76,7.87,20.85,7.87c9.18,0,16.17-2.62,20.98-7.87c4.81-5.24,7.21-13.2,7.21-23.87V36.41h9.44v52.58
			c0,13.03-3.3,22.95-9.9,29.77c-6.6,6.82-15.85,10.23-27.73,10.23C592.68,128.99,583.41,125.58,576.77,118.76z"/>
		<path class="st1" d="M736.35,119.81v8.39h-64.91V36.41h62.94v8.39h-53.24v32.65h47.47v8.26h-47.47v34.09H736.35z"/>
		<path class="st1" d="M823.29,82.31h9.31v35.01c-4.28,3.76-9.36,6.65-15.21,8.65c-5.86,2.01-12.02,3.02-18.49,3.02
			c-9.18,0-17.44-2.01-24.78-6.03c-7.34-4.02-13.11-9.59-17.31-16.72c-4.2-7.12-6.29-15.1-6.29-23.93c0-8.83,2.1-16.81,6.29-23.93
			c4.2-7.12,9.97-12.7,17.31-16.72c7.34-4.02,15.65-6.03,24.91-6.03c6.99,0,13.42,1.11,19.28,3.34c5.86,2.23,10.79,5.53,14.82,9.9
			l-6.03,6.16c-7.26-7.17-16.48-10.75-27.67-10.75c-7.43,0-14.14,1.64-20.13,4.92c-5.99,3.28-10.69,7.82-14.1,13.64
			c-3.41,5.81-5.11,12.3-5.11,19.47c0,7.17,1.71,13.64,5.11,19.41c3.41,5.77,8.08,10.32,14.03,13.64
			c5.94,3.32,12.63,4.98,20.06,4.98c9.44,0,17.44-2.36,24-7.08V82.31z"/>
		<path class="st1" d="M875.41,122.89c-7.39-4.06-13.16-9.64-17.31-16.72c-4.15-7.08-6.23-15.03-6.23-23.87
			c0-8.83,2.08-16.78,6.23-23.87c4.15-7.08,9.92-12.65,17.31-16.72c7.39-4.06,15.62-6.1,24.72-6.1c9.09,0,17.29,2.01,24.59,6.03
			c7.3,4.02,13.05,9.59,17.24,16.72c4.2,7.13,6.29,15.1,6.29,23.93c0,8.83-2.1,16.81-6.29,23.93c-4.2,7.13-9.95,12.7-17.24,16.72
			c-7.3,4.02-15.5,6.03-24.59,6.03C891.04,128.99,882.8,126.95,875.41,122.89z M919.8,115.41c5.86-3.28,10.45-7.82,13.77-13.64
			c3.32-5.81,4.98-12.3,4.98-19.47c0-7.17-1.66-13.66-4.98-19.47c-3.32-5.81-7.91-10.36-13.77-13.64
			c-5.86-3.28-12.41-4.92-19.67-4.92c-7.26,0-13.83,1.64-19.74,4.92c-5.9,3.28-10.53,7.82-13.9,13.64
			c-3.37,5.81-5.05,12.3-5.05,19.47c0,7.17,1.68,13.66,5.05,19.47c3.36,5.81,8,10.36,13.9,13.64c5.9,3.28,12.48,4.92,19.74,4.92
			C907.38,120.33,913.94,118.69,919.8,115.41z"/>
		<path class="st1" d="M975.72,125.71c-6.25-2.18-11.08-5.07-14.49-8.65l3.8-7.47c3.32,3.32,7.74,6.01,13.24,8.06
			c5.51,2.06,11.19,3.08,17.05,3.08c8.22,0,14.38-1.51,18.49-4.52c4.11-3.02,6.16-6.93,6.16-11.74c0-3.67-1.11-6.6-3.34-8.79
			c-2.23-2.18-4.96-3.87-8.2-5.05c-3.24-1.18-7.74-2.47-13.51-3.87c-6.91-1.75-12.41-3.43-16.52-5.05
			c-4.11-1.62-7.63-4.09-10.56-7.41c-2.93-3.32-4.39-7.82-4.39-13.51c0-4.63,1.22-8.85,3.67-12.65c2.45-3.8,6.21-6.84,11.28-9.11
			c5.07-2.27,11.36-3.41,18.88-3.41c5.25,0,10.38,0.72,15.41,2.16c5.03,1.44,9.38,3.43,13.05,5.97l-3.28,7.74
			c-3.85-2.53-7.96-4.44-12.33-5.7c-4.37-1.27-8.66-1.9-12.85-1.9c-8.04,0-14.1,1.55-18.16,4.65c-4.06,3.1-6.1,7.1-6.1,12
			c0,3.67,1.11,6.62,3.34,8.85c2.23,2.23,5.03,3.93,8.39,5.11c3.36,1.18,7.89,2.47,13.57,3.87c6.73,1.66,12.17,3.3,16.32,4.92
			c4.15,1.62,7.67,4.06,10.56,7.34c2.88,3.28,4.33,7.72,4.33,13.31c0,4.63-1.25,8.85-3.74,12.65c-2.49,3.8-6.32,6.82-11.47,9.05
			c-5.16,2.23-11.5,3.34-19.01,3.34C988.51,128.99,981.97,127.89,975.72,125.71z"/>
		<path class="st1" d="M501.9,193.76h37.37c9.7,0,18.27,1.95,25.7,5.83c7.43,3.89,13.2,9.31,17.31,16.26
			c4.11,6.95,6.16,14.88,6.16,23.8c0,8.92-2.05,16.85-6.16,23.8c-4.11,6.95-9.88,12.37-17.31,16.26c-7.43,3.89-16,5.83-25.7,5.83
			H501.9V193.76z M538.74,277.16c8.04,0,15.08-1.59,21.11-4.78c6.03-3.19,10.71-7.61,14.03-13.24c3.32-5.64,4.98-12.13,4.98-19.47
			s-1.66-13.83-4.98-19.47c-3.32-5.64-8-10.05-14.03-13.24c-6.03-3.19-13.07-4.78-21.11-4.78H511.6v75H538.74z"/>
		<path class="st1" d="M675.12,277.16v8.39h-64.91v-91.79h62.94v8.39h-53.24v32.65h47.47v8.26h-47.47v34.09H675.12z"/>
		<path class="st1" d="M808.99,193.76v91.79h-8l-59.01-74.48v74.48h-9.7v-91.79h8l59.14,74.48v-74.48H808.99z"/>
		<path class="st1" d="M838.89,193.76h9.7v91.79h-9.7V193.76z"/>
		<path class="st1" d="M955.2,193.76v91.79h-8l-59.01-74.48v74.48h-9.7v-91.79h8l59.14,74.48v-74.48H955.2z M920.32,184.12
			c-1.57-0.92-3.28-2.21-5.11-3.87c-1.57-1.31-2.82-2.25-3.74-2.82c-0.92-0.57-1.9-0.85-2.95-0.85c-2.01,0-3.63,0.74-4.85,2.23
			c-1.22,1.49-1.88,3.54-1.97,6.16h-5.64c0.17-4.37,1.31-7.87,3.41-10.49c2.1-2.62,4.9-3.93,8.39-3.93c2.01,0,3.78,0.44,5.31,1.31
			c1.53,0.88,3.3,2.19,5.31,3.93c1.4,1.22,2.58,2.14,3.54,2.75c0.96,0.61,1.97,0.92,3.02,0.92c1.92,0,3.5-0.72,4.72-2.16
			c1.22-1.44,1.92-3.43,2.1-5.97h5.64c-0.18,4.28-1.31,7.72-3.41,10.29c-2.1,2.58-4.9,3.87-8.39,3.87
			C923.68,185.5,921.89,185.04,920.32,184.12z"/>
		<path class="st1" d="M1000.5,280.24c-7.39-4.06-13.16-9.64-17.31-16.72c-4.15-7.08-6.23-15.04-6.23-23.87
			c0-8.83,2.08-16.78,6.23-23.87c4.15-7.08,9.92-12.65,17.31-16.72c7.39-4.07,15.62-6.1,24.72-6.1c9.09,0,17.29,2.01,24.59,6.03
			c7.3,4.02,13.05,9.59,17.24,16.72c4.2,7.13,6.29,15.1,6.29,23.93c0,8.83-2.1,16.81-6.29,23.93c-4.2,7.13-9.95,12.7-17.24,16.72
			c-7.3,4.02-15.5,6.03-24.59,6.03C1016.13,286.34,1007.89,284.31,1000.5,280.24z M1044.89,272.77c5.86-3.28,10.45-7.82,13.77-13.64
			c3.32-5.81,4.98-12.3,4.98-19.47c0-7.17-1.66-13.66-4.98-19.47c-3.32-5.81-7.91-10.36-13.77-13.64
			c-5.86-3.28-12.41-4.92-19.67-4.92c-7.26,0-13.83,1.64-19.74,4.92c-5.9,3.28-10.53,7.82-13.9,13.64
			c-3.37,5.81-5.05,12.3-5.05,19.47c0,7.17,1.68,13.66,5.05,19.47c3.36,5.81,8,10.36,13.9,13.64c5.9,3.28,12.48,4.92,19.74,4.92
			C1032.47,277.68,1039.03,276.04,1044.89,272.77z"/>
		<path class="st1" d="M1100.81,283.06c-6.25-2.18-11.08-5.07-14.49-8.65l3.8-7.47c3.32,3.32,7.74,6.01,13.24,8.06
			c5.51,2.05,11.19,3.08,17.05,3.08c8.22,0,14.38-1.51,18.49-4.52c4.11-3.02,6.16-6.93,6.16-11.74c0-3.67-1.11-6.6-3.34-8.79
			c-2.23-2.18-4.96-3.87-8.2-5.05c-3.24-1.18-7.74-2.47-13.51-3.87c-6.91-1.75-12.41-3.43-16.52-5.05
			c-4.11-1.62-7.63-4.09-10.56-7.41c-2.93-3.32-4.39-7.82-4.39-13.51c0-4.63,1.22-8.85,3.67-12.65c2.45-3.8,6.21-6.84,11.28-9.11
			c5.07-2.27,11.36-3.41,18.88-3.41c5.25,0,10.38,0.72,15.41,2.16c5.03,1.44,9.38,3.43,13.05,5.97l-3.28,7.74
			c-3.85-2.53-7.96-4.44-12.33-5.7c-4.37-1.27-8.66-1.9-12.85-1.9c-8.04,0-14.1,1.55-18.16,4.65c-4.06,3.1-6.1,7.1-6.1,12
			c0,3.67,1.11,6.62,3.34,8.85c2.23,2.23,5.03,3.93,8.39,5.11c3.36,1.18,7.89,2.47,13.57,3.87c6.73,1.66,12.17,3.3,16.32,4.92
			c4.15,1.62,7.67,4.06,10.56,7.34c2.88,3.28,4.33,7.72,4.33,13.31c0,4.64-1.25,8.85-3.74,12.65c-2.49,3.8-6.32,6.82-11.47,9.05
			c-5.16,2.23-11.5,3.34-19.01,3.34C1113.6,286.34,1107.06,285.25,1100.81,283.06z"/>
	</g>
</g>
</svg>
