<?xml version="1.0" encoding="utf-8"?>
<!-- Generator: Adobe Illustrator 25.3.1, SVG Export Plug-In . SVG Version: 6.00 Build 0)  -->
<svg version="1.1" id="Layer_1" xmlns="http://www.w3.org/2000/svg" xmlns:xlink="http://www.w3.org/1999/xlink" x="0px" y="0px"
	 viewBox="0 0 1174 972.09" style="enable-background:new 0 0 1174 972.09;" xml:space="preserve">
<style type="text/css">
	.st0{fill:#fff;}
</style>
<g id="Group_1372" transform="translate(0.37 0.45)">
	<g id="Group_1370" transform="translate(132.939 89.775)">
		<path id="Path_2966" class="st0" d="M1009.9,241.7L1009.9,241.7c-0.19-4.75-1.31-9.37-3.31-13.68c-1.69-3.19-3.81-6.06-6.31-8.62
			c-2.19-2.12-4.68-3.93-7.37-5.31L468.18-59.19c-9.06-4.75-19.86-4.75-28.98,0L-85.59,213.91c-10.43,5.37-16.99,16.11-16.92,27.92
			c0,2.31,0.31,4.62,0.87,6.87c-0.56,2.31-0.87,4.68-0.87,7.12v303.71c-0.06,11.87,6.62,22.73,17.24,28.04l525.42,262.62l2.56,1
			c3.5,1.31,7.18,2,10.87,2c3.5,0,6.99-0.62,10.24-1.87l529.29-282.1c10.24-5.43,16.67-16.05,16.67-27.67V395.21l-0.37-2.56
			c0.25-1.5,0.37-3.06,0.37-4.56L1009.9,241.7z M422.34,687.74v83.25l-462.03-231.2v-83.25L422.34,687.74z M422.34,533.86v83.62
			L-39.69,386.41v-92.99L422.34,533.86z M910.53,241.7L453.69,479.4L-3.15,241.7L453.63,3.88L910.53,241.7z M947.13,446.93v75.69
			L485.1,769.43v-82.13L947.13,446.93z M952.32,366.42l-5.18,0.37v2.44L485.1,615.92v-82l462.03-240.44v72.95L952.32,366.42z
			 M955.06,366.42h3.81l-3.62,0.31L955.06,366.42z"/>
		<path id="Path_2967" class="st0" d="M199.63,194.62c-15.24,8.18-20.98,27.23-12.8,42.47c4,7.49,10.93,13.05,19.11,15.36
			l365.41,103.3c16.68,4.75,34.04-5,38.78-21.67c2.06-7.31,1.44-15.18-1.87-22.05L494.28,73.77c-7.49-15.61-26.23-22.23-41.84-14.74
			c-0.37,0.19-0.81,0.37-1.19,0.62L199.63,194.62z M384.68,237.65L478.36,186l43.03,90.37L384.68,237.65z"/>
	</g>
</g>
</svg>
