<?xml version="1.0" encoding="utf-8"?>
<!-- Generator: Adobe Illustrator 25.3.1, SVG Export Plug-In . SVG Version: 6.00 Build 0)  -->
<svg version="1.1" id="Layer_1" xmlns="http://www.w3.org/2000/svg" xmlns:xlink="http://www.w3.org/1999/xlink" x="0px" y="0px"
	 viewBox="0 0 1174 402.55" style="enable-background:new 0 0 1174 402.55;" xml:space="preserve">
<style type="text/css">
	.st0{fill:#fff;}
	.st1{enable-background:new    ;}
</style>
<g id="Group_1372_1_" transform="translate(0.37 0.45)">
	<g id="Group_1370_1_" transform="translate(132.939 89.775)">
		<path id="Path_2966_1_" class="st0" d="M334.12,50.85L334.12,50.85c-0.07-1.86-0.51-3.67-1.3-5.36c-0.66-1.25-1.49-2.38-2.47-3.38
			c-0.86-0.83-1.84-1.54-2.89-2.08L121.68-67.15c-3.55-1.86-7.79-1.86-11.36,0l-205.8,107.1c-4.09,2.11-6.66,6.32-6.64,10.95
			c0,0.91,0.12,1.81,0.34,2.69c-0.22,0.91-0.34,1.84-0.34,2.79v119.1c-0.02,4.65,2.6,8.91,6.76,11l206.05,102.99l1,0.39
			c1.37,0.51,2.82,0.78,4.26,0.78c1.37,0,2.74-0.24,4.02-0.73l207.56-110.63c4.02-2.13,6.54-6.29,6.54-10.85v-57.38l-0.15-1
			c0.1-0.59,0.15-1.2,0.15-1.79L334.12,50.85z M103.71,225.77v32.65l-181.19-90.67V135.1L103.71,225.77z M103.71,165.42v32.79
			l-181.19-90.62V71.13L103.71,165.42z M295.16,50.85L116,144.06L-63.15,50.85l179.13-93.26L295.16,50.85z M309.51,131.33v29.68
			L128.32,257.8v-32.21L309.51,131.33z M311.54,99.76l-2.03,0.15v0.96L128.32,197.6v-32.16l181.19-94.29v28.61L311.54,99.76z
			 M312.64,99.76h1.49l-1.42,0.15L312.64,99.76z"/>
		<path id="Path_2967_1_" class="st0" d="M16.37,32.38c-5.98,3.21-8.23,10.68-5.02,16.65c1.57,2.94,4.29,5.12,7.49,6.02l143.3,40.51
			c6.54,1.86,13.35-1.96,15.21-8.5c0.81-2.87,0.56-5.95-0.73-8.65l-44.7-93.43c-2.94-6.12-10.29-8.72-16.41-5.78
			c-0.15,0.07-0.32,0.15-0.47,0.24L16.37,32.38z M88.94,49.26L125.68,29l16.87,35.44L88.94,49.26z"/>
	</g>
	<g class="st1">
		<path class="st0" d="M640.78,98.19c7.69,6.49,11.54,15.41,11.54,26.74s-3.85,20.23-11.54,26.65c-7.69,6.44-18.32,9.65-31.89,9.65
			h-28.56v33.58H569.1V88.49h39.8C622.46,88.47,633.09,91.7,640.78,98.19z M632.75,144.43c5.56-4.6,8.35-11.12,8.35-19.52
			c0-8.6-2.79-15.21-8.35-19.81s-13.62-6.91-24.15-6.91h-28.24v53.17h28.24C619.13,151.34,627.16,149.04,632.75,144.43z"/>
		<path class="st0" d="M737.99,166.38h-59.24l-12.76,28.41H654.3l48.59-106.32h11.09l48.59,106.32h-11.85L737.99,166.38z
			 M733.9,157.27l-25.52-57.11l-25.52,57.11H733.9z"/>
		<path class="st0" d="M852.8,194.79l-24.3-34.17c-2.74,0.29-5.56,0.47-8.5,0.47h-28.56v33.72h-11.24V88.49h39.8
			c13.57,0,24.2,3.23,31.89,9.72c7.69,6.49,11.54,15.41,11.54,26.74c0,8.3-2.11,15.31-6.29,21.04c-4.21,5.73-10.21,9.85-18,12.37
			l25.96,36.44H852.8V194.79z M843.86,144.51c5.56-4.65,8.35-11.19,8.35-19.59c0-8.6-2.79-15.21-8.35-19.81s-13.62-6.91-24.15-6.91
			h-28.24v53.32h28.24C830.25,151.49,838.28,149.16,843.86,144.51z"/>
		<path class="st0" d="M956.7,166.38h-59.24l-12.76,28.41h-11.71l48.59-106.32h11.09l48.59,106.32h-11.85L956.7,166.38z
			 M952.61,157.27l-25.52-57.11l-25.52,57.11H952.61z"/>
	</g>
	<g class="st1">
		<path class="st0" d="M569.1,240.34h11.24v96.59h59.54v9.72H569.1V240.34z"/>
		<path class="st0" d="M658.56,240.34h11.24v96.59h59.54v9.72h-70.78V240.34z"/>
		<path class="st0" d="M823.19,336.93v9.72H748V240.34h72.91v9.72h-61.67v37.81h54.98v9.58h-54.98v39.48L823.19,336.93
			L823.19,336.93z"/>
		<path class="st0" d="M936.49,240.34l-47.07,106.32h-11.09l-47.07-106.32h12.15l40.7,92.36l41-92.36H936.49z"/>
		<path class="st0" d="M1015.33,318.25h-59.24l-12.76,28.41h-11.71l48.59-106.32h11.09l48.59,106.32h-11.85L1015.33,318.25z
			 M1011.24,309.14l-25.52-57.11l-25.52,57.11H1011.24z"/>
		<path class="st0" d="M1130.14,346.66l-24.3-34.17c-2.74,0.29-5.56,0.47-8.5,0.47h-28.56v33.72h-11.24V240.36h39.8
			c13.57,0,24.2,3.23,31.89,9.72c7.69,6.49,11.54,15.4,11.54,26.74c0,8.3-2.11,15.31-6.29,21.04c-4.21,5.73-10.21,9.85-18,12.37
			l25.96,36.44h-12.29V346.66z M1121.18,296.38c5.56-4.65,8.35-11.19,8.35-19.59c0-8.6-2.79-15.21-8.35-19.81
			c-5.56-4.6-13.62-6.91-24.15-6.91h-28.24v53.32h28.24C1107.56,303.36,1115.62,301.03,1121.18,296.38z"/>
	</g>
</g>
</svg>
