<svg id="Thumbs_Up" data-name="Thumbs Up" xmlns="http://www.w3.org/2000/svg" xmlns:xlink="http://www.w3.org/1999/xlink" width="13" height="13" viewBox="0 0 13 13">
  <defs>
    <filter id="Trazado_198">
      <feOffset input="SourceAlpha"/>
      <feGaussianBlur result="blur"/>
      <feFlood flood-opacity="0.161" result="color"/>
      <feComposite operator="out" in="SourceGraphic" in2="blur"/>
      <feComposite operator="in" in="color"/>
      <feComposite operator="in" in2="SourceGraphic"/>
    </filter>
  </defs>
  <rect id="Rectángulo_1452" data-name="Rectángulo 1452" width="13" height="13" fill="none"/>
  <g data-type="innerShadowGroup">
    <path id="Trazado_198-2" data-name="Trazado 198" d="M0,11.052v-6.5L3.9,0h0a1.3,1.3,0,0,1,1.17,1.82L3.9,4.551H8.842a1.317,1.317,0,0,1,1.3,1.5l-.845,5.2A1.322,1.322,0,0,1,8,12.352H1.3A1.3,1.3,0,0,1,0,11.052Z" transform="translate(0 0.648)" fill="#fc060b" fill-rule="evenodd"/>
    <g transform="matrix(1, 0, 0, 1, 0, 0)" filter="url(#Trazado_198)">
      <path id="Trazado_198-3" data-name="Trazado 198" d="M0,11.052v-6.5L3.9,0h0a1.3,1.3,0,0,1,1.17,1.82L3.9,4.551H8.842a1.317,1.317,0,0,1,1.3,1.5l-.845,5.2A1.322,1.322,0,0,1,8,12.352H1.3A1.3,1.3,0,0,1,0,11.052Z" transform="translate(0 0.65)" fill="#fff" fill-rule="evenodd"/>
    </g>
  </g>
</svg>
