<svg width="13.184" height="16" viewBox="0 0 13.184 16">
  <defs>
    <filter id="Path_2886">
      <feOffset input="SourceAlpha"/>
      <feGaussianBlur result="blur"/>
      <feFlood flood-opacity="0.624" result="color"/>
      <feComposite operator="out" in="SourceGraphic" in2="blur"/>
      <feComposite operator="in" in="color"/>
      <feComposite operator="in" in2="SourceGraphic"/>
    </filter>
  </defs>
  <g data-type="innerShadowGroup">
    <path id="Path_2886-2" data-name="Path 2886" d="M6.58,9.47A2.786,2.786,0,0,0,9.371,6.679,2.872,2.872,0,0,0,6.58,3.788,2.786,2.786,0,0,0,3.788,6.579,2.942,2.942,0,0,0,6.58,9.47ZM1.894,1.894a6.626,6.626,0,0,1,9.371,9.371L6.58,15.95,1.894,11.265A6.807,6.807,0,0,1,1.894,1.894Z" transform="translate(-0.025 0.05)" fill-rule="evenodd"/>
    <g transform="matrix(1, 0, 0, 1, 0, 0)" filter="url(#Path_2886)">
      <path id="Path_2886-3" data-name="Path 2886" d="M6.58,9.47A2.786,2.786,0,0,0,9.371,6.679,2.872,2.872,0,0,0,6.58,3.788,2.786,2.786,0,0,0,3.788,6.579,2.942,2.942,0,0,0,6.58,9.47ZM1.894,1.894a6.626,6.626,0,0,1,9.371,9.371L6.58,15.95,1.894,11.265A6.807,6.807,0,0,1,1.894,1.894Z" transform="translate(-0.03 0.05)" fill-rule="evenodd"/>
    </g>
  </g>
</svg>
