<svg width="26.073" height="24.959" viewBox="0 0 26.073 24.959">
  <g id="Group_1246" data-name="Group 1246" transform="translate(1 1)">
    <path id="Path_1186" data-name="Path 1186" d="M23.515,32.209a2.383,2.383,0,0,1-1.673-.662L9.944,20.2a2.167,2.167,0,0,1-.694-1.6v-7.1A2.313,2.313,0,0,1,11.617,9.25h7.442a2.383,2.383,0,0,1,1.673.662l11.9,11.347h0a2.183,2.183,0,0,1,0,3.191C24.745,31.972,24.142,32.211,23.515,32.209Z" transform="translate(-9.25 -9.25)" fill="none" stroke="#f9f9f9" stroke-width="2"/>
    <path id="Path_1187" data-name="Path 1187" d="M.987,0A.986.986,0,1,1,0,.986.987.987,0,0,1,.987,0Z" transform="translate(4.774 4.774)" fill="#f9f9fa" stroke="#f9f9f9" stroke-width="1"/>
  </g>
</svg>
