<svg xmlns="http://www.w3.org/2000/svg" width="18.925" height="22.052" viewBox="0 0 18.925 22.052">
  <g id="Grupo_1501" data-name="Grupo 1501" transform="translate(114 -3454)">
    <path id="Trazado_3236" data-name="Trazado 3236" d="M3.077,0H13.848a3.081,3.081,0,0,1,3.077,3.085V16.967a3.081,3.081,0,0,1-3.077,3.085H3.077a3.438,3.438,0,0,1-1.905-.662A2.861,2.861,0,0,1,0,16.967V3.085A3.081,3.081,0,0,1,3.077,0Z" transform="translate(-113 3455)" fill="none" stroke="#fff" stroke-linecap="round" stroke-width="2"/>
    <path id="Trazado_3237" data-name="Trazado 3237" d="M-109.775,3460.378h8.205" transform="translate(1.135 0.126)" fill="none" stroke="#fff" stroke-linecap="round" stroke-width="2"/>
    <path id="Trazado_3238" data-name="Trazado 3238" d="M-109.775,3460.378h6.437" transform="translate(1.135 4.648)" fill="none" stroke="#fff" stroke-linecap="round" stroke-width="2"/>
    <path id="Trazado_3239" data-name="Trazado 3239" d="M-109.775,3460.378h4.1" transform="translate(1.135 9.17)" fill="none" stroke="#fff" stroke-linecap="round" stroke-width="2"/>
  </g>
</svg>
