<svg xmlns="http://www.w3.org/2000/svg" xmlns:xlink="http://www.w3.org/1999/xlink" width="22" height="15" viewBox="0 0 22 15">
  <defs>
    <filter id="_Color">
      <feOffset input="SourceAlpha"/>
      <feGaussianBlur stdDeviation="1.5" result="blur"/>
      <feFlood flood-opacity="0.502" result="color"/>
      <feComposite operator="out" in="SourceGraphic" in2="blur"/>
      <feComposite operator="in" in="color"/>
      <feComposite operator="in" in2="SourceGraphic"/>
    </filter>
  </defs>
  <g data-type="innerShadowGroup">
    <path id="_Color-2" data-name=" ↳Color" d="M11,15a11.731,11.731,0,0,1-6.726-2.1A11.837,11.837,0,0,1,0,7.5a11.818,11.818,0,0,1,22,0,11.836,11.836,0,0,1-4.273,5.4A11.731,11.731,0,0,1,11,15ZM11,2.5a5,5,0,1,0,5,5A5.005,5.005,0,0,0,11,2.5Zm0,8a3,3,0,1,1,3-3A3,3,0,0,1,11,10.5Z" fill="#fc060b"/>
    <g transform="matrix(1, 0, 0, 1, 0, 0)" filter="url(#_Color)">
      <path id="_Color-3" data-name=" ↳Color" d="M11,15a11.731,11.731,0,0,1-6.726-2.1A11.837,11.837,0,0,1,0,7.5a11.818,11.818,0,0,1,22,0,11.836,11.836,0,0,1-4.273,5.4A11.731,11.731,0,0,1,11,15ZM11,2.5a5,5,0,1,0,5,5A5.005,5.005,0,0,0,11,2.5Zm0,8a3,3,0,1,1,3-3A3,3,0,0,1,11,10.5Z" fill="#fff"/>
    </g>
  </g>
</svg>
