<svg width="19" height="19" viewBox="0 0 19 19">
  <defs>
    <clipPath id="clip-path">
      <rect width="19" height="19" fill="none"/>
    </clipPath>
  </defs>
  <g id="Mobile" clip-path="url(#clip-path)">
    <rect id="Rectangle_975" data-name="Rectangle 975" width="19" height="19" fill="none"/>
    <path id="Path_259" data-name="Path 259" d="M11.7,0a1.235,1.235,0,0,1,.91.356,1.037,1.037,0,0,1,.39.831V17.813a1.037,1.037,0,0,1-.39.831A1.235,1.235,0,0,1,11.7,19H1.3a1.235,1.235,0,0,1-.91-.356A1.037,1.037,0,0,1,0,17.813V1.188A1.037,1.037,0,0,1,.39.356,1.235,1.235,0,0,1,1.3,0Zm-.91,14.25V3.206H2.21V14.25Zm-5.2,3.206a1.235,1.235,0,0,0,.91.356,1.235,1.235,0,0,0,.91-.356,1.081,1.081,0,0,0,0-1.663,1.235,1.235,0,0,0-.91-.356,1.235,1.235,0,0,0-.91.356,1.081,1.081,0,0,0,0,1.663Z" transform="translate(3)"/>
  </g>
</svg>
