<svg xmlns="http://www.w3.org/2000/svg" width="100%" viewBox="0 0 226.235 108.176">
	<g id="Group_1461" data-name="Group 1461" transform="translate(-104.597 -185.442)">
		<g id="Group_1448" data-name="Group 1448" transform="translate(170.152 185.442)">
			<path id="Path_3165" data-name="Path 3165"
				d="M278.131,234.519c1.273-11.291,6.837-21.772,15.987-29.925a56.544,56.544,0,0,1,17.771-10.673,62.665,62.665,0,0,1,43.66,0,56.543,56.543,0,0,1,17.771,10.673,51.278,51.278,0,0,1,8.261,9.355l2.152-4.79a56.113,56.113,0,0,0-7.384-7.964,61.073,61.073,0,0,0-19.194-11.534,67.216,67.216,0,0,0-46.872,0,61.073,61.073,0,0,0-19.194,11.534,54.018,54.018,0,0,0-13,17.192,49.055,49.055,0,0,0-4.612,16.955Z"
				transform="translate(-273.474 -185.442)" fill="#fff" />
			<path id="Path_3166" data-name="Path 3166"
				d="M431.4,346.543a47.712,47.712,0,0,1-15.261,25.5,56.536,56.536,0,0,1-17.771,10.673,62.665,62.665,0,0,1-43.66,0,58.594,58.594,0,0,1-7.835-3.629,23.513,23.513,0,0,1-3.411,3.3,62.913,62.913,0,0,0,9.639,4.594,67.216,67.216,0,0,0,46.872,0,61.08,61.08,0,0,0,19.194-11.534,54.018,54.018,0,0,0,13-17.193,49.294,49.294,0,0,0,4.164-13.32A13.278,13.278,0,0,1,431.4,346.543Z"
				transform="translate(-316.296 -283.021)" fill="#fff" />
		</g>
		<g id="Group_1457" data-name="Group 1457" transform="translate(104.597 192.712)">
			<g id="Group_1450" data-name="Group 1450" transform="translate(0 1.402)">
				<g id="Group_1449" data-name="Group 1449">
					<path id="Path_3167" data-name="Path 3167"
						d="M117.092,260.7l.423-.031a47.545,47.545,0,0,0,8.262-1.25c1.436-.337,2.84-.81,4.265-1.2a1.772,1.772,0,0,0,1.186-1.088c2.112-5.566,4.366-11.074,6.882-16.471,1.974-4.235,3.953-8.474,6.337-12.5a26.8,26.8,0,0,1,4.486-5.941,7.211,7.211,0,0,1,2.753-1.644c-.894,2.913-2.006,5.557-2.956,8.254-.96,2.726-2,5.424-3,8.136-.989,2.679-1.989,5.354-2.958,8.041s-1.911,5.411-2.865,8.118l.184.139c.805-.569,1.637-1.1,2.41-1.713a40.718,40.718,0,0,0,4.906-4.776,44.432,44.432,0,0,0,7.25-11.1,26.268,26.268,0,0,0,2.371-7.787,14.82,14.82,0,0,0-.706-7.445,8.631,8.631,0,0,0-5.8-5.447,22.167,22.167,0,0,0-12.53-.136A38.985,38.985,0,0,0,128.5,219a44.805,44.805,0,0,0-7.354,5.3,37.735,37.735,0,0,0-7.13,8.842,34.457,34.457,0,0,0-3.157,6.3,12.868,12.868,0,0,0-.856,5.507,2.848,2.848,0,0,1-.614-.585,9.947,9.947,0,0,1-2.714-8.722,23.033,23.033,0,0,1,3.421-8.661,39.717,39.717,0,0,1,7.485-8.935A42.116,42.116,0,0,1,130,210.288a34.31,34.31,0,0,1,15.9-2.376,23.643,23.643,0,0,1,6.676,1.406,17.8,17.8,0,0,1,10.4,10.353,19.647,19.647,0,0,1,1.094,9.707,28.87,28.87,0,0,1-3.748,11.1,50.355,50.355,0,0,1-12.045,14.112A47.641,47.641,0,0,1,140.51,260c-1,.543-2.012,1.088-3.047,1.568a2.036,2.036,0,0,0-1.128,1.182q-2.515,6.269-5.095,12.513a116.136,116.136,0,0,1-6.712,13.768,29.261,29.261,0,0,1-6.724,7.973,17.791,17.791,0,0,1-8.57,3.777c-1.254.214-2.527.323-3.794.444-.3.028-.7.12-.842-.43.733-.484,1.434-.936,2.122-1.406a24.824,24.824,0,0,0,6.108-6.65,114.228,114.228,0,0,0,8.189-14.473q3.045-6.087,6.048-12.194c.265-.536.486-1.094.8-1.809-.622,0-1.107.018-1.588.007-2.665-.058-4.372-.912-6.615-1.886A13.186,13.186,0,0,1,117.092,260.7Z"
						transform="translate(-104.597 -207.784)" fill="#fff" />
				</g>
			</g>
			<g id="Group_1456" data-name="Group 1456" transform="translate(43.638)">
				<g id="Group_1451" data-name="Group 1451" transform="translate(174.51 6.265)">
					<path id="Path_3168" data-name="Path 3168"
						d="M672.2,225.94c1.785-1.785,2.387-4.076,1.345-5.118s-3.333-.44-5.118,1.345-2.387,4.076-1.345,5.119S670.414,227.724,672.2,225.94Z"
						transform="translate(-666.569 -220.31)" fill="#fff" />
				</g>
				<g id="Group_1453" data-name="Group 1453" transform="translate(10.276 36.489)">
					<g id="Group_1452" data-name="Group 1452">
						<path id="Path_3169" data-name="Path 3169"
							d="M245.34,300.026c-1.784,1.785-2.387,4.076-1.345,5.118s3.334.44,5.118-1.345,2.387-4.076,1.345-5.119S247.125,298.241,245.34,300.026Z"
							transform="translate(-243.484 -298.17)" fill="#fff" />
					</g>
				</g>
				<g id="Group_1455" data-name="Group 1455">
					<g id="Group_1454" data-name="Group 1454">
						<path id="Path_3170" data-name="Path 3170"
							d="M241.815,268.571a4.025,4.025,0,0,1,3.53.494c-.477.62-.9,1.179-1.334,1.732-2.522,3.234-5.085,6.438-7.558,9.709a47.587,47.587,0,0,0-5.251,8.354,25.061,25.061,0,0,0-2.136,5.855,4.353,4.353,0,0,0,3.426,5.124,8.268,8.268,0,0,0,4.939-.419,21.053,21.053,0,0,0,6.752-4.513,31.786,31.786,0,0,0,7.426-11.06,28.975,28.975,0,0,0,2.624-12.024,10.361,10.361,0,0,0-.8-3.966,1.39,1.39,0,0,1,.169-1.408,57.46,57.46,0,0,0,3.819-5.2c2.107-3.478,4.06-7.051,6.023-10.614a1.554,1.554,0,0,1,1.211-.888c1.058-.184,2.112-.394,3.169-.584.776-.14,1.554-.266,2.529-.432L261,264.631l1.633,1.377a6.432,6.432,0,0,1,2.934-1.608,4.15,4.15,0,0,1,3.215.5c-.68.788-1.316,1.481-1.9,2.213q-3.276,4.1-6.524,8.215a59.424,59.424,0,0,0-6,8.465,15.507,15.507,0,0,0-2.17,7.664,4.4,4.4,0,0,0,3.11,4.036,7.144,7.144,0,0,0,5.493-.451,23.4,23.4,0,0,0,5.837-4.108,38.35,38.35,0,0,0,6.657-8.712,33.353,33.353,0,0,0,4.249-12c.351-2.844.432-5.648-1.276-8.143a12.79,12.79,0,0,1,3.254-3.458c0,1.106-.06,2.248.013,3.381a10.528,10.528,0,0,0,1.809,5.787,3.659,3.659,0,0,0,3.815,1.479,4.119,4.119,0,0,0,2.076-.967,14.437,14.437,0,0,0,3.506-4.755c.14-.288.285-.574.5-1a8.481,8.481,0,0,0,2.261,3.253,4.39,4.39,0,0,0,2.768,1.053,6.037,6.037,0,0,0,3.788-1.117A12.752,12.752,0,0,0,304.4,260.4c1.175-2.673,2.195-5.423,3.119-8.194,1.137-3.41,2.134-6.868,3.126-10.324a1.223,1.223,0,0,1,1.069-1c.826-.149,1.654-.293,2.485-.41a7.439,7.439,0,0,1,1-.007,3.955,3.955,0,0,1-.062.606c-.483,1.675-.946,3.356-1.469,5.018-.836,2.658-1.738,5.3-2.562,7.957a12.91,12.91,0,0,0-.541,5.481,4.724,4.724,0,0,0,5.327,4.331,8.46,8.46,0,0,0,5.376-2.484,23.277,23.277,0,0,0,3.281-4.207c.545-.873,1.076-1.753,1.678-2.735.149.381.26.623.339.875a7.119,7.119,0,0,0,1.947,3.119,6.733,6.733,0,0,0,6.006,1.895,10.637,10.637,0,0,0,6.405-3.713,44.8,44.8,0,0,0,5.348-7.194,4.926,4.926,0,0,1,.538-.63,5.944,5.944,0,0,1,.281.7,10.831,10.831,0,0,0,2.713,4.769,6.272,6.272,0,0,0,2.685,1.722,5.732,5.732,0,0,0,4.487-.47,14.518,14.518,0,0,0,4.943-4.07c.422-.512.833-1.033,1.295-1.606.2.224.365.382.5.561a8.472,8.472,0,0,0,2.686,2.4,4.7,4.7,0,0,0,3.1.632c.265-.043.534-.063.8-.089a7.691,7.691,0,0,0,3.234-1.022,21.91,21.91,0,0,0,6.384-6.226c.147-.2.312-.388.437-.542.819.9,1.526,1.8,2.359,2.569a6.8,6.8,0,0,0,4.595,2.053,9.843,9.843,0,0,0,7.706-3.58c.23-.262.443-.529.648-.8l-.14.025c-6.425,1.027-8.67-2.89-7.232-9.34l.024-.106c.054-.233.111-.469.174-.709.012-.047.023-.093.035-.139,0-.017.008-.033.013-.049h0c.224-.832.488-1.655.768-2.474a54.133,54.133,0,0,1,6.227-12.293,4.855,4.855,0,0,0,.3-.679c-2.035.375-3.944.734-5.855,1.073a1.137,1.137,0,0,0-.811.682c-.539.97-1.1,1.931-1.609,2.914-2.267,4.343-4.506,8.7-6.786,13.037a28.978,28.978,0,0,1-3.573,5.284,9.541,9.541,0,0,1-4.394,3.39,3.614,3.614,0,0,1-4.268-1.807,6.529,6.529,0,0,1-.352-4.047,1.024,1.024,0,0,1,.452-.607,29.71,29.71,0,0,0,5.643-5.019,37.55,37.55,0,0,0,8.856-16.1,9.858,9.858,0,0,0,.163-5.174,4.028,4.028,0,0,0-6.562-1.864,25.543,25.543,0,0,0-2.317,2.655,41.337,41.337,0,0,0-4.5,7.861,97.309,97.309,0,0,0-4.023,10.427c-1.807,5.271-3.994,10.352-7.86,14.511a6.942,6.942,0,0,1-1.517,1.288,1.706,1.706,0,0,1-2.213-.308,5.818,5.818,0,0,1-1.561-3.1,16.174,16.174,0,0,1,.041-6.037,1.991,1.991,0,0,1,.639-1.125,54.549,54.549,0,0,0,10.155-12.279,66.983,66.983,0,0,0,5.164-10.142,19.012,19.012,0,0,0,1.559-6.688,4.6,4.6,0,0,0-1.641-3.663,3.876,3.876,0,0,0-2.8-.994,4.86,4.86,0,0,0-2.617.97,23.914,23.914,0,0,0-2.612,2.353,31.489,31.489,0,0,0-4.187,6.162,92.186,92.186,0,0,0-5.458,12.457c-1.889,5.032-3.6,10.128-5.485,15.162a28.56,28.56,0,0,1-4.826,8.8,15.971,15.971,0,0,1-4.578,3.747,2.512,2.512,0,0,1-3.451-.863,9.387,9.387,0,0,1-1.212-4.635,10.6,10.6,0,0,0,5.061-1.394,14.66,14.66,0,0,0,6.9-9.762,7.575,7.575,0,0,0-.19-4.082,4.193,4.193,0,0,0-2.493-2.737,5.344,5.344,0,0,0-3.061-.3,10.421,10.421,0,0,0-5.491,3,21.757,21.757,0,0,0-5.615,9.885c-.5,1.709-.925,3.438-1.436,5.143a20.355,20.355,0,0,1-3.827,7.491,6.627,6.627,0,0,1-2.249,1.831c-.821.378-1.4.131-1.561-.765a6.845,6.845,0,0,1-.031-2.3c.3-1.753.688-3.5,1.114-5.223a89.415,89.415,0,0,1,2.827-9.359,1.2,1.2,0,0,0-.4-1.487,13.771,13.771,0,0,1-2.272-2.819c-.428-.684-.779-.88-1.474-.739-2.4.487-4.817.9-7.227,1.343-1.549.282-3.1.557-4.6.826a1.12,1.12,0,0,0,.184,1.6,2.789,2.789,0,0,1,.918,2.265,9.973,9.973,0,0,1-.24,2,67.239,67.239,0,0,1-5.259,14.145,16.346,16.346,0,0,1-1.748,2.578,1.973,1.973,0,0,1-1.578.781c-.5.009-.877-.179-.935-.708a4.484,4.484,0,0,1-.027-1.495c.432-1.794.9-3.582,1.427-5.349.6-2,1.288-3.965,1.927-5.949a5.765,5.765,0,0,0,.135-.792c-.255-.026-.4-.083-.538-.025a7.107,7.107,0,0,1-3.234.683c-.96-.082-1.3.187-1.416.821a14.972,14.972,0,0,1-.416,1.555,38.343,38.343,0,0,1-3.828,8.856,10.021,10.021,0,0,1-2.546,2.971c-1.212.905-2.366.482-2.565-1.023a10.237,10.237,0,0,1,.109-3A23.542,23.542,0,0,1,289.4,248.2a13.365,13.365,0,0,1,3.48-3.862,2.811,2.811,0,0,1,.781-.389,13.491,13.491,0,0,1,2.295-.505c1.456-.192,2.919-.328,4.382-.488,0-.09.04-.192-.043-.224a3.1,3.1,0,0,1-2.263-2.562c-.14-2.1-.532-2.322-1.227-2.311a12.55,12.55,0,0,0-9.166,4.011,29.03,29.03,0,0,0-3.2,3.941,120.512,120.512,0,0,1-8.315,10.877l-2.728,3.225-2.854-.381c2.2-4.21,4.4-8.32,6.85-12.313-.849-1.341-1.689-2.639-2.5-3.957a.944.944,0,0,0-1.158-.51c-1.442.318-2.9.574-4.351.846q-4.208.787-8.418,1.563c-1.148.212-2.3.418-3.419.621-.042.71-.06.726.27,1.079a2.767,2.767,0,0,1,.713,1.935,6.193,6.193,0,0,1-.707,2.91c-.387.783-.8,1.553-1.214,2.324a61.445,61.445,0,0,1-6.445,9.5c-.179.222-.472.512-.472.512-.855.034-1.918-.022-3.024-.065,2.66-4.308,5.3-8.344,7.868-12.413-.994-1.387-1.937-2.734-2.923-4.048a1.081,1.081,0,0,0-.751-.35,6.22,6.22,0,0,0-1.292.176c-2.508.47-5.011.966-7.523,1.417-2.314.415-4.634.791-6.954,1.166-.359.058-.659.128-.757.529-.089.367.184.515.388.743a4.5,4.5,0,0,1,.759,1.143,3.652,3.652,0,0,1-.285,2.837,105.293,105.293,0,0,1-6.97,15.3,8.573,8.573,0,0,1-1.244,1.7c-1.252,1.3-2.687.931-3.132-.819a8.407,8.407,0,0,1,.312-4.474,57.686,57.686,0,0,1,4.57-11.4c.826-1.536,1.7-3.043,2.678-4.777-2.005.365-3.813.733-5.635,1.005a2,2,0,0,0-1.5,1.1c-1.238,2.5-2.558,4.97-3.762,7.49a41.7,41.7,0,0,0-3.106,9.038,13.452,13.452,0,0,0,.524,8.226,4.9,4.9,0,0,0,5.594,3.114,7.346,7.346,0,0,0,3.329-1.594,15.883,15.883,0,0,0,3.647-4.149,59.062,59.062,0,0,0,3.941-6.673,119.225,119.225,0,0,0,5.4-13.362c.215-.682.74-.782,1.945-.948l5.358-.828-9.79,15.805c.438.271,1.43.809,1.868,1.1A10.31,10.31,0,0,1,241.815,268.571Zm137.393-52.284c.443.479-.017,2.736-.427,3.974a33.982,33.982,0,0,1-4.7,9.755c-.937,1.262-2.046,2.4-3.1,3.568a8.178,8.178,0,0,1-1.071.837C370.134,231.62,377.282,217.659,379.208,216.287Zm-15.633.506a52.54,52.54,0,0,1-6.344,12.106c-.894,1.286-2.139,2.386-3.093,3.63-.186-.082.084.041-.1-.042.154-.805.278-1.618.466-2.416a53.234,53.234,0,0,1,3.381-9.256,45.392,45.392,0,0,1,4.311-8.056s1.764-2.637,2.356-2.324C364.55,210.436,365.817,210.6,363.575,216.793Zm-25.431,18.035c.531.278.561.79.543,1.312a7.4,7.4,0,0,1-1.541,4.329,13.467,13.467,0,0,1-4.6,3.741,7.19,7.19,0,0,1-.738.269C332.129,241.57,335.727,235.357,338.144,234.828Zm-90.536,43.2a27.344,27.344,0,0,1-6.366,12.185,20.5,20.5,0,0,1-2.948,2.417,3.34,3.34,0,0,1-1.293.512c-.656.137-1.026-.156-1.116-.826a2.124,2.124,0,0,1,.041-.9,20.645,20.645,0,0,1,.976-2.738,64.3,64.3,0,0,1,7.048-11.134c1.123-1.465,2.287-2.9,3.437-4.341.053-.067.157-.093.277-.16A9.52,9.52,0,0,1,247.608,278.027Zm23.723-6.353a20.083,20.083,0,0,1-2.221,6.754,34.245,34.245,0,0,1-5.364,8.248,16.268,16.268,0,0,1-4.145,3.329,6.79,6.79,0,0,1-1.379.583.974.974,0,0,1-1.328-1.026,4.4,4.4,0,0,1,.27-1.478,19.012,19.012,0,0,1,1.492-3.177c1.592-2.447,3.221-4.878,4.975-7.21,2.179-2.9,4.5-5.688,6.762-8.523.2-.256.438-.488.827-.918A10.259,10.259,0,0,1,271.331,271.674Z"
							transform="translate(-217.012 -204.171)" fill="#fff" />
					</g>
				</g>
			</g>
		</g>
		<g id="Group_1458" data-name="Group 1458" transform="translate(212.469 194.167)">
			<path id="Path_3171" data-name="Path 3171"
				d="M389.544,232.237c.759-4.114,4.336-12.04,12.446-14a.508.508,0,0,0-.04-1c-4.1-.614-12.661-1.151-18.453,1.911-.678.358-1.361-.425-.806-.922,2.878-2.572,8.606-5.45,19.388-4.1.58.073.99-.5.654-.926a9.658,9.658,0,0,0-6.361-3.7.589.589,0,0,1-.059-1.162c2.713-.576,6.587-.321,12.3,4.117a.731.731,0,0,0,.967-.085c1.025-1.149,4.581-3.834,10.768-4.449.611-.061.979.573.565.979-1.643,1.612-5.445,3.581-6.116,5.214a.6.6,0,0,0,.628.79c6.21-.276,14.486.953,20.667,4.852a.6.6,0,0,1-.44,1.11c-5.3-1.166-12.556-2.794-19.942-2.154a.581.581,0,0,0-.423.982c1.586,1.578,5.674,6.292,6.263,12.382.059.608-.839.9-1.222.392-2.71-3.563-9.247-11.322-12.511-11.259h-.159c-.812-.011-8.509.7-16.909,11.443C390.346,233.175,389.429,232.859,389.544,232.237Z"
				transform="translate(-382.486 -207.919)" fill="#fff" />
		</g>
		<g id="Group_1460" data-name="Group 1460" transform="translate(322.914 222.916)">
			<g id="Group_1459" data-name="Group 1459" transform="translate(0 0)">
				<path id="Path_3172" data-name="Path 3172"
					d="M674.923,285.833a3.961,3.961,0,1,1-3.947-3.853A3.872,3.872,0,0,1,674.923,285.833Zm-6.931,0A2.985,2.985,0,0,0,671,288.911a2.951,2.951,0,0,0,2.937-3.055,2.975,2.975,0,1,0-5.945-.023Zm2.373,2.021h-.893V284a7.828,7.828,0,0,1,1.481-.117,2.4,2.4,0,0,1,1.339.282,1.069,1.069,0,0,1,.376.846.987.987,0,0,1-.8.893v.047a1.137,1.137,0,0,1,.7.94,2.933,2.933,0,0,0,.282.963h-.964a3.3,3.3,0,0,1-.305-.94c-.071-.423-.305-.611-.8-.611h-.423Zm.024-2.185h.423c.494,0,.893-.165.893-.564,0-.352-.259-.587-.823-.587a2.153,2.153,0,0,0-.493.047Z"
					transform="translate(-667.004 -281.98)" fill="#fff" />
			</g>
		</g>
	</g>
</svg>