<svg id="Group_1467" data-name="Group 1467" width="64.233" height="27.292" viewBox="0 0 64.233 27.292">
  <g id="Group_1450" data-name="Group 1450" transform="translate(0 0.399)">
    <g id="Group_1449" data-name="Group 1449">
      <path id="Path_3167" data-name="Path 3167" d="M108.154,222.849l.12-.009a13.535,13.535,0,0,0,2.352-.356c.409-.1.808-.231,1.214-.34a.5.5,0,0,0,.338-.31c.6-1.584,1.243-3.153,1.959-4.689.562-1.206,1.125-2.412,1.8-3.559a7.631,7.631,0,0,1,1.277-1.691,2.053,2.053,0,0,1,.784-.468c-.254.829-.571,1.582-.841,2.35s-.569,1.544-.855,2.316-.566,1.524-.842,2.289-.544,1.54-.816,2.311l.052.039c.229-.162.466-.314.686-.488a11.591,11.591,0,0,0,1.4-1.36,12.649,12.649,0,0,0,2.064-3.161,7.478,7.478,0,0,0,.675-2.217,4.219,4.219,0,0,0-.2-2.12,2.457,2.457,0,0,0-1.651-1.551,6.31,6.31,0,0,0-3.567-.039,11.1,11.1,0,0,0-2.7,1.178,12.755,12.755,0,0,0-2.093,1.51,10.743,10.743,0,0,0-2.03,2.517,9.809,9.809,0,0,0-.9,1.794,3.663,3.663,0,0,0-.244,1.568.811.811,0,0,1-.175-.166,2.832,2.832,0,0,1-.773-2.483,6.557,6.557,0,0,1,.974-2.466,11.307,11.307,0,0,1,2.131-2.544,11.99,11.99,0,0,1,3.535-2.21,9.767,9.767,0,0,1,4.526-.677,6.731,6.731,0,0,1,1.9.4,5.068,5.068,0,0,1,2.961,2.947,5.593,5.593,0,0,1,.311,2.763,8.219,8.219,0,0,1-1.067,3.159,14.335,14.335,0,0,1-3.429,4.017,13.563,13.563,0,0,1-2.211,1.541c-.286.155-.573.31-.867.446a.579.579,0,0,0-.321.336q-.716,1.785-1.45,3.562a33.061,33.061,0,0,1-1.911,3.92,8.33,8.33,0,0,1-1.914,2.27,5.065,5.065,0,0,1-2.44,1.075c-.357.061-.719.092-1.08.126-.085.008-.2.034-.24-.123.209-.138.408-.266.6-.4a7.067,7.067,0,0,0,1.739-1.893,32.521,32.521,0,0,0,2.331-4.12q.867-1.733,1.722-3.471c.075-.153.138-.312.228-.515-.177,0-.315.005-.452,0a4.557,4.557,0,0,1-1.883-.537A3.753,3.753,0,0,1,108.154,222.849Z" transform="translate(-104.597 -207.784)" fill="#fff"/>
    </g>
  </g>
  <g id="Group_1456" data-name="Group 1456" transform="translate(12.423)">
    <g id="Group_1451" data-name="Group 1451" transform="translate(49.679 1.783)">
      <path id="Path_3168" data-name="Path 3168" d="M668.172,221.913c.508-.508.68-1.16.383-1.457s-.949-.125-1.457.383-.68,1.16-.383,1.457S667.664,222.421,668.172,221.913Z" transform="translate(-666.569 -220.31)" fill="#fff"/>
    </g>
    <g id="Group_1453" data-name="Group 1453" transform="translate(2.925 10.387)">
      <g id="Group_1452" data-name="Group 1452">
        <path id="Path_3169" data-name="Path 3169" d="M244.013,298.7c-.508.508-.68,1.16-.383,1.457s.949.125,1.457-.383.68-1.16.383-1.457S244.521,298.19,244.013,298.7Z" transform="translate(-243.484 -298.17)" fill="#fff"/>
      </g>
    </g>
    <g id="Group_1455" data-name="Group 1455">
      <g id="Group_1454" data-name="Group 1454">
        <path id="Path_3170" data-name="Path 3170" d="M224.073,222.5a1.146,1.146,0,0,1,1,.141c-.136.177-.257.336-.38.493-.718.921-1.448,1.833-2.152,2.764a13.547,13.547,0,0,0-1.495,2.378,7.134,7.134,0,0,0-.608,1.667,1.239,1.239,0,0,0,.975,1.459,2.354,2.354,0,0,0,1.406-.119A5.993,5.993,0,0,0,224.747,230a9.048,9.048,0,0,0,2.114-3.149,8.249,8.249,0,0,0,.747-3.423,2.95,2.95,0,0,0-.228-1.129.4.4,0,0,1,.048-.4,16.359,16.359,0,0,0,1.087-1.48c.6-.99,1.156-2.007,1.715-3.021a.442.442,0,0,1,.345-.253c.3-.052.6-.112.9-.166.221-.04.442-.076.72-.123l-2.661,4.526.465.392a1.831,1.831,0,0,1,.835-.458,1.181,1.181,0,0,1,.915.142c-.194.224-.375.421-.542.63q-.933,1.166-1.857,2.339a16.916,16.916,0,0,0-1.708,2.41,4.414,4.414,0,0,0-.618,2.182,1.254,1.254,0,0,0,.885,1.149,2.034,2.034,0,0,0,1.564-.129,6.661,6.661,0,0,0,1.662-1.169,10.917,10.917,0,0,0,1.9-2.48,9.495,9.495,0,0,0,1.209-3.417,3.2,3.2,0,0,0-.363-2.318,3.641,3.641,0,0,1,.926-.984c0,.315-.017.64,0,.963a3,3,0,0,0,.515,1.647,1.042,1.042,0,0,0,1.086.421,1.173,1.173,0,0,0,.591-.275,4.11,4.11,0,0,0,1-1.354c.04-.082.081-.163.141-.284a2.414,2.414,0,0,0,.644.926,1.25,1.25,0,0,0,.788.3,1.719,1.719,0,0,0,1.078-.318,3.63,3.63,0,0,0,1.24-1.518c.334-.761.625-1.544.888-2.333.324-.971.607-1.955.89-2.939a.348.348,0,0,1,.3-.285c.235-.042.471-.083.707-.117a2.119,2.119,0,0,1,.284,0,1.125,1.125,0,0,1-.018.173c-.137.477-.269.955-.418,1.429-.238.757-.495,1.507-.729,2.265a3.675,3.675,0,0,0-.154,1.56,1.345,1.345,0,0,0,1.517,1.233,2.408,2.408,0,0,0,1.53-.707,6.628,6.628,0,0,0,.934-1.2c.155-.248.306-.5.478-.779.042.108.074.177.1.249a2.026,2.026,0,0,0,.554.888,1.917,1.917,0,0,0,1.71.539,3.028,3.028,0,0,0,1.823-1.057,12.757,12.757,0,0,0,1.522-2.048,1.4,1.4,0,0,1,.153-.179,1.692,1.692,0,0,1,.08.2,3.083,3.083,0,0,0,.772,1.358,1.786,1.786,0,0,0,.764.49,1.632,1.632,0,0,0,1.277-.134,4.133,4.133,0,0,0,1.407-1.159c.12-.146.237-.294.369-.457.057.064.1.109.143.16a2.411,2.411,0,0,0,.765.683,1.337,1.337,0,0,0,.882.18c.075-.012.152-.018.228-.025a2.189,2.189,0,0,0,.921-.291,6.238,6.238,0,0,0,1.817-1.773c.042-.057.089-.111.124-.154.233.257.435.513.672.731a1.935,1.935,0,0,0,1.308.585,2.8,2.8,0,0,0,2.194-1.019c.065-.075.126-.151.184-.228l-.04.007c-1.829.292-2.468-.823-2.059-2.659l.007-.03q.023-.1.05-.2l.01-.04,0-.014h0c.064-.237.139-.471.219-.7a15.411,15.411,0,0,1,1.773-3.5,1.385,1.385,0,0,0,.085-.193c-.579.107-1.123.209-1.667.305a.324.324,0,0,0-.231.194c-.153.276-.312.55-.458.83-.645,1.236-1.283,2.477-1.932,3.711a8.251,8.251,0,0,1-1.017,1.5,2.716,2.716,0,0,1-1.251.965,1.029,1.029,0,0,1-1.215-.514,1.859,1.859,0,0,1-.1-1.152.291.291,0,0,1,.129-.173,8.458,8.458,0,0,0,1.606-1.429,10.69,10.69,0,0,0,2.521-4.584,2.806,2.806,0,0,0,.046-1.473,1.147,1.147,0,0,0-1.868-.531,7.275,7.275,0,0,0-.66.756,11.767,11.767,0,0,0-1.281,2.238A27.711,27.711,0,0,0,259.4,212.3a11.172,11.172,0,0,1-2.237,4.131,1.976,1.976,0,0,1-.432.367.486.486,0,0,1-.63-.088,1.656,1.656,0,0,1-.444-.883,4.6,4.6,0,0,1,.012-1.718.567.567,0,0,1,.182-.32,15.528,15.528,0,0,0,2.891-3.5,19.07,19.07,0,0,0,1.47-2.887,5.412,5.412,0,0,0,.444-1.9,1.311,1.311,0,0,0-.467-1.043,1.1,1.1,0,0,0-.8-.283,1.384,1.384,0,0,0-.745.276,6.808,6.808,0,0,0-.744.67,8.966,8.966,0,0,0-1.192,1.754,26.243,26.243,0,0,0-1.554,3.546c-.538,1.432-1.026,2.883-1.562,4.316a8.13,8.13,0,0,1-1.374,2.5,4.547,4.547,0,0,1-1.3,1.067.715.715,0,0,1-.982-.246,2.672,2.672,0,0,1-.345-1.319,3.016,3.016,0,0,0,1.441-.4,4.173,4.173,0,0,0,1.965-2.779,2.156,2.156,0,0,0-.054-1.162,1.194,1.194,0,0,0-.71-.779,1.521,1.521,0,0,0-.871-.086,2.967,2.967,0,0,0-1.563.855,6.194,6.194,0,0,0-1.6,2.814c-.142.486-.263.979-.409,1.464a5.794,5.794,0,0,1-1.089,2.133,1.886,1.886,0,0,1-.64.521c-.234.108-.4.037-.444-.218a1.949,1.949,0,0,1-.009-.655c.086-.5.2-1,.317-1.487a25.454,25.454,0,0,1,.8-2.664.343.343,0,0,0-.115-.423,3.92,3.92,0,0,1-.647-.8c-.122-.195-.222-.25-.42-.21-.683.139-1.371.257-2.057.382-.441.08-.882.159-1.308.235a.319.319,0,0,0,.052.455.794.794,0,0,1,.261.645,2.839,2.839,0,0,1-.068.568,19.142,19.142,0,0,1-1.5,4.027,4.654,4.654,0,0,1-.5.734.562.562,0,0,1-.449.222c-.143,0-.25-.051-.266-.2a1.276,1.276,0,0,1-.008-.425c.123-.511.255-1.02.406-1.523.171-.568.367-1.129.549-1.693a1.641,1.641,0,0,0,.038-.225c-.072-.008-.113-.024-.153-.007a2.023,2.023,0,0,1-.921.194c-.273-.023-.371.053-.4.234a4.263,4.263,0,0,1-.118.443,10.917,10.917,0,0,1-1.09,2.521,2.853,2.853,0,0,1-.725.846c-.345.258-.674.137-.73-.291a2.915,2.915,0,0,1,.031-.854,6.7,6.7,0,0,1,1.027-2.446,3.8,3.8,0,0,1,.991-1.1.8.8,0,0,1,.222-.111,3.841,3.841,0,0,1,.653-.144c.415-.055.831-.093,1.247-.139,0-.026.011-.055-.012-.064a.884.884,0,0,1-.644-.729c-.04-.6-.151-.661-.349-.658a3.573,3.573,0,0,0-2.609,1.142,8.266,8.266,0,0,0-.911,1.122,34.309,34.309,0,0,1-2.367,3.1l-.777.918-.812-.109c.627-1.2,1.251-2.369,1.95-3.505-.242-.382-.481-.751-.711-1.127a.269.269,0,0,0-.33-.145c-.411.09-.825.163-1.239.241q-1.2.224-2.4.445c-.327.06-.654.119-.973.177-.012.2-.017.207.077.307a.787.787,0,0,1,.2.551,1.763,1.763,0,0,1-.2.828c-.11.223-.228.442-.346.662a17.492,17.492,0,0,1-1.835,2.705c-.051.063-.134.146-.134.146-.243.01-.546-.006-.861-.019.757-1.226,1.508-2.375,2.24-3.534-.283-.395-.552-.778-.832-1.152a.308.308,0,0,0-.214-.1,1.771,1.771,0,0,0-.368.05c-.714.134-1.427.275-2.142.4-.659.118-1.319.225-1.98.332-.1.017-.188.036-.215.151s.052.147.11.212a1.281,1.281,0,0,1,.216.325,1.04,1.04,0,0,1-.081.808,29.975,29.975,0,0,1-1.984,4.357,2.44,2.44,0,0,1-.354.484c-.356.37-.765.265-.892-.233a2.393,2.393,0,0,1,.089-1.274,16.422,16.422,0,0,1,1.3-3.244c.235-.437.485-.866.762-1.36-.571.1-1.086.209-1.6.286a.57.57,0,0,0-.426.313c-.352.713-.728,1.415-1.071,2.132a11.868,11.868,0,0,0-.884,2.573,3.83,3.83,0,0,0,.149,2.342,1.4,1.4,0,0,0,1.592.886,2.091,2.091,0,0,0,.948-.454,4.522,4.522,0,0,0,1.038-1.181,16.813,16.813,0,0,0,1.122-1.9,33.942,33.942,0,0,0,1.537-3.8c.061-.194.211-.223.554-.27l1.525-.236-2.787,4.5c.125.077.407.23.532.313A2.935,2.935,0,0,1,224.073,222.5Zm39.113-14.884c.126.136,0,.779-.122,1.131a9.674,9.674,0,0,1-1.338,2.777c-.267.359-.582.683-.884,1.016a2.326,2.326,0,0,1-.3.238A18.326,18.326,0,0,1,263.186,207.62Zm-4.45.144a14.958,14.958,0,0,1-1.806,3.446c-.255.366-.609.679-.881,1.033-.053-.023.024.012-.029-.012.044-.229.079-.461.133-.688a15.159,15.159,0,0,1,.963-2.635,12.921,12.921,0,0,1,1.227-2.293s.5-.751.671-.662C259.013,205.955,259.374,206,258.735,207.764ZM251.5,212.9c.151.079.16.225.155.374a2.107,2.107,0,0,1-.439,1.232,3.834,3.834,0,0,1-1.31,1.065,2.047,2.047,0,0,1-.21.076C249.783,214.818,250.808,213.049,251.5,212.9Zm-25.774,12.3a7.784,7.784,0,0,1-1.812,3.469,5.834,5.834,0,0,1-.839.688.951.951,0,0,1-.368.146c-.187.039-.292-.045-.318-.235a.6.6,0,0,1,.012-.256,5.876,5.876,0,0,1,.278-.78,18.305,18.305,0,0,1,2.006-3.17c.32-.417.651-.825.979-1.236.015-.019.045-.026.079-.046A2.71,2.71,0,0,1,225.722,225.2Zm6.753-1.809a5.716,5.716,0,0,1-.632,1.923,9.748,9.748,0,0,1-1.527,2.348,4.631,4.631,0,0,1-1.18.948,1.932,1.932,0,0,1-.393.166.277.277,0,0,1-.378-.292,1.253,1.253,0,0,1,.077-.421,5.41,5.41,0,0,1,.425-.9c.453-.7.917-1.389,1.416-2.053.62-.825,1.281-1.619,1.925-2.426.058-.073.125-.139.235-.261A2.921,2.921,0,0,1,232.476,223.388Z" transform="translate(-217.012 -204.171)" fill="#fff"/>
      </g>
    </g>
  </g>
</svg>
