<svg xmlns="http://www.w3.org/2000/svg" width="31.459" height="31.459" viewBox="0 0 31.459 31.459">
  <path id="Trazado_3222" data-name="Trazado 3222" d="M19.67,21.219a3.516,3.516,0,0,0-2.283-1.025l1.121-4.483,7.268-2.219a2.393,2.393,0,0,0,1.461-2.053.241.241,0,0,0-.32-.3l-7.751,1.938L21.1,5.328a.242.242,0,0,0-.3-.32,2.392,2.392,0,0,0-2.053,1.461l-2.219,7.268-4.483,1.12A3.527,3.527,0,1,0,9.7,18.4l5.962-1.82-1.821,5.961a3.53,3.53,0,1,0,5.826-1.323Zm-10.5-4.341a1.917,1.917,0,1,1,.717-.452A1.892,1.892,0,0,1,9.168,16.879Zm6.651,8.192a1.928,1.928,0,0,1-.452-1.993,1.888,1.888,0,0,1,.452-.716,1.916,1.916,0,1,1,0,2.709Z" transform="translate(-7.071 15.728) rotate(-45)" fill="#fff"/>
</svg>
