<?xml version="1.0" encoding="utf-8"?>
<!-- Generator: Adobe Illustrator 22.0.1, SVG Export Plug-In . SVG Version: 6.00 Build 0)  -->
<!DOCTYPE svg PUBLIC "-//W3C//DTD SVG 1.1//EN" "http://www.w3.org/Graphics/SVG/1.1/DTD/svg11.dtd">
<svg version="1.1" id="Layer_1" xmlns="http://www.w3.org/2000/svg" xmlns:xlink="http://www.w3.org/1999/xlink" x="0px" y="0px"
	 viewBox="0 0 200 200" enable-background="new 0 0 200 200" xml:space="preserve">
<path fill="#FF0000" d="M190.4,80.1l-53.1-51.2c-5.7-5.5-15.3-1.5-15.3,6.5l0,19.7c0,0.4-0.3,0.8-0.8,0.8
	c-32.9,0.7-102.3,24-110.6,114c-0.5,5.1,5.9,7.6,9.1,3.6c31.8-40.5,80.8-51,101.5-51.3c0.5,0,0.8,0.4,0.8,0.8c0,2.7,0,11.5,0,20.3
	c0,7.9,9.5,12,15.2,6.5l53.1-50.2C195.9,94.3,195.9,85.5,190.4,80.1z"/>
</svg>
