<svg xmlns="http://www.w3.org/2000/svg" width="53" height="47.425" viewBox="0 0 53 47.425">
  <g id="Group_1466" data-name="Group 1466" transform="translate(-1071.338 -123.243)">
    <g id="Group_598" data-name="Group 598" transform="translate(1074.209 123.243)">
      <g id="Group_596" data-name="Group 596" transform="translate(1.379 31.912)">
        <path id="Path_913" data-name="Path 913" d="M1147.6,365.483a23.235,23.235,0,0,1-43.487,0h-.506a23.712,23.712,0,0,0,44.5,0Z" transform="translate(-1103.606 -365.483)" fill="#fff"/>
      </g>
      <g id="Group_597" data-name="Group 597" transform="translate(0 0)">
        <path id="Path_914" data-name="Path 914" d="M1093.607,145.048a23.234,23.234,0,0,1,46.313,0h.471a23.7,23.7,0,0,0-47.257,0Z" transform="translate(-1093.135 -123.243)" fill="#fff"/>
      </g>
    </g>
    <g id="Group_686" data-name="Group 686" transform="translate(1075.394 124.423)">
      <g id="Group_599" data-name="Group 599" transform="translate(15.312 0.885)">
        <path id="Path_915" data-name="Path 915" d="M1218.487,139.305c.25-.083.5-.159.756-.234a.089.089,0,0,0,.076-.1c-.009-.039-.064-.061-.119-.048-.257.079-.511.156-.761.239a.1.1,0,0,0-.078.108A.1.1,0,0,0,1218.487,139.305Z" transform="translate(-1218.36 -138.915)" fill="#fff"/>
      </g>
      <g id="Group_600" data-name="Group 600" transform="translate(13.999 1.318)">
        <path id="Path_916" data-name="Path 916" d="M1208.515,142.638c.243-.1.5-.192.744-.279a.1.1,0,0,0,.069-.109c-.011-.04-.069-.058-.123-.04-.25.09-.5.183-.746.284a.094.094,0,0,0-.066.113A.093.093,0,0,0,1208.515,142.638Z" transform="translate(-1208.388 -142.202)" fill="#fff"/>
      </g>
      <g id="Group_601" data-name="Group 601" transform="translate(12.717 1.832)">
        <path id="Path_917" data-name="Path 917" d="M1198.79,146.586c.237-.114.478-.221.719-.33.057-.02.082-.07.064-.11a.091.091,0,0,0-.122-.032c-.249.1-.49.216-.731.329a.1.1,0,0,0-.059.115A.1.1,0,0,0,1198.79,146.586Z" transform="translate(-1198.657 -146.104)" fill="#fff"/>
      </g>
      <g id="Group_602" data-name="Group 602" transform="translate(11.474 2.426)">
        <path id="Path_918" data-name="Path 918" d="M1189.356,151.141c.235-.128.465-.252.7-.371a.1.1,0,0,0,.056-.117.094.094,0,0,0-.127-.023c-.237.122-.475.248-.7.373-.047.03-.073.084-.052.12A.089.089,0,0,0,1189.356,151.141Z" transform="translate(-1189.223 -150.616)" fill="#fff"/>
      </g>
      <g id="Group_603" data-name="Group 603" transform="translate(16.654 0.539)">
        <path id="Path_919" data-name="Path 919" d="M1228.67,136.63c.254-.064.51-.129.768-.185.054-.013.093-.057.082-.1a.088.088,0,0,0-.116-.052c-.261.057-.52.119-.773.185-.059.016-.094.061-.083.1A.094.094,0,0,0,1228.67,136.63Z" transform="translate(-1228.547 -136.29)" fill="#fff"/>
      </g>
      <g id="Group_604" data-name="Group 604" transform="translate(10.272 3.099)">
        <path id="Path_920" data-name="Path 920" d="M1180.239,156.293c.223-.145.449-.282.675-.416a.093.093,0,0,0,.051-.12c-.022-.039-.081-.042-.132-.013-.225.133-.455.273-.677.415a.1.1,0,0,0-.045.123A.1.1,0,0,0,1180.239,156.293Z" transform="translate(-1180.101 -155.724)" fill="#fff"/>
      </g>
      <g id="Group_605" data-name="Group 605" transform="translate(20.795 0.013)">
        <path id="Path_921" data-name="Path 921" d="M1260.085,132.488q.392-.025.791-.038c.057,0,.1-.038.1-.082a.094.094,0,0,0-.106-.075c-.268.009-.532.021-.795.041-.056,0-.1.041-.1.083A.092.092,0,0,0,1260.085,132.488Z" transform="translate(-1259.977 -132.293)" fill="#fff"/>
      </g>
      <g id="Group_606" data-name="Group 606" transform="translate(22.194)">
        <path id="Path_922" data-name="Path 922" d="M1270.7,132.356q.4,0,.792.008c.057,0,.1-.033.1-.075s-.042-.08-.1-.083c-.265-.007-.532-.01-.8-.007a.082.082,0,1,0,0,.157Z" transform="translate(-1270.597 -132.198)" fill="#fff"/>
      </g>
      <g id="Group_607" data-name="Group 607" transform="translate(18.02 0.277)">
        <path id="Path_923" data-name="Path 923" d="M1239.027,134.592c.258-.05.519-.1.779-.135a.1.1,0,0,0,.092-.092.094.094,0,0,0-.115-.065c-.26.043-.525.086-.786.139-.056.01-.095.055-.085.1A.09.09,0,0,0,1239.027,134.592Z" transform="translate(-1238.91 -134.299)" fill="#fff"/>
      </g>
      <g id="Group_608" data-name="Group 608" transform="translate(19.404 0.1)">
        <path id="Path_924" data-name="Path 924" d="M1249.525,133.2c.265-.031.526-.062.79-.088a.091.091,0,0,0,.094-.086.1.1,0,0,0-.109-.07c-.266.027-.528.058-.792.09-.058.008-.1.051-.091.092A.088.088,0,0,0,1249.525,133.2Z" transform="translate(-1249.417 -132.959)" fill="#fff"/>
      </g>
      <g id="Group_609" data-name="Group 609" transform="translate(2.698 10.903)">
        <path id="Path_925" data-name="Path 925" d="M1122.755,215.786c.126-.23.259-.461.4-.688a.089.089,0,0,0-.013-.126.092.092,0,0,0-.121.047c-.136.227-.27.459-.4.691-.027.051-.022.107.018.126A.086.086,0,0,0,1122.755,215.786Z" transform="translate(-1122.602 -214.962)" fill="#fff"/>
      </g>
      <g id="Group_610" data-name="Group 610" transform="translate(3.412 9.727)">
        <path id="Path_926" data-name="Path 926" d="M1128.172,206.836c.143-.223.292-.444.441-.662a.081.081,0,1,0-.129-.089c-.152.219-.3.443-.443.666a.1.1,0,0,0,.01.128A.094.094,0,0,0,1128.172,206.836Z" transform="translate(-1128.022 -206.035)" fill="#fff"/>
      </g>
      <g id="Group_611" data-name="Group 611" transform="translate(23.592 0.033)">
        <path id="Path_927" data-name="Path 927" d="M1281.311,132.608c.263.016.527.037.791.056a.09.09,0,0,0,.108-.069c0-.043-.039-.081-.1-.086-.262-.023-.53-.041-.795-.058a.1.1,0,0,0-.107.075A.094.094,0,0,0,1281.311,132.608Z" transform="translate(-1281.21 -132.451)" fill="#fff"/>
      </g>
      <g id="Group_612" data-name="Group 612" transform="translate(1.504 13.387)">
        <path id="Path_928" data-name="Path 928" d="M1113.7,234.679c.1-.246.2-.488.3-.729a.1.1,0,0,0-.031-.127c-.04-.018-.088.012-.11.064-.109.241-.212.488-.31.735a.081.081,0,1,0,.146.057Z" transform="translate(-1113.54 -233.818)" fill="#fff"/>
      </g>
      <g id="Group_613" data-name="Group 613" transform="translate(2.061 12.125)">
        <path id="Path_929" data-name="Path 929" d="M1117.923,225.083c.11-.238.228-.473.35-.711a.092.092,0,0,0-.02-.124c-.041-.02-.088,0-.119.055-.121.235-.237.475-.352.715a.082.082,0,1,0,.141.065Z" transform="translate(-1117.768 -224.241)" fill="#fff"/>
      </g>
      <g id="Group_614" data-name="Group 614" transform="translate(4.199 8.599)">
        <path id="Path_930" data-name="Path 930" d="M1134.149,198.248c.156-.216.319-.425.48-.633a.092.092,0,0,0,0-.129.093.093,0,0,0-.125.033c-.164.209-.324.423-.479.636a.1.1,0,0,0,0,.13A.089.089,0,0,0,1134.149,198.248Z" transform="translate(-1134.002 -197.473)" fill="#fff"/>
      </g>
      <g id="Group_615" data-name="Group 615" transform="translate(6.969 5.556)">
        <path id="Path_931" data-name="Path 931" d="M1155.171,175.052c.192-.18.385-.356.584-.532a.09.09,0,0,0,.026-.125.091.091,0,0,0-.127.006c-.2.179-.4.355-.591.538a.1.1,0,0,0-.021.128A.094.094,0,0,0,1155.171,175.052Z" transform="translate(-1155.024 -174.372)" fill="#fff"/>
      </g>
      <g id="Group_616" data-name="Group 616" transform="translate(8.013 4.666)">
        <path id="Path_932" data-name="Path 932" d="M1163.094,168.264c.2-.167.412-.333.618-.494.043-.035.063-.093.035-.125a.089.089,0,0,0-.13,0c-.211.16-.417.327-.624.5a.1.1,0,0,0-.031.126A.1.1,0,0,0,1163.094,168.264Z" transform="translate(-1162.949 -167.618)" fill="#fff"/>
      </g>
      <g id="Group_617" data-name="Group 617" transform="translate(9.118 3.848)">
        <path id="Path_933" data-name="Path 933" d="M1171.478,162.011c.212-.154.43-.308.648-.456a.093.093,0,0,0,.04-.121.09.09,0,0,0-.127-.007c-.22.149-.439.3-.652.457a.092.092,0,0,0-.036.126A.089.089,0,0,0,1171.478,162.011Z" transform="translate(-1171.338 -161.405)" fill="#fff"/>
      </g>
      <g id="Group_618" data-name="Group 618" transform="translate(5.056 7.527)">
        <path id="Path_934" data-name="Path 934" d="M1140.653,190.081c.17-.206.342-.405.519-.6a.1.1,0,0,0,.009-.127.093.093,0,0,0-.128.025c-.179.2-.352.4-.517.6a.1.1,0,0,0-.011.13A.1.1,0,0,0,1140.653,190.081Z" transform="translate(-1140.505 -189.335)" fill="#fff"/>
      </g>
      <g id="Group_619" data-name="Group 619" transform="translate(5.979 6.509)">
        <path id="Path_935" data-name="Path 935" d="M1147.659,182.327c.179-.193.367-.383.55-.57a.092.092,0,0,0,.019-.127.09.09,0,0,0-.126.015c-.193.188-.376.379-.556.574a.092.092,0,0,0-.014.13A.1.1,0,0,0,1147.659,182.327Z" transform="translate(-1147.511 -181.61)" fill="#fff"/>
      </g>
      <g id="Group_620" data-name="Group 620" transform="translate(27.742 0.653)">
        <path id="Path_936" data-name="Path 936" d="M1312.8,137.308c.258.062.513.131.767.2a.1.1,0,0,0,.122-.044c.013-.043-.024-.089-.078-.105-.255-.074-.514-.14-.77-.206a.1.1,0,0,0-.123.049A.1.1,0,0,0,1312.8,137.308Z" transform="translate(-1312.715 -137.152)" fill="#fff"/>
      </g>
      <g id="Group_621" data-name="Group 621" transform="translate(43.109 13.846)">
        <path id="Path_937" data-name="Path 937" d="M1429.666,238.169a.09.09,0,0,0,.11.067.094.094,0,0,0,.037-.12c-.094-.251-.191-.5-.294-.745a.1.1,0,0,0-.113-.066.1.1,0,0,0-.034.127C1429.478,237.677,1429.573,237.923,1429.666,238.169Z" transform="translate(-1429.363 -237.301)" fill="#fff"/>
      </g>
      <g id="Group_622" data-name="Group 622" transform="translate(41.877 11.334)">
        <path id="Path_938" data-name="Path 938" d="M1420.4,219.067c.026.051.079.075.115.053a.088.088,0,0,0,.024-.127c-.127-.236-.251-.468-.38-.7a.1.1,0,0,0-.123-.049.094.094,0,0,0-.015.128C1420.156,218.6,1420.283,218.833,1420.4,219.067Z" transform="translate(-1420.009 -218.234)" fill="#fff"/>
      </g>
      <g id="Group_623" data-name="Group 623" transform="translate(42.533 12.57)">
        <path id="Path_939" data-name="Path 939" d="M1425.338,228.47a.09.09,0,0,0,.113.062.089.089,0,0,0,.028-.124c-.106-.241-.217-.488-.338-.723-.024-.05-.078-.078-.115-.06a.1.1,0,0,0-.026.13Q1425.176,228.109,1425.338,228.47Z" transform="translate(-1424.989 -227.619)" fill="#fff"/>
      </g>
      <g id="Group_624" data-name="Group 624" transform="translate(39.465 7.903)">
        <path id="Path_940" data-name="Path 940" d="M1402.237,192.947a.089.089,0,0,0,.122.032.1.1,0,0,0,0-.131c-.166-.208-.336-.41-.506-.616a.081.081,0,1,0-.118.1C1401.9,192.535,1402.073,192.737,1402.237,192.947Z" transform="translate(-1401.704 -192.19)" fill="#fff"/>
      </g>
      <g id="Group_625" data-name="Group 625" transform="translate(24.99 0.154)">
        <path id="Path_941" data-name="Path 941" d="M1291.912,133.525c.261.033.526.067.782.107a.1.1,0,0,0,.118-.061.1.1,0,0,0-.089-.1c-.266-.04-.528-.075-.792-.1a.092.092,0,0,0-.111.065C1291.813,133.479,1291.857,133.52,1291.912,133.525Z" transform="translate(-1291.819 -133.369)" fill="#fff"/>
      </g>
      <g id="Group_626" data-name="Group 626" transform="translate(40.339 8.996)">
        <path id="Path_942" data-name="Path 942" d="M1408.824,201.272a.081.081,0,1,0,.127-.089c-.149-.219-.305-.435-.465-.648a.1.1,0,0,0-.126-.034.1.1,0,0,0,0,.129C1408.518,200.839,1408.674,201.056,1408.824,201.272Z" transform="translate(-1408.336 -200.487)" fill="#fff"/>
      </g>
      <g id="Group_627" data-name="Group 627" transform="translate(44.587 19.233)">
        <path id="Path_943" data-name="Path 943" d="M1440.586,278.31c.034.262.066.524.093.787.01.058.047.1.087.1a.1.1,0,0,0,.072-.112c-.029-.264-.063-.527-.1-.79-.01-.057-.052-.1-.093-.093A.09.09,0,0,0,1440.586,278.31Z" transform="translate(-1440.583 -278.197)" fill="#fff"/>
      </g>
      <g id="Group_628" data-name="Group 628" transform="translate(43.606 15.156)">
        <path id="Path_944" data-name="Path 944" d="M1433.384,248.128c.018.052.063.088.1.073a.091.091,0,0,0,.047-.12q-.115-.381-.246-.759c-.019-.054-.064-.086-.107-.072a.1.1,0,0,0-.041.123C1433.227,247.622,1433.308,247.874,1433.384,248.128Z" transform="translate(-1433.135 -247.247)" fill="#fff"/>
      </g>
      <g id="Group_629" data-name="Group 629" transform="translate(44.345 17.854)">
        <path id="Path_945" data-name="Path 945" d="M1438.75,267.845c.054.257.1.52.146.779.009.053.052.1.1.09a.1.1,0,0,0,.061-.117c-.049-.263-.1-.523-.151-.784-.01-.054-.055-.094-.1-.085A.092.092,0,0,0,1438.75,267.845Z" transform="translate(-1438.746 -267.727)" fill="#fff"/>
      </g>
      <g id="Group_630" data-name="Group 630" transform="translate(44.018 16.493)">
        <path id="Path_946" data-name="Path 946" d="M1436.559,258.37a.094.094,0,0,0,.053-.119c-.061-.259-.127-.519-.2-.772-.016-.056-.061-.093-.1-.08s-.063.065-.047.12c.068.253.134.511.2.767A.094.094,0,0,0,1436.559,258.37Z" transform="translate(-1436.261 -257.397)" fill="#fff"/>
      </g>
      <g id="Group_631" data-name="Group 631" transform="translate(41.145 10.143)">
        <path id="Path_947" data-name="Path 947" d="M1414.9,210a.092.092,0,0,0,.121.047.1.1,0,0,0,.012-.128c-.137-.228-.281-.453-.425-.673a.091.091,0,0,0-.121-.043.088.088,0,0,0-.008.128C1414.62,209.551,1414.762,209.774,1414.9,210Z" transform="translate(-1414.455 -209.191)" fill="#fff"/>
      </g>
      <g id="Group_632" data-name="Group 632" transform="translate(31.707 2.036)">
        <path id="Path_948" data-name="Path 948" d="M1342.874,147.8c.241.111.48.227.716.345a.1.1,0,0,0,.126-.023.093.093,0,0,0-.061-.115c-.234-.12-.475-.236-.717-.347a.1.1,0,0,0-.126.03A.091.091,0,0,0,1342.874,147.8Z" transform="translate(-1342.809 -147.65)" fill="#fff"/>
      </g>
      <g id="Group_633" data-name="Group 633" transform="translate(32.961 2.658)">
        <path id="Path_949" data-name="Path 949" d="M1353.081,152.917a.091.091,0,0,0,.127-.016.093.093,0,0,0-.049-.12c-.229-.135-.464-.264-.694-.391a.1.1,0,0,0-.13.02.1.1,0,0,0,.054.119C1352.622,152.655,1352.855,152.784,1353.081,152.917Z" transform="translate(-1352.328 -152.376)" fill="#fff"/>
      </g>
      <g id="Group_634" data-name="Group 634" transform="translate(30.415 1.492)">
        <path id="Path_950" data-name="Path 950" d="M1333.076,143.678c.246.1.489.2.735.3a.1.1,0,0,0,.124-.032.094.094,0,0,0-.063-.116c-.242-.1-.49-.2-.74-.3a.094.094,0,0,0-.125.036C1332.991,143.608,1333.024,143.659,1333.076,143.678Z" transform="translate(-1333.003 -143.524)" fill="#fff"/>
      </g>
      <g id="Group_635" data-name="Group 635" transform="translate(26.375 0.361)">
        <path id="Path_951" data-name="Path 951" d="M1302.426,135.1c.258.048.515.1.775.154a.081.081,0,1,0,.032-.153c-.26-.055-.521-.109-.781-.155a.081.081,0,1,0-.026.154Z" transform="translate(-1302.336 -134.941)" fill="#fff"/>
      </g>
      <g id="Group_636" data-name="Group 636" transform="translate(1.026 14.685)">
        <path id="Path_952" data-name="Path 952" d="M1110.072,244.543c.08-.249.168-.5.258-.749a.08.08,0,1,0-.144-.055c-.094.251-.185.5-.266.755-.016.056,0,.109.044.123S1110.051,244.6,1110.072,244.543Z" transform="translate(-1109.913 -243.668)" fill="#fff"/>
      </g>
      <g id="Group_637" data-name="Group 637" transform="translate(36.458 4.978)">
        <path id="Path_953" data-name="Path 953" d="M1379.525,170.643a.094.094,0,0,0,.13.006.092.092,0,0,0-.027-.125c-.2-.175-.4-.346-.611-.511a.082.082,0,1,0-.1.122C1379.122,170.3,1379.326,170.467,1379.525,170.643Z" transform="translate(-1378.873 -169.984)" fill="#fff"/>
      </g>
      <g id="Group_638" data-name="Group 638" transform="translate(37.521 5.89)">
        <path id="Path_954" data-name="Path 954" d="M1387.556,177.6a.081.081,0,1,0,.11-.112c-.188-.188-.381-.369-.581-.547a.086.086,0,0,0-.125-.013.088.088,0,0,0,.024.125C1387.179,177.229,1387.369,177.413,1387.556,177.6Z" transform="translate(-1386.942 -176.905)" fill="#fff"/>
      </g>
      <g id="Group_639" data-name="Group 639" transform="translate(34.174 3.359)">
        <path id="Path_955" data-name="Path 955" d="M1362.255,158.277a.1.1,0,0,0,.131-.01c.024-.035,0-.089-.044-.12-.22-.151-.441-.292-.67-.434a.1.1,0,0,0-.13.011.1.1,0,0,0,.051.121C1361.815,157.988,1362.04,158.129,1362.255,158.277Z" transform="translate(-1361.535 -157.695)" fill="#fff"/>
      </g>
      <g id="Group_640" data-name="Group 640" transform="translate(38.524 6.867)">
        <path id="Path_956" data-name="Path 956" d="M1395.13,185.048a.093.093,0,0,0,.127.026.091.091,0,0,0-.012-.129c-.178-.2-.358-.394-.539-.585a.1.1,0,0,0-.133-.018c-.03.028-.021.087.017.13C1394.775,184.658,1394.953,184.852,1395.13,185.048Z" transform="translate(-1394.556 -184.324)" fill="#fff"/>
      </g>
      <g id="Group_641" data-name="Group 641" transform="translate(35.343 4.133)">
        <path id="Path_957" data-name="Path 957" d="M1371.1,164.19a.1.1,0,0,0,.127,0,.094.094,0,0,0-.033-.126c-.21-.162-.426-.317-.642-.473a.081.081,0,1,0-.091.128C1370.674,163.874,1370.885,164.031,1371.1,164.19Z" transform="translate(-1370.409 -163.57)" fill="#fff"/>
      </g>
      <g id="Group_642" data-name="Group 642" transform="translate(29.094 1.03)">
        <path id="Path_958" data-name="Path 958" d="M1323.053,140.172c.254.079.5.162.752.25a.093.093,0,0,0,.125-.038.1.1,0,0,0-.071-.11c-.252-.086-.5-.173-.758-.253-.055-.016-.112,0-.121.046A.092.092,0,0,0,1323.053,140.172Z" transform="translate(-1322.977 -140.016)" fill="#fff"/>
      </g>
      <g id="Group_643" data-name="Group 643" transform="translate(34.174 41.086)">
        <path id="Path_959" data-name="Path 959" d="M1362.255,444.1c-.215.149-.44.29-.662.432a.1.1,0,0,0-.051.117.094.094,0,0,0,.13.014c.229-.138.449-.282.67-.43.045-.033.068-.09.044-.122A.094.094,0,0,0,1362.255,444.1Z" transform="translate(-1361.535 -444.076)" fill="#fff"/>
      </g>
      <g id="Group_644" data-name="Group 644" transform="translate(20.795 44.839)">
        <path id="Path_960" data-name="Path 960" d="M1260.876,472.608c-.266-.008-.53-.025-.791-.038a.089.089,0,0,0-.108.07c0,.043.044.079.1.086.263.019.527.03.795.039.059,0,.1-.031.106-.072S1260.932,472.611,1260.876,472.608Z" transform="translate(-1259.977 -472.569)" fill="#fff"/>
      </g>
      <g id="Group_645" data-name="Group 645" transform="translate(31.707 42.502)">
        <path id="Path_961" data-name="Path 961" d="M1343.59,454.841c-.235.117-.474.231-.716.342a.094.094,0,0,0-.061.112.091.091,0,0,0,.126.031c.241-.113.482-.227.717-.348a.08.08,0,1,0-.066-.137Z" transform="translate(-1342.809 -454.826)" fill="#fff"/>
      </g>
      <g id="Group_646" data-name="Group 646" transform="translate(32.961 41.832)">
        <path id="Path_962" data-name="Path 962" d="M1353.081,449.758c-.225.131-.459.259-.692.384a.082.082,0,1,0,.076.139c.23-.125.465-.255.694-.39a.08.08,0,1,0-.078-.133Z" transform="translate(-1352.328 -449.74)" fill="#fff"/>
      </g>
      <g id="Group_647" data-name="Group 647" transform="translate(27.742 44.029)">
        <path id="Path_963" data-name="Path 963" d="M1313.565,466.422c-.257.073-.509.141-.767.206a.1.1,0,0,0-.082.1.1.1,0,0,0,.123.049c.255-.061.51-.129.77-.2.053-.014.09-.058.078-.1A.094.094,0,0,0,1313.565,466.422Z" transform="translate(-1312.715 -466.417)" fill="#fff"/>
      </g>
      <g id="Group_648" data-name="Group 648" transform="translate(0.634 16.013)">
        <path id="Path_964" data-name="Path 964" d="M1106.993,254.719a.089.089,0,0,0,.1-.078c.066-.259.143-.512.213-.767a.089.089,0,0,0-.047-.119c-.041-.01-.083.021-.1.078-.075.255-.148.508-.216.768A.1.1,0,0,0,1106.993,254.719Z" transform="translate(-1106.939 -253.753)" fill="#fff"/>
      </g>
      <g id="Group_649" data-name="Group 649" transform="translate(23.592 44.798)">
        <path id="Path_965" data-name="Path 965" d="M1282.1,472.26c-.264.025-.528.044-.791.055-.058.006-.1.043-.1.085a.1.1,0,0,0,.107.076c.265-.019.533-.036.795-.06.059-.006.1-.045.1-.085A.092.092,0,0,0,1282.1,472.26Z" transform="translate(-1281.21 -472.26)" fill="#fff"/>
      </g>
      <g id="Group_650" data-name="Group 650" transform="translate(22.194 44.881)">
        <path id="Path_966" data-name="Path 966" d="M1271.493,472.889c-.263.009-.527.011-.792.011-.058,0-.1.032-.1.077s.046.077.1.077c.265.005.532,0,.8-.007a.094.094,0,0,0,.1-.083C1271.6,472.921,1271.546,472.888,1271.493,472.889Z" transform="translate(-1270.597 -472.889)" fill="#fff"/>
      </g>
      <g id="Group_651" data-name="Group 651" transform="translate(26.375 44.371)">
        <path id="Path_967" data-name="Path 967" d="M1303.2,469.019c-.26.058-.517.11-.775.156a.1.1,0,0,0-.089.1.092.092,0,0,0,.115.057c.259-.046.521-.1.781-.154.057-.015.093-.059.085-.1A.1.1,0,0,0,1303.2,469.019Z" transform="translate(-1302.336 -469.016)" fill="#fff"/>
      </g>
      <g id="Group_652" data-name="Group 652" transform="translate(24.99 44.629)">
        <path id="Path_968" data-name="Path 968" d="M1292.694,470.977c-.256.039-.521.073-.784.1a.093.093,0,0,0-.09.094.094.094,0,0,0,.111.063c.264-.032.525-.068.787-.106.058-.011.1-.051.093-.094A.1.1,0,0,0,1292.694,470.977Z" transform="translate(-1291.819 -470.975)" fill="#fff"/>
      </g>
      <g id="Group_653" data-name="Group 653" transform="translate(29.094 43.602)">
        <path id="Path_969" data-name="Path 969" d="M1323.8,463.188c-.248.091-.5.173-.752.251a.094.094,0,0,0-.073.108c.01.041.067.062.121.042.253-.079.506-.165.758-.253a.094.094,0,0,0,.071-.108A.1.1,0,0,0,1323.8,463.188Z" transform="translate(-1322.977 -463.181)" fill="#fff"/>
      </g>
      <g id="Group_654" data-name="Group 654" transform="translate(41.145 34.042)">
        <path id="Path_970" data-name="Path 970" d="M1414.9,390.665c-.136.224-.279.451-.421.669a.081.081,0,1,0,.129.087c.144-.223.288-.449.425-.675a.093.093,0,0,0-.012-.126A.091.091,0,0,0,1414.9,390.665Z" transform="translate(-1414.455 -390.61)" fill="#fff"/>
      </g>
      <g id="Group_655" data-name="Group 655" transform="translate(35.343 40.268)">
        <path id="Path_971" data-name="Path 971" d="M1371.1,437.9c-.211.16-.422.317-.639.471a.094.094,0,0,0-.037.124.1.1,0,0,0,.128,0c.216-.153.431-.313.642-.475a.08.08,0,1,0-.094-.124Z" transform="translate(-1370.409 -437.872)" fill="#fff"/>
      </g>
      <g id="Group_656" data-name="Group 656" transform="translate(41.877 32.819)">
        <path id="Path_972" data-name="Path 972" d="M1420.4,381.39c-.122.234-.249.468-.379.7a.1.1,0,0,0,.015.13.1.1,0,0,0,.123-.051c.128-.234.253-.465.38-.7a.087.087,0,0,0-.024-.126C1420.484,381.315,1420.431,381.341,1420.4,381.39Z" transform="translate(-1420.009 -381.329)" fill="#fff"/>
      </g>
      <g id="Group_657" data-name="Group 657" transform="translate(43.109 30.732)">
        <path id="Path_973" data-name="Path 973" d="M1429.508,365.483c-.045.114-.086.228-.136.341a.1.1,0,0,0,.034.124.092.092,0,0,0,.113-.067c.055-.13.1-.265.157-.4Z" transform="translate(-1429.363 -365.483)" fill="#fff"/>
      </g>
      <g id="Group_658" data-name="Group 658" transform="translate(42.533 31.559)">
        <path id="Path_974" data-name="Path 974" d="M1425.338,371.825q-.163.36-.337.718c-.021.05-.015.108.026.124s.09,0,.115-.057c.12-.238.232-.479.338-.721a.08.08,0,1,0-.141-.063Z" transform="translate(-1424.989 -371.758)" fill="#fff"/>
      </g>
      <g id="Group_659" data-name="Group 659" transform="translate(40.339 35.216)">
        <path id="Path_975" data-name="Path 975" d="M1408.824,399.573c-.15.22-.306.432-.464.644a.1.1,0,0,0,0,.127.094.094,0,0,0,.126-.034c.16-.212.316-.431.465-.648a.1.1,0,0,0,0-.129A.1.1,0,0,0,1408.824,399.573Z" transform="translate(-1408.336 -399.523)" fill="#fff"/>
      </g>
      <g id="Group_660" data-name="Group 660" transform="translate(36.458 39.382)">
        <path id="Path_976" data-name="Path 976" d="M1379.525,431.176c-.2.172-.4.34-.609.508a.082.082,0,1,0,.1.122c.208-.168.41-.34.611-.513a.082.082,0,1,0-.1-.117Z" transform="translate(-1378.873 -431.144)" fill="#fff"/>
      </g>
      <g id="Group_661" data-name="Group 661" transform="translate(39.465 36.342)">
        <path id="Path_977" data-name="Path 977" d="M1402.237,408.114c-.164.21-.333.412-.5.612a.094.094,0,0,0-.009.131.093.093,0,0,0,.127-.028c.17-.2.341-.408.506-.615a.1.1,0,0,0,0-.134A.1.1,0,0,0,1402.237,408.114Z" transform="translate(-1401.704 -408.068)" fill="#fff"/>
      </g>
      <g id="Group_662" data-name="Group 662" transform="translate(37.521 38.429)">
        <path id="Path_978" data-name="Path 978" d="M1387.556,423.945c-.187.185-.376.368-.573.543-.044.043-.054.094-.024.129a.086.086,0,0,0,.125-.013c.2-.179.393-.364.581-.547a.1.1,0,0,0,.018-.131A.094.094,0,0,0,1387.556,423.945Z" transform="translate(-1386.942 -423.909)" fill="#fff"/>
      </g>
      <g id="Group_663" data-name="Group 663" transform="translate(38.524 37.414)">
        <path id="Path_979" data-name="Path 979" d="M1395.13,416.248c-.177.2-.355.389-.539.58a.1.1,0,0,0-.017.129.1.1,0,0,0,.133-.018c.18-.195.361-.387.539-.585a.094.094,0,0,0,.012-.131A.1.1,0,0,0,1395.13,416.248Z" transform="translate(-1394.556 -416.207)" fill="#fff"/>
      </g>
      <g id="Group_664" data-name="Group 664" transform="translate(30.415 43.092)">
        <path id="Path_980" data-name="Path 980" d="M1333.811,459.321c-.246.1-.489.2-.735.295-.052.022-.085.07-.068.112a.093.093,0,0,0,.125.037c.25-.1.491-.2.74-.3.054-.023.08-.07.063-.11A.09.09,0,0,0,1333.811,459.321Z" transform="translate(-1333.003 -459.309)" fill="#fff"/>
      </g>
      <g id="Group_665" data-name="Group 665" transform="translate(2.698 33.261)">
        <path id="Path_981" data-name="Path 981" d="M1122.755,384.741a.094.094,0,0,0-.117-.055.093.093,0,0,0-.018.129c.127.232.262.462.4.69a.091.091,0,0,0,.121.048.089.089,0,0,0,.013-.126C1123.013,385.2,1122.881,384.969,1122.755,384.741Z" transform="translate(-1122.602 -384.68)" fill="#fff"/>
      </g>
      <g id="Group_666" data-name="Group 666" transform="translate(3.412 34.466)">
        <path id="Path_982" data-name="Path 982" d="M1128.172,393.882a.1.1,0,0,0-.12-.047.1.1,0,0,0-.01.131c.143.221.291.445.443.665a.08.08,0,1,0,.129-.089C1128.464,394.326,1128.314,394.107,1128.172,393.882Z" transform="translate(-1128.022 -393.827)" fill="#fff"/>
      </g>
      <g id="Group_667" data-name="Group 667" transform="translate(4.199 35.625)">
        <path id="Path_983" data-name="Path 983" d="M1134.149,402.675a.089.089,0,0,0-.121-.036.093.093,0,0,0,0,.128c.155.214.314.429.479.638.037.043.092.058.125.03a.088.088,0,0,0,0-.126C1134.468,403.1,1134.306,402.889,1134.149,402.675Z" transform="translate(-1134.002 -402.627)" fill="#fff"/>
      </g>
      <g id="Group_668" data-name="Group 668" transform="translate(2.061 32.013)">
        <path id="Path_984" data-name="Path 984" d="M1117.923,375.27a.1.1,0,0,0-.119-.06.1.1,0,0,0-.023.127c.115.242.231.479.352.716.031.049.078.075.119.053a.091.091,0,0,0,.02-.124C1118.151,375.745,1118.033,375.508,1117.923,375.27Z" transform="translate(-1117.768 -375.205)" fill="#fff"/>
      </g>
      <g id="Group_669" data-name="Group 669" transform="translate(5.056 36.731)">
        <path id="Path_985" data-name="Path 985" d="M1140.653,411.063a.08.08,0,1,0-.117.1c.166.207.339.408.517.607a.094.094,0,0,0,.128.025.1.1,0,0,0-.009-.131C1140.995,411.469,1140.823,411.267,1140.653,411.063Z" transform="translate(-1140.505 -411.02)" fill="#fff"/>
      </g>
      <g id="Group_670" data-name="Group 670" transform="translate(5.979 37.784)">
        <path id="Path_986" data-name="Path 986" d="M1147.659,419.057a.087.087,0,0,0-.127-.021c-.034.025-.026.083.014.125.18.193.363.383.556.572a.091.091,0,0,0,.126.018.094.094,0,0,0-.019-.129C1148.026,419.436,1147.839,419.248,1147.659,419.057Z" transform="translate(-1147.511 -419.017)" fill="#fff"/>
      </g>
      <g id="Group_671" data-name="Group 671" transform="translate(0.105 18.739)">
        <path id="Path_987" data-name="Path 987" d="M1102.987,275.44c.043,0,.082-.037.093-.093.033-.262.072-.524.109-.784a.087.087,0,0,0-.056-.115.091.091,0,0,0-.1.087c-.038.263-.081.526-.115.79C1102.916,275.382,1102.944,275.435,1102.987,275.44Z" transform="translate(-1102.921 -274.448)" fill="#fff"/>
      </g>
      <g id="Group_672" data-name="Group 672" transform="translate(0.326 17.364)">
        <path id="Path_988" data-name="Path 988" d="M1104.663,264.991c.042.007.083-.032.094-.085q.072-.391.164-.776a.1.1,0,0,0-.054-.122c-.044-.007-.084.029-.1.084-.061.26-.117.518-.168.781A.1.1,0,0,0,1104.663,264.991Z" transform="translate(-1104.601 -264.007)" fill="#fff"/>
      </g>
      <g id="Group_673" data-name="Group 673" transform="translate(0 20.128)">
        <path id="Path_989" data-name="Path 989" d="M1102.283,285.487c.012-.13.02-.258.033-.389,0-.058-.024-.1-.067-.109s-.081.036-.091.092c-.013.135-.023.27-.034.405Z" transform="translate(-1102.124 -284.99)" fill="#fff"/>
      </g>
      <g id="Group_674" data-name="Group 674" transform="translate(1.504 30.729)">
        <path id="Path_990" data-name="Path 990" d="M1113.7,365.531a.1.1,0,0,0-.11-.065h0a.094.094,0,0,0-.033.126c.1.247.2.492.31.734a.093.093,0,0,0,.11.064.1.1,0,0,0,.031-.127C1113.9,366.022,1113.792,365.776,1113.7,365.531Z" transform="translate(-1113.54 -365.463)" fill="#fff"/>
      </g>
      <g id="Group_675" data-name="Group 675" transform="translate(12.717 42.72)">
        <path id="Path_991" data-name="Path 991" d="M1199.51,456.825c-.241-.1-.483-.21-.719-.326a.1.1,0,0,0-.129.027.1.1,0,0,0,.059.116c.241.113.483.222.731.328a.089.089,0,0,0,.122-.03A.092.092,0,0,0,1199.51,456.825Z" transform="translate(-1198.657 -456.485)" fill="#fff"/>
      </g>
      <g id="Group_676" data-name="Group 676" transform="translate(19.404 44.699)">
        <path id="Path_992" data-name="Path 992" d="M1250.315,471.6c-.264-.023-.525-.054-.79-.09a.089.089,0,0,0-.107.067c-.006.042.032.081.091.087.264.039.527.067.792.093a.1.1,0,0,0,.109-.068A.092.092,0,0,0,1250.315,471.6Z" transform="translate(-1249.417 -471.506)" fill="#fff"/>
      </g>
      <g id="Group_677" data-name="Group 677" transform="translate(13.999 43.284)">
        <path id="Path_993" data-name="Path 993" d="M1209.258,461.056c-.248-.089-.5-.183-.744-.283a.1.1,0,0,0-.123.035.1.1,0,0,0,.066.112c.25.1.5.19.746.282.054.019.112,0,.123-.037A.1.1,0,0,0,1209.258,461.056Z" transform="translate(-1208.388 -460.766)" fill="#fff"/>
      </g>
      <g id="Group_678" data-name="Group 678" transform="translate(15.312 43.765)">
        <path id="Path_994" data-name="Path 994" d="M1219.243,464.659q-.382-.112-.756-.235a.1.1,0,0,0-.125.043.1.1,0,0,0,.078.105c.25.082.5.162.761.236a.089.089,0,0,0,.119-.046C1219.332,464.719,1219.3,464.675,1219.243,464.659Z" transform="translate(-1218.36 -464.417)" fill="#fff"/>
      </g>
      <g id="Group_679" data-name="Group 679" transform="translate(16.654 44.162)">
        <path id="Path_995" data-name="Path 995" d="M1229.439,467.616c-.258-.058-.515-.119-.768-.186a.094.094,0,0,0-.121.052c-.011.041.024.085.083.1.253.065.512.126.773.186a.091.091,0,0,0,.116-.055C1229.532,467.675,1229.493,467.63,1229.439,467.616Z" transform="translate(-1228.547 -467.427)" fill="#fff"/>
      </g>
      <g id="Group_680" data-name="Group 680" transform="translate(18.02 44.474)">
        <path id="Path_996" data-name="Path 996" d="M1239.806,469.935c-.26-.042-.521-.087-.779-.138a.1.1,0,0,0-.115.057c-.01.042.029.084.085.1.261.05.522.1.786.138a.092.092,0,0,0,.115-.061A.1.1,0,0,0,1239.806,469.935Z" transform="translate(-1238.91 -469.795)" fill="#fff"/>
      </g>
      <g id="Group_681" data-name="Group 681" transform="translate(11.474 42.078)">
        <path id="Path_997" data-name="Path 997" d="M1189.356,451.627a.091.091,0,0,0-.126.02c-.021.037.005.089.052.117.23.131.468.257.7.376a.094.094,0,0,0,.127-.024.1.1,0,0,0-.056-.118C1189.822,451.881,1189.591,451.759,1189.356,451.627Z" transform="translate(-1189.223 -451.612)" fill="#fff"/>
      </g>
      <g id="Group_682" data-name="Group 682" transform="translate(6.969 38.777)">
        <path id="Path_998" data-name="Path 998" d="M1155.171,426.586a.093.093,0,0,0-.13-.013.092.092,0,0,0,.021.125c.2.182.39.36.591.537a.09.09,0,0,0,.127.008.092.092,0,0,0-.026-.127C1155.556,426.945,1155.362,426.765,1155.171,426.586Z" transform="translate(-1155.024 -426.552)" fill="#fff"/>
      </g>
      <g id="Group_683" data-name="Group 683" transform="translate(9.117 40.569)">
        <path id="Path_999" data-name="Path 999" d="M1171.47,440.182a.094.094,0,0,0-.131,0c-.025.033-.006.089.039.124.215.154.433.31.653.46a.091.091,0,0,0,.127-.009.1.1,0,0,0-.04-.123C1171.9,440.485,1171.682,440.333,1171.47,440.182Z" transform="translate(-1171.328 -440.155)" fill="#fff"/>
      </g>
      <g id="Group_684" data-name="Group 684" transform="translate(8.013 39.705)">
        <path id="Path_1000" data-name="Path 1000" d="M1163.094,433.627a.1.1,0,0,0-.132-.007.1.1,0,0,0,.031.125c.206.17.413.338.624.5a.1.1,0,0,0,.13,0c.028-.033.008-.089-.035-.122C1163.506,433.958,1163.3,433.793,1163.094,433.627Z" transform="translate(-1162.949 -433.596)" fill="#fff"/>
      </g>
      <g id="Group_685" data-name="Group 685" transform="translate(10.272 41.36)">
        <path id="Path_1001" data-name="Path 1001" d="M1180.239,446.177a.092.092,0,0,0-.129.012.1.1,0,0,0,.045.124c.223.14.452.28.677.417a.1.1,0,0,0,.132-.016.094.094,0,0,0-.051-.121C1180.687,446.459,1180.462,446.32,1180.239,446.177Z" transform="translate(-1180.101 -446.157)" fill="#fff"/>
      </g>
    </g>
    <g id="Group_773" data-name="Group 773" transform="translate(1082.829 131.799)">
      <g id="Group_687" data-name="Group 687" transform="translate(12.527 0.205)">
        <path id="Path_1002" data-name="Path 1002" d="M1254.3,192.86c-.2-1.041-.414-2.079-.638-3.115.12,1.055.256,2.107.4,3.158C1254.136,192.888,1254.215,192.872,1254.3,192.86Z" transform="translate(-1253.658 -189.745)" fill="#fff"/>
      </g>
      <g id="Group_688" data-name="Group 688" transform="translate(10.039 0.837)">
        <path id="Path_1003" data-name="Path 1003" d="M1235.931,197.512q-.563-1.489-1.156-2.968c.3,1.02.608,2.034.925,3.046C1235.775,197.563,1235.853,197.538,1235.931,197.512Z" transform="translate(-1234.774 -194.544)" fill="#fff"/>
      </g>
      <g id="Group_689" data-name="Group 689" transform="translate(13.372 0.089)">
        <path id="Path_1004" data-name="Path 1004" d="M1260.534,192.008c-.145-1.051-.3-2.1-.463-3.146.063,1.06.139,2.118.221,3.175C1260.373,192.027,1260.453,192.016,1260.534,192.008Z" transform="translate(-1260.071 -188.862)" fill="#fff"/>
      </g>
      <g id="Group_690" data-name="Group 690" transform="translate(10.86 0.578)">
        <path id="Path_1005" data-name="Path 1005" d="M1241.988,195.6q-.478-1.518-.983-3.028c.238,1.036.489,2.067.748,3.1C1241.831,195.648,1241.91,195.626,1241.988,195.6Z" transform="translate(-1241.005 -192.576)" fill="#fff"/>
      </g>
      <g id="Group_691" data-name="Group 691" transform="translate(11.688 0.37)">
        <path id="Path_1006" data-name="Path 1006" d="M1248.1,194.074c-.262-1.026-.53-2.051-.811-3.074q.27,1.569.575,3.129C1247.942,194.11,1248.02,194.091,1248.1,194.074Z" transform="translate(-1247.288 -191)" fill="#fff"/>
      </g>
      <g id="Group_692" data-name="Group 692" transform="translate(16.293 0.102)">
        <path id="Path_1007" data-name="Path 1007" d="M1282.733,188.966c-.173,1.045-.332,2.092-.483,3.141.082.009.161.021.243.031C1282.582,191.082,1282.664,190.025,1282.733,188.966Z" transform="translate(-1282.25 -188.966)" fill="#fff"/>
      </g>
      <g id="Group_693" data-name="Group 693" transform="translate(16.963 0.223)">
        <path id="Path_1008" data-name="Path 1008" d="M1287.988,189.882q-.347,1.554-.658,3.112c.08.013.16.028.24.043C1287.719,191.988,1287.86,190.936,1287.988,189.882Z" transform="translate(-1287.33 -189.882)" fill="#fff"/>
      </g>
      <g id="Group_694" data-name="Group 694" transform="translate(15.618 0.028)">
        <path id="Path_1009" data-name="Path 1009" d="M1277.427,188.4c-.114,1.051-.214,2.107-.306,3.163.082,0,.162.012.244.017C1277.4,190.52,1277.419,189.46,1277.427,188.4Z" transform="translate(-1277.121 -188.399)" fill="#fff"/>
      </g>
      <g id="Group_695" data-name="Group 695" transform="translate(14.942 0)">
        <path id="Path_1010" data-name="Path 1010" d="M1272.236,191.368c-.028-1.06-.064-2.12-.115-3.18-.055,1.059-.1,2.118-.13,3.178l.078,0C1272.125,191.364,1272.18,191.367,1272.236,191.368Z" transform="translate(-1271.992 -188.188)" fill="#fff"/>
      </g>
      <g id="Group_696" data-name="Group 696" transform="translate(14.226 0.02)">
        <path id="Path_1011" data-name="Path 1011" d="M1266.84,191.508q-.127-1.585-.284-3.168c0,1.061.017,2.122.041,3.182C1266.678,191.517,1266.759,191.512,1266.84,191.508Z" transform="translate(-1266.556 -188.34)" fill="#fff"/>
      </g>
      <g id="Group_697" data-name="Group 697" transform="translate(3.145 5.688)">
        <path id="Path_1012" data-name="Path 1012" d="M1185.033,233.291q-1.286-.976-2.589-1.929,1.206,1.076,2.436,2.123Q1184.956,233.387,1185.033,233.291Z" transform="translate(-1182.444 -231.362)" fill="#fff"/>
      </g>
      <g id="Group_698" data-name="Group 698" transform="translate(4.909 3.838)">
        <path id="Path_1013" data-name="Path 1013" d="M1198.056,219.645q-1.1-1.17-2.222-2.32,1.006,1.253,2.038,2.483C1197.932,219.753,1197.995,219.7,1198.056,219.645Z" transform="translate(-1195.834 -217.325)" fill="#fff"/>
      </g>
      <g id="Group_699" data-name="Group 699" transform="translate(4.287 4.421)">
        <path id="Path_1014" data-name="Path 1014" d="M1193.462,223.942q-1.164-1.109-2.35-2.2,1.072,1.2,2.177,2.373Z" transform="translate(-1191.112 -221.746)" fill="#fff"/>
      </g>
      <g id="Group_700" data-name="Group 700" transform="translate(3.694 5.036)">
        <path id="Path_1015" data-name="Path 1015" d="M1189.083,228.487q-1.227-1.045-2.475-2.068,1.145,1.142,2.314,2.254C1188.976,228.611,1189.029,228.548,1189.083,228.487Z" transform="translate(-1186.608 -226.419)" fill="#fff"/>
      </g>
      <g id="Group_701" data-name="Group 701" transform="translate(5.565 3.289)">
        <path id="Path_1016" data-name="Path 1016" d="M1202.894,215.592q-1.032-1.228-2.086-2.438.931,1.307,1.892,2.59C1202.764,215.692,1202.829,215.643,1202.894,215.592Z" transform="translate(-1200.808 -213.154)" fill="#fff"/>
      </g>
      <g id="Group_702" data-name="Group 702" transform="translate(17.627 0.393)">
        <path id="Path_1017" data-name="Path 1017" d="M1293.205,191.168c-.29,1.021-.565,2.046-.833,3.072.079.018.159.035.238.055C1292.818,193.255,1293.019,192.213,1293.205,191.168Z" transform="translate(-1292.372 -191.168)" fill="#fff"/>
      </g>
      <g id="Group_703" data-name="Group 703" transform="translate(9.242 1.137)">
        <path id="Path_1018" data-name="Path 1018" d="M1230.043,199.719c-.431-.971-.869-1.939-1.321-2.9.352,1,.719,2,1.094,2.995C1229.891,199.779,1229.967,199.749,1230.043,199.719Z" transform="translate(-1228.722 -196.816)" fill="#fff"/>
      </g>
      <g id="Group_704" data-name="Group 704" transform="translate(7.7 1.874)">
        <path id="Path_1019" data-name="Path 1019" d="M1218.66,205.154q-.809-1.377-1.639-2.738.7,1.438,1.426,2.859C1218.517,205.235,1218.588,205.192,1218.66,205.154Z" transform="translate(-1217.021 -202.416)" fill="#fff"/>
      </g>
      <g id="Group_705" data-name="Group 705" transform="translate(8.458 1.484)">
        <path id="Path_1020" data-name="Path 1020" d="M1224.251,202.277c-.486-.945-.978-1.888-1.483-2.825q.615,1.472,1.265,2.932Z" transform="translate(-1222.768 -199.452)" fill="#fff"/>
      </g>
      <g id="Group_706" data-name="Group 706" transform="translate(6.249 2.779)">
        <path id="Path_1021" data-name="Path 1021" d="M1207.946,211.832q-.959-1.282-1.942-2.546.857,1.354,1.744,2.687C1207.813,211.925,1207.88,211.878,1207.946,211.832Z" transform="translate(-1206.004 -209.286)" fill="#fff"/>
      </g>
      <g id="Group_707" data-name="Group 707" transform="translate(6.961 2.306)">
        <path id="Path_1022" data-name="Path 1022" d="M1213.2,208.342q-.886-1.331-1.795-2.646.778,1.4,1.588,2.778C1213.063,208.43,1213.132,208.385,1213.2,208.342Z" transform="translate(-1211.407 -205.696)" fill="#fff"/>
      </g>
      <g id="Group_708" data-name="Group 708" transform="translate(26.788 12.712)">
        <path id="Path_1023" data-name="Path 1023" d="M1361.95,285.327h.173c1.027-.2,2.052-.415,3.076-.64-1.1.129-2.19.273-3.283.426C1361.928,285.184,1361.94,285.256,1361.95,285.327Z" transform="translate(-1361.916 -284.687)" fill="#fff"/>
      </g>
      <g id="Group_709" data-name="Group 709" transform="translate(26.056 9.429)">
        <path id="Path_1024" data-name="Path 1024" d="M1356.448,261.134q1.5-.671,2.984-1.37c-1.029.367-2.053.749-3.075,1.138C1356.389,260.979,1356.419,261.057,1356.448,261.134Z" transform="translate(-1356.357 -259.764)" fill="#fff"/>
      </g>
      <g id="Group_710" data-name="Group 710" transform="translate(25.476 7.888)">
        <path id="Path_1025" data-name="Path 1025" d="M1352.073,249.752q1.408-.831,2.8-1.687-1.467.719-2.915,1.469C1352,249.606,1352.034,249.678,1352.073,249.752Z" transform="translate(-1351.957 -248.064)" fill="#fff"/>
      </g>
      <g id="Group_711" data-name="Group 711" transform="translate(25.785 8.646)">
        <path id="Path_1026" data-name="Path 1026" d="M1354.4,255.357c.97-.5,1.937-1.01,2.9-1.534q-1.508.637-3,1.308C1354.333,255.205,1354.366,255.282,1354.4,255.357Z" transform="translate(-1354.297 -253.823)" fill="#fff"/>
      </g>
      <g id="Group_712" data-name="Group 712" transform="translate(24.76 6.443)">
        <path id="Path_1027" data-name="Path 1027" d="M1346.667,239.076q1.3-.976,2.575-1.98-1.371.874-2.72,1.777C1346.571,238.941,1346.621,239.007,1346.667,239.076Z" transform="translate(-1346.523 -237.096)" fill="#fff"/>
      </g>
      <g id="Group_713" data-name="Group 713" transform="translate(25.134 7.155)">
        <path id="Path_1028" data-name="Path 1028" d="M1349.489,244.334q1.354-.905,2.688-1.836-1.42.8-2.82,1.624C1349.4,244.192,1349.446,244.262,1349.489,244.334Z" transform="translate(-1349.357 -242.498)" fill="#fff"/>
      </g>
      <g id="Group_714" data-name="Group 714" transform="translate(2.629 6.367)">
        <path id="Path_1029" data-name="Path 1029" d="M1181.218,238.3q-1.34-.9-2.7-1.786,1.266,1.009,2.555,1.987C1181.122,238.437,1181.171,238.37,1181.218,238.3Z" transform="translate(-1178.521 -236.517)" fill="#fff"/>
      </g>
      <g id="Group_715" data-name="Group 715" transform="translate(26.66 11.873)">
        <path id="Path_1030" data-name="Path 1030" d="M1360.994,279.172c1.065-.274,2.128-.555,3.189-.853q-1.626.285-3.244.607C1360.957,279.008,1360.977,279.089,1360.994,279.172Z" transform="translate(-1360.939 -278.319)" fill="#fff"/>
      </g>
      <g id="Group_716" data-name="Group 716" transform="translate(24.356 5.761)">
        <path id="Path_1031" data-name="Path 1031" d="M1343.608,234.038q1.239-1.046,2.459-2.116-1.319.945-2.614,1.92C1343.505,233.907,1343.557,233.972,1343.608,234.038Z" transform="translate(-1343.453 -231.922)" fill="#fff"/>
      </g>
      <g id="Group_717" data-name="Group 717" transform="translate(26.292 10.23)">
        <path id="Path_1032" data-name="Path 1032" d="M1358.232,267.043c1.025-.391,2.049-.789,3.067-1.2q-1.58.463-3.147.964Q1358.193,266.923,1358.232,267.043Z" transform="translate(-1358.151 -265.84)" fill="#fff"/>
      </g>
      <g id="Group_718" data-name="Group 718" transform="translate(26.494 11.045)">
        <path id="Path_1033" data-name="Path 1033" d="M1359.751,273.06c1.047-.333,2.092-.673,3.132-1.029-1.072.25-2.138.515-3.2.789C1359.706,272.9,1359.73,272.979,1359.751,273.06Z" transform="translate(-1359.683 -272.031)" fill="#fff"/>
      </g>
      <g id="Group_719" data-name="Group 719" transform="translate(20.776 1.918)">
        <path id="Path_1034" data-name="Path 1034" d="M1316.49,205.61q.738-1.423,1.452-2.86-.85,1.358-1.666,2.737C1316.348,205.527,1316.418,205.569,1316.49,205.61Z" transform="translate(-1316.276 -202.75)" fill="#fff"/>
      </g>
      <g id="Group_720" data-name="Group 720" transform="translate(18.284 0.607)">
        <path id="Path_1035" data-name="Path 1035" d="M1297.594,195.886q.4-1.542.772-3.091-.52,1.508-1.005,3.024C1297.439,195.842,1297.517,195.862,1297.594,195.886Z" transform="translate(-1297.361 -192.795)" fill="#fff"/>
      </g>
      <g id="Group_721" data-name="Group 721" transform="translate(20.177 1.524)">
        <path id="Path_1036" data-name="Path 1036" d="M1311.95,202.691q.658-1.459,1.288-2.932-.769,1.4-1.506,2.821C1311.806,202.615,1311.877,202.654,1311.95,202.691Z" transform="translate(-1311.732 -199.759)" fill="#fff"/>
      </g>
      <g id="Group_722" data-name="Group 722" transform="translate(19.559 1.175)">
        <path id="Path_1037" data-name="Path 1037" d="M1307.264,200.1c.382-.995.756-1.991,1.115-2.992q-.687,1.44-1.341,2.9C1307.115,200.039,1307.19,200.07,1307.264,200.1Z" transform="translate(-1307.039 -197.111)" fill="#fff"/>
      </g>
      <g id="Group_723" data-name="Group 723" transform="translate(18.928 0.868)">
        <path id="Path_1038" data-name="Path 1038" d="M1302.481,197.82q.488-1.519.947-3.046c-.4.985-.794,1.974-1.177,2.966C1302.328,197.767,1302.405,197.792,1302.481,197.82Z" transform="translate(-1302.251 -194.774)" fill="#fff"/>
      </g>
      <g id="Group_724" data-name="Group 724" transform="translate(21.356 2.357)">
        <path id="Path_1039" data-name="Path 1039" d="M1320.89,208.852q.818-1.379,1.609-2.775-.924,1.312-1.817,2.643C1320.753,208.763,1320.823,208.807,1320.89,208.852Z" transform="translate(-1320.683 -206.077)" fill="#fff"/>
      </g>
      <g id="Group_725" data-name="Group 725" transform="translate(23.924 5.109)">
        <path id="Path_1040" data-name="Path 1040" d="M1340.334,229.212q1.177-1.111,2.333-2.245-1.259,1.014-2.5,2.059C1340.227,229.087,1340.28,229.15,1340.334,229.212Z" transform="translate(-1340.172 -226.967)" fill="#fff"/>
      </g>
      <g id="Group_726" data-name="Group 726" transform="translate(22.972 3.899)">
        <path id="Path_1041" data-name="Path 1041" d="M1333.125,220.268q1.042-1.232,2.06-2.481-1.135,1.144-2.241,2.314C1333.005,220.156,1333.065,220.212,1333.125,220.268Z" transform="translate(-1332.944 -217.787)" fill="#fff"/>
      </g>
      <g id="Group_727" data-name="Group 727" transform="translate(23.463 4.487)">
        <path id="Path_1042" data-name="Path 1042" d="M1336.842,224.615q1.111-1.173,2.2-2.368-1.2,1.081-2.371,2.189C1336.73,224.494,1336.785,224.556,1336.842,224.615Z" transform="translate(-1336.672 -222.247)" fill="#fff"/>
      </g>
      <g id="Group_728" data-name="Group 728" transform="translate(22.457 3.35)">
        <path id="Path_1043" data-name="Path 1043" d="M1329.23,216.2c.646-.856,1.287-1.716,1.914-2.584q-1.067,1.2-2.105,2.43C1329.1,216.1,1329.167,216.148,1329.23,216.2Z" transform="translate(-1329.039 -213.616)" fill="#fff"/>
      </g>
      <g id="Group_729" data-name="Group 729" transform="translate(21.918 2.834)">
        <path id="Path_1044" data-name="Path 1044" d="M1325.148,212.381q.893-1.332,1.764-2.683-1,1.26-1.963,2.541C1325.015,212.286,1325.082,212.332,1325.148,212.381Z" transform="translate(-1324.948 -209.698)" fill="#fff"/>
      </g>
      <g id="Group_730" data-name="Group 730" transform="translate(6.249 24.849)">
        <path id="Path_1045" data-name="Path 1045" d="M1207.883,376.813q-.954,1.435-1.879,2.893,1.062-1.36,2.089-2.744C1208.022,376.914,1207.953,376.863,1207.883,376.813Z" transform="translate(-1206.004 -376.813)" fill="#fff"/>
      </g>
      <g id="Group_731" data-name="Group 731" transform="translate(16.904 26.847)">
        <path id="Path_1046" data-name="Path 1046" d="M1286.883,392.028c.227,1.137.463,2.272.717,3.4q-.209-1.729-.459-3.451C1287.055,392,1286.97,392.015,1286.883,392.028Z" transform="translate(-1286.883 -391.982)" fill="#fff"/>
      </g>
      <g id="Group_732" data-name="Group 732" transform="translate(12.527 26.863)">
        <path id="Path_1047" data-name="Path 1047" d="M1253.658,395.556q.368-1.7.695-3.4c-.086-.014-.172-.031-.257-.045C1253.938,393.255,1253.79,394.4,1253.658,395.556Z" transform="translate(-1253.658 -392.107)" fill="#fff"/>
      </g>
      <g id="Group_733" data-name="Group 733" transform="translate(18.194 26.541)">
        <path id="Path_1048" data-name="Path 1048" d="M1296.68,389.735c.354,1.1.716,2.2,1.095,3.3q-.4-1.693-.844-3.372Z" transform="translate(-1296.68 -389.663)" fill="#fff"/>
      </g>
      <g id="Group_734" data-name="Group 734" transform="translate(16.251 26.947)">
        <path id="Path_1049" data-name="Path 1049" d="M1281.927,392.775q.245,1.722.525,3.439c-.075-1.159-.166-2.316-.265-3.471C1282.1,392.753,1282.014,392.766,1281.927,392.775Z" transform="translate(-1281.927 -392.742)" fill="#fff"/>
      </g>
      <g id="Group_735" data-name="Group 735" transform="translate(18.825 26.336)">
        <path id="Path_1050" data-name="Path 1050" d="M1301.465,388.184q.623,1.624,1.281,3.234-.5-1.665-1.033-3.318C1301.631,388.13,1301.548,388.156,1301.465,388.184Z" transform="translate(-1301.465 -388.1)" fill="#fff"/>
      </g>
      <g id="Group_736" data-name="Group 736" transform="translate(14.932 27.038)">
        <path id="Path_1051" data-name="Path 1051" d="M1271.915,393.432c.036,1.161.08,2.321.14,3.48.055-1.16.093-2.322.121-3.483-.058,0-.116.005-.174.005Z" transform="translate(-1271.915 -393.43)" fill="#fff"/>
      </g>
      <g id="Group_737" data-name="Group 737" transform="translate(14.226 27.017)">
        <path id="Path_1052" data-name="Path 1052" d="M1266.556,396.753c.117-1.155.217-2.311.309-3.469-.088,0-.174-.008-.261-.013C1266.575,394.431,1266.557,395.591,1266.556,396.753Z" transform="translate(-1266.556 -393.271)" fill="#fff"/>
      </g>
      <g id="Group_738" data-name="Group 738" transform="translate(15.591 27.01)">
        <path id="Path_1053" data-name="Path 1053" d="M1276.919,393.241c.1,1.157.208,2.313.333,3.465-.009-1.162-.035-2.323-.071-3.483C1277.094,393.229,1277.007,393.236,1276.919,393.241Z" transform="translate(-1276.919 -393.223)" fill="#fff"/>
      </g>
      <g id="Group_739" data-name="Group 739" transform="translate(13.372 26.958)">
        <path id="Path_1054" data-name="Path 1054" d="M1260.071,396.3q.272-1.717.5-3.443c-.087-.008-.172-.019-.259-.029C1260.223,393.98,1260.139,395.137,1260.071,396.3Z" transform="translate(-1260.071 -392.824)" fill="#fff"/>
      </g>
      <g id="Group_740" data-name="Group 740" transform="translate(19.443 26.095)">
        <path id="Path_1055" data-name="Path 1055" d="M1306.16,386.373q.712,1.585,1.457,3.156c-.391-1.089-.8-2.172-1.215-3.253C1306.323,386.31,1306.241,386.341,1306.16,386.373Z" transform="translate(-1306.16 -386.276)" fill="#fff"/>
      </g>
      <g id="Group_741" data-name="Group 741" transform="translate(17.552 26.712)">
        <path id="Path_1056" data-name="Path 1056" d="M1291.807,391.016q.436,1.682.907,3.359-.305-1.714-.653-3.418C1291.978,390.977,1291.893,391,1291.807,391.016Z" transform="translate(-1291.807 -390.957)" fill="#fff"/>
      </g>
      <g id="Group_742" data-name="Group 742" transform="translate(23.304 23.515)">
        <path id="Path_1057" data-name="Path 1057" d="M1335.465,366.87q1.253,1.183,2.53,2.341-1.158-1.276-2.344-2.521C1335.59,366.75,1335.527,366.81,1335.465,366.87Z" transform="translate(-1335.465 -366.69)" fill="#fff"/>
      </g>
      <g id="Group_743" data-name="Group 743" transform="translate(24.055 23.459)">
        <path id="Path_1058" data-name="Path 1058" d="M1341.17,366.262c.783.657,1.569,1.311,2.364,1.951-.669-.659-1.349-1.306-2.031-1.951Z" transform="translate(-1341.17 -366.262)" fill="#fff"/>
      </g>
      <g id="Group_744" data-name="Group 744" transform="translate(25.203 23.459)">
        <path id="Path_1059" data-name="Path 1059" d="M1349.879,366.262c.587.435,1.172.873,1.767,1.3-.5-.441-1.008-.869-1.513-1.3Z" transform="translate(-1349.879 -366.262)" fill="#fff"/>
      </g>
      <g id="Group_745" data-name="Group 745" transform="translate(22.814 23.971)">
        <path id="Path_1060" data-name="Path 1060" d="M1331.75,370.32q1.187,1.251,2.4,2.48-1.083-1.337-2.2-2.65C1331.882,370.207,1331.815,370.263,1331.75,370.32Z" transform="translate(-1331.75 -370.149)" fill="#fff"/>
      </g>
      <g id="Group_746" data-name="Group 746" transform="translate(26.534 23.459)">
        <path id="Path_1061" data-name="Path 1061" d="M1359.989,366.262c.316.2.628.416.946.617-.264-.208-.53-.412-.8-.617Z" transform="translate(-1359.989 -366.262)" fill="#fff"/>
      </g>
      <g id="Group_747" data-name="Group 747" transform="translate(20.641 25.51)">
        <path id="Path_1062" data-name="Path 1062" d="M1315.249,381.958q.884,1.491,1.8,2.963-.768-1.556-1.572-3.09C1315.4,381.873,1315.326,381.917,1315.249,381.958Z" transform="translate(-1315.249 -381.831)" fill="#fff"/>
      </g>
      <g id="Group_748" data-name="Group 748" transform="translate(21.215 25.169)">
        <path id="Path_1063" data-name="Path 1063" d="M1319.607,379.388q.965,1.436,1.958,2.852-.851-1.508-1.738-2.993C1319.754,379.293,1319.682,379.342,1319.607,379.388Z" transform="translate(-1319.607 -379.247)" fill="#fff"/>
      </g>
      <g id="Group_749" data-name="Group 749" transform="translate(20.049 25.82)">
        <path id="Path_1064" data-name="Path 1064" d="M1310.762,384.295q.8,1.542,1.634,3.066c-.453-1.065-.922-2.124-1.4-3.177C1310.919,384.221,1310.841,384.258,1310.762,384.295Z" transform="translate(-1310.762 -384.183)" fill="#fff"/>
      </g>
      <g id="Group_750" data-name="Group 750" transform="translate(21.769 24.799)">
        <path id="Path_1065" data-name="Path 1065" d="M1323.817,376.588q1.042,1.379,2.113,2.737-.934-1.457-1.9-2.887C1323.959,376.488,1323.889,376.54,1323.817,376.588Z" transform="translate(-1323.817 -376.438)" fill="#fff"/>
      </g>
      <g id="Group_751" data-name="Group 751" transform="translate(22.303 24.399)">
        <path id="Path_1066" data-name="Path 1066" d="M1327.87,373.562q1.117,1.316,2.26,2.611-1.011-1.4-2.056-2.77C1328.006,373.457,1327.939,373.509,1327.87,373.562Z" transform="translate(-1327.87 -373.402)" fill="#fff"/>
      </g>
      <g id="Group_752" data-name="Group 752" transform="translate(4.287 23.574)">
        <path id="Path_1067" data-name="Path 1067" d="M1193.434,367.138q-1.176,1.253-2.322,2.528,1.27-1.16,2.509-2.349C1193.558,367.257,1193.5,367.2,1193.434,367.138Z" transform="translate(-1191.112 -367.138)" fill="#fff"/>
      </g>
      <g id="Group_753" data-name="Group 753" transform="translate(0.386 10.954)">
        <path id="Path_1068" data-name="Path 1068" d="M1164.677,272.146c-1.056-.278-2.116-.548-3.18-.8,1.034.361,2.072.707,3.112,1.044C1164.631,272.306,1164.654,272.226,1164.677,272.146Z" transform="translate(-1161.497 -271.343)" fill="#fff"/>
      </g>
      <g id="Group_754" data-name="Group 754" transform="translate(3.694 23.459)">
        <path id="Path_1069" data-name="Path 1069" d="M1188.691,366.262c-.7.67-1.4,1.342-2.083,2.026.817-.665,1.621-1.343,2.423-2.026Z" transform="translate(-1186.608 -366.262)" fill="#fff"/>
      </g>
      <g id="Group_755" data-name="Group 755" transform="translate(0.171 11.781)">
        <path id="Path_1070" data-name="Path 1070" d="M1163.09,278.244c-1.073-.218-2.148-.429-3.226-.624,1.053.3,2.111.59,3.17.869C1163.051,278.407,1163.072,278.326,1163.09,278.244Z" transform="translate(-1159.864 -277.62)" fill="#fff"/>
      </g>
      <g id="Group_756" data-name="Group 756" transform="translate(3.145 23.459)">
        <path id="Path_1071" data-name="Path 1071" d="M1184.023,366.262c-.528.456-1.058.908-1.579,1.373.622-.451,1.238-.911,1.853-1.373Z" transform="translate(-1182.444 -366.262)" fill="#fff"/>
      </g>
      <g id="Group_757" data-name="Group 757" transform="translate(2.629 23.459)">
        <path id="Path_1072" data-name="Path 1072" d="M1179.417,366.262c-.3.233-.6.459-.9.7.354-.229.7-.466,1.051-.7Z" transform="translate(-1178.521 -366.262)" fill="#fff"/>
      </g>
      <g id="Group_758" data-name="Group 758" transform="translate(0 12.621)">
        <path id="Path_1073" data-name="Path 1073" d="M1161.831,284.436c-1.086-.158-2.175-.309-3.264-.443,1.072.242,2.146.469,3.222.689C1161.8,284.6,1161.817,284.518,1161.831,284.436Z" transform="translate(-1158.567 -283.993)" fill="#fff"/>
      </g>
      <g id="Group_759" data-name="Group 759" transform="translate(1.71 7.808)">
        <path id="Path_1074" data-name="Path 1074" d="M1174.444,248.937q-1.44-.753-2.894-1.479,1.376.864,2.774,1.7C1174.363,249.081,1174.4,249.009,1174.444,248.937Z" transform="translate(-1171.55 -247.458)" fill="#fff"/>
      </g>
      <g id="Group_760" data-name="Group 760" transform="translate(1.313 8.563)">
        <path id="Path_1075" data-name="Path 1075" d="M1171.509,254.511c-.988-.449-1.979-.89-2.978-1.318q1.426.788,2.873,1.543C1171.439,254.661,1171.473,254.585,1171.509,254.511Z" transform="translate(-1168.531 -253.193)" fill="#fff"/>
      </g>
      <g id="Group_761" data-name="Group 761" transform="translate(0.65 10.138)">
        <path id="Path_1076" data-name="Path 1076" d="M1166.625,266.124c-1.038-.337-2.078-.666-3.122-.98,1.011.419,2.024.822,3.042,1.218Q1166.584,266.242,1166.625,266.124Z" transform="translate(-1163.503 -265.144)" fill="#fff"/>
      </g>
      <g id="Group_762" data-name="Group 762" transform="translate(0.958 9.341)">
        <path id="Path_1077" data-name="Path 1077" d="M1168.9,260.25c-1.014-.393-2.031-.779-3.054-1.152.983.473,1.971.932,2.963,1.383C1168.835,260.4,1168.864,260.326,1168.9,260.25Z" transform="translate(-1165.842 -259.098)" fill="#fff"/>
      </g>
      <g id="Group_763" data-name="Group 763" transform="translate(8.458 25.858)">
        <path id="Path_1078" data-name="Path 1078" d="M1224.141,384.477q-.7,1.581-1.373,3.177c.55-1.016,1.083-2.04,1.61-3.069C1224.3,384.549,1224.219,384.514,1224.141,384.477Z" transform="translate(-1222.768 -384.477)" fill="#fff"/>
      </g>
      <g id="Group_764" data-name="Group 764" transform="translate(9.242 26.128)">
        <path id="Path_1079" data-name="Path 1079" d="M1229.914,386.526q-.614,1.621-1.192,3.254.737-1.571,1.435-3.158C1230.076,386.59,1229.994,386.56,1229.914,386.526Z" transform="translate(-1228.722 -386.526)" fill="#fff"/>
      </g>
      <g id="Group_765" data-name="Group 765" transform="translate(11.688 26.732)">
        <path id="Path_1080" data-name="Path 1080" d="M1247.919,391.111q-.333,1.7-.631,3.417.462-1.676.884-3.359C1248.087,391.151,1248,391.13,1247.919,391.111Z" transform="translate(-1247.288 -391.111)" fill="#fff"/>
      </g>
      <g id="Group_766" data-name="Group 766" transform="translate(10.039 26.363)">
        <path id="Path_1081" data-name="Path 1081" d="M1235.784,388.311q-.522,1.654-1.01,3.32.65-1.61,1.258-3.236Z" transform="translate(-1234.774 -388.311)" fill="#fff"/>
      </g>
      <g id="Group_767" data-name="Group 767" transform="translate(10.86 26.566)">
        <path id="Path_1082" data-name="Path 1082" d="M1241.824,389.846c-.284,1.121-.56,2.246-.819,3.375q.555-1.648,1.07-3.3C1241.992,389.895,1241.908,389.869,1241.824,389.846Z" transform="translate(-1241.005 -389.846)" fill="#fff"/>
      </g>
      <g id="Group_768" data-name="Group 768" transform="translate(4.909 24.026)">
        <path id="Path_1083" data-name="Path 1083" d="M1198.017,370.568q-1.1,1.319-2.183,2.658,1.206-1.23,2.379-2.488C1198.147,370.682,1198.082,370.626,1198.017,370.568Z" transform="translate(-1195.834 -370.568)" fill="#fff"/>
      </g>
      <g id="Group_769" data-name="Group 769" transform="translate(5.565 24.452)">
        <path id="Path_1084" data-name="Path 1084" d="M1202.843,373.8q-1.031,1.381-2.035,2.783,1.136-1.3,2.239-2.623C1202.978,373.909,1202.91,373.855,1202.843,373.8Z" transform="translate(-1200.808 -373.801)" fill="#fff"/>
      </g>
      <g id="Group_770" data-name="Group 770" transform="translate(2.15 7.074)">
        <path id="Path_1085" data-name="Path 1085" d="M1177.685,243.522q-1.39-.83-2.8-1.636c.882.626,1.772,1.238,2.666,1.844C1177.595,243.66,1177.641,243.591,1177.685,243.522Z" transform="translate(-1174.886 -241.886)" fill="#fff"/>
      </g>
      <g id="Group_771" data-name="Group 771" transform="translate(7.7 25.553)">
        <path id="Path_1086" data-name="Path 1086" d="M1218.566,382.158q-.788,1.538-1.545,3.093.9-1.473,1.775-2.97C1218.719,382.241,1218.642,382.2,1218.566,382.158Z" transform="translate(-1217.021 -382.158)" fill="#fff"/>
      </g>
      <g id="Group_772" data-name="Group 772" transform="translate(6.961 25.216)">
        <path id="Path_1087" data-name="Path 1087" d="M1213.124,379.6q-.874,1.49-1.717,3,.985-1.418,1.938-2.861C1213.27,379.7,1213.2,379.649,1213.124,379.6Z" transform="translate(-1211.407 -379.603)" fill="#fff"/>
      </g>
    </g>
    <g id="Group_830" data-name="Group 830" transform="translate(1071.338 146.485)">
      <g id="Group_829" data-name="Group 829" transform="translate(0)">
        <g id="Group_778" data-name="Group 778" transform="translate(5.614 0.101)">
          <g id="Group_776" data-name="Group 776">
            <g id="Group_774" data-name="Group 774" transform="translate(2.434)">
              <path id="Path_1088" data-name="Path 1088" d="M1133.073,301.912h-.642v4.029h.4v-3.6h.641v-1.475h0l-.4-.43h0Z" transform="translate(-1132.431 -300.438)" fill="#fff"/>
            </g>
            <g id="Group_775" data-name="Group 775" transform="translate(0 5.504)">
              <path id="Path_1089" data-name="Path 1089" d="M1117.1,342.217v1.476h-3.146l.4.429h3.146v-1.476Z" transform="translate(-1113.952 -342.217)" fill="#fff"/>
            </g>
          </g>
          <g id="Group_777" data-name="Group 777" transform="translate(0.168 0.166)">
            <path id="Path_1090" data-name="Path 1090" d="M1117.5,307.2a.168.168,0,0,1-.167-.167v-4.029a.168.168,0,0,1,.167-.167h.475V301.7H1115.3v1.142h.465a.168.168,0,0,1,.167.167v4.029a.168.168,0,0,1-.167.167h-.535v1.141h2.811V307.2Zm-1.7-5.053v.52h-.149V302h2v.153Zm.654,5.505h-.724v.52h-.149V307.5h.7v-4.678h.172Z" transform="translate(-1115.229 -301.7)" fill="#fff"/>
          </g>
        </g>
        <g id="Group_783" data-name="Group 783" transform="translate(0 0.267)">
          <g id="Group_781" data-name="Group 781" transform="translate(0 0.766)">
            <g id="Group_779" data-name="Group 779" transform="translate(1.703 0.642)">
              <path id="Path_1091" data-name="Path 1091" d="M1085.443,312.822a.59.59,0,0,1,.2.041.652.652,0,0,0-.6-.471h-.781v2h.4v-1.574Z" transform="translate(-1084.265 -312.392)" fill="#fff"/>
            </g>
            <g id="Group_780" data-name="Group 780">
              <path id="Path_1092" data-name="Path 1092" d="M1075.726,307.518a2.772,2.772,0,0,1,.441,1.679,2.287,2.287,0,0,1-2.344,2.514h-.75v1.844h-1.734l.4.43h1.733V312.14h.752a2.286,2.286,0,0,0,2.344-2.514A2.53,2.53,0,0,0,1075.726,307.518Z" transform="translate(-1071.338 -307.518)" fill="#fff"/>
            </g>
          </g>
          <g id="Group_782" data-name="Group 782" transform="translate(0.168)">
            <path id="Path_1093" data-name="Path 1093" d="M1076.491,302.311a2.112,2.112,0,0,0-1.562-.611h-2.316v6.637h1.4v-1.678a.167.167,0,0,1,.168-.167h.75a2.124,2.124,0,0,0,2.177-2.346A2.445,2.445,0,0,0,1076.491,302.311Zm-2.343,2.969a.167.167,0,0,1-.167-.167v-2a.167.167,0,0,1,.167-.167h.781c.506,0,.86.474.86,1.154,0,.708-.346,1.184-.86,1.184Zm1.791-.086a.988.988,0,0,1-.9.349,1.056,1.056,0,0,0,.362-.095,1.227,1.227,0,0,0,.654-1.1,2.386,2.386,0,0,0-.188-1.192,1.758,1.758,0,0,1,.338.775A1.978,1.978,0,0,1,1075.939,305.194Zm-.763-2.952h-2.01v5.491h-.154v-5.642h2.011a1.831,1.831,0,0,1,1.409.588A1.875,1.875,0,0,0,1075.176,302.242Z" transform="translate(-1072.613 -301.7)" fill="#fff"/>
          </g>
        </g>
        <g id="Group_789" data-name="Group 789" transform="translate(21.041)">
          <g id="Group_787" data-name="Group 787">
            <g id="Group_784" data-name="Group 784" transform="translate(2.605 2.812)">
              <path id="Path_1094" data-name="Path 1094" d="M1251.338,321.019s-.21,1.017-.5,1.985h.522c.113-.392.183-.666.246-.945Z" transform="translate(-1250.838 -321.019)" fill="#fff"/>
            </g>
            <g id="Group_785" data-name="Group 785" transform="translate(0 6.213)">
              <path id="Path_1095" data-name="Path 1095" d="M1235.167,346.835h-1.993l-.31.868h-1.8l.386.419v.009h1.814l.31-.868h1.751Z" transform="translate(-1231.06 -346.835)" fill="#fff"/>
            </g>
            <g id="Group_786" data-name="Group 786" transform="translate(3.546)">
              <path id="Path_1096" data-name="Path 1096" d="M1258.451,300.1h-.01l.007,0-.473-.428,2.665,6.971v.109h-1.55l.153.43h1.8l0-.278Z" transform="translate(-1257.975 -299.674)" fill="#fff"/>
            </g>
          </g>
          <g id="Group_788" data-name="Group 788" transform="translate(0.191 0.167)">
            <path id="Path_1097" data-name="Path 1097" d="M1235.752,300.944h-.631l-2.608,6.746h1.494l.271-.757a.169.169,0,0,1,.158-.111h1.993a.169.169,0,0,1,.157.111l.27.757h1.475Zm-2.645,6.493h-.161l2.395-6.192h.3l.057.147h-.25Zm2.991-1.906a.166.166,0,0,1-.028.144.168.168,0,0,1-.133.065h-1.01a.168.168,0,0,1-.135-.067.171.171,0,0,1-.026-.148c.285-.949.495-1.961.5-1.971a.167.167,0,0,1,.16-.133h0a.168.168,0,0,1,.163.125Zm-1.4.658.044-.147h1.848l-.6-2.334.15,0,.64,2.484Z" transform="translate(-1232.513 -300.944)" fill="#fff"/>
          </g>
        </g>
        <g id="Group_795" data-name="Group 795" transform="translate(28.026 0.267)">
          <g id="Group_793" data-name="Group 793" transform="translate(0 0.768)">
            <g id="Group_790" data-name="Group 790" transform="translate(1.707 0.641)">
              <path id="Path_1098" data-name="Path 1098" d="M1297.8,312.392h-.761v1.725h.4v-1.295h.762a.683.683,0,0,1,.244.047A.66.66,0,0,0,1297.8,312.392Z" transform="translate(-1297.039 -312.392)" fill="#fff"/>
            </g>
            <g id="Group_791" data-name="Group 791" transform="translate(3.292)">
              <path id="Path_1099" data-name="Path 1099" d="M1310.172,311.372a2.17,2.17,0,0,0,.841-1.885,2.442,2.442,0,0,0-.838-1.958,2.639,2.639,0,0,1,.442,1.528,2.165,2.165,0,0,1-.841,1.885l1.192,2.534v.089h-1.893l0,0-.006,0,.4.431,0-.008,0,.008h1.893v-.09Z" transform="translate(-1309.066 -307.529)" fill="#fff"/>
            </g>
            <g id="Group_792" data-name="Group 792" transform="translate(0 3.852)">
              <path id="Path_1100" data-name="Path 1100" d="M1286.479,336.766h-.661v2.184H1284.1l-.016.011.4.429.008-.01h1.729V337.2h.444Z" transform="translate(-1284.08 -336.766)" fill="#fff"/>
            </g>
          </g>
          <g id="Group_794" data-name="Group 794" transform="translate(0.171)">
            <path id="Path_1101" data-name="Path 1101" d="M1289.056,305.952a.166.166,0,0,1,.052-.206,2,2,0,0,0,.773-1.752,2.106,2.106,0,0,0-2.2-2.294h-2.308v6.637h1.4v-2.017a.168.168,0,0,1,.167-.167h.661a.166.166,0,0,1,.154.1l.859,2.082h1.562Zm-3.122,2.038h-.153v-5.9h2.01a1.831,1.831,0,0,1,1.41.588,1.876,1.876,0,0,0-1.256-.437h-2.011Zm1.741-2.989h-.762a.167.167,0,0,1-.167-.167v-1.725a.167.167,0,0,1,.167-.167h.762a.908.908,0,0,1,.867,1.014C1288.543,304.581,1288.193,305,1287.675,305Zm.669.3a1.151,1.151,0,0,0,.612-1.027,2.227,2.227,0,0,0-.178-1.116,1.656,1.656,0,0,1,.317.725,1.858,1.858,0,0,1-.251,1.181.927.927,0,0,1-.839.326A.984.984,0,0,0,1288.344,305.3Zm.511,2.683-.8-1.815h.187l.8,1.815Z" transform="translate(-1285.377 -301.7)" fill="#fff"/>
          </g>
        </g>
        <g id="Group_801" data-name="Group 801" transform="translate(34.221 0.101)">
          <g id="Group_799" data-name="Group 799">
            <g id="Group_796" data-name="Group 796" transform="translate(1.735)">
              <path id="Path_1102" data-name="Path 1102" d="M1346.319,300.44v1.584h-2.043v1h.4v-.568h2.043v-1.585h0Z" transform="translate(-1344.276 -300.44)" fill="#fff"/>
            </g>
            <g id="Group_797" data-name="Group 797" transform="translate(1.735 2.582)">
              <path id="Path_1103" data-name="Path 1103" d="M1346.535,320.468h0l-.4-.43,0,0v1.591h-1.863v1.138h.4v-.708h1.863Z" transform="translate(-1344.276 -320.038)" fill="#fff"/>
            </g>
            <g id="Group_798" data-name="Group 798" transform="translate(0 5.315)">
              <path id="Path_1104" data-name="Path 1104" d="M1335.359,341.217l-.4-.429v1.664h-3.847v-.019l-.011.008.4.431.011-.016v.027h3.847v-1.665Z" transform="translate(-1331.106 -340.788)" fill="#fff"/>
            </g>
          </g>
          <g id="Group_800" data-name="Group 800" transform="translate(0.178 0.166)">
            <path id="Path_1105" data-name="Path 1105" d="M1334.015,307.015a.167.167,0,0,1-.168-.167v-1.138a.167.167,0,0,1,.168-.167h1.7v-1.261h-1.7a.167.167,0,0,1-.168-.167v-1a.168.168,0,0,1,.168-.167h1.876V301.7h-3.433v6.646h3.513v-1.331Zm-.152-2.384h1.53v.186h-1.53Zm-.862,3.595h-.189v-6.178h2.761v.186H1333Zm2.652-.676h-1.79v-.186h1.79Z" transform="translate(-1332.458 -301.7)" fill="#fff"/>
          </g>
        </g>
        <g id="Group_806" data-name="Group 806" transform="translate(39.462 0.103)">
          <g id="Group_804" data-name="Group 804">
            <g id="Group_802" data-name="Group 802" transform="translate(1.732)">
              <path id="Path_1106" data-name="Path 1106" d="M1384.037,305.8h.4v-4.915h0l-.394-.427Z" transform="translate(-1384.037 -300.454)" fill="#fff"/>
            </g>
            <g id="Group_803" data-name="Group 803" transform="translate(0 5.343)">
              <path id="Path_1107" data-name="Path 1107" d="M1374.964,341.443l-.4-.429v1.635h-3.67l-.005,0,.4.43,0,0h3.673v-1.635Z" transform="translate(-1370.893 -341.014)" fill="#fff"/>
            </g>
          </g>
          <g id="Group_805" data-name="Group 805" transform="translate(0.167 0.164)">
            <path id="Path_1108" data-name="Path 1108" d="M1373.723,307.045a.167.167,0,0,1-.167-.167V301.7h-1.4v6.646h3.342v-1.3Zm-.479-4.811h-.538v5.88h-.189v-6.065h.727Zm1.889,5.346h-1.565v-.186h1.565Z" transform="translate(-1372.158 -301.7)" fill="#fff"/>
          </g>
        </g>
        <g id="Group_811" data-name="Group 811" transform="translate(44.422 0.103)">
          <g id="Group_809" data-name="Group 809">
            <g id="Group_807" data-name="Group 807" transform="translate(1.733)">
              <path id="Path_1109" data-name="Path 1109" d="M1421.7,305.8h.4v-4.915h0l-.392-.427Z" transform="translate(-1421.698 -300.454)" fill="#fff"/>
            </g>
            <g id="Group_808" data-name="Group 808" transform="translate(0 5.343)">
              <path id="Path_1110" data-name="Path 1110" d="M1412.617,341.443l-.4-.429v1.635h-3.67l-.006,0,.4.43,0,0h3.673v-1.635Z" transform="translate(-1408.545 -341.014)" fill="#fff"/>
            </g>
          </g>
          <g id="Group_810" data-name="Group 810" transform="translate(0.167 0.164)">
            <path id="Path_1111" data-name="Path 1111" d="M1411.378,307.045a.167.167,0,0,1-.167-.167V301.7h-1.4v6.646h3.342v-1.3Zm-.479-4.811h-.538v5.88h-.19v-6.065h.727Zm1.889,5.346h-1.565v-.186h1.565Z" transform="translate(-1409.812 -301.7)" fill="#fff"/>
          </g>
        </g>
        <g id="Group_817" data-name="Group 817" transform="translate(15.49 0.1)">
          <g id="Group_815" data-name="Group 815">
            <g id="Group_812" data-name="Group 812" transform="translate(2.517)">
              <path id="Path_1112" data-name="Path 1112" d="M1210.23,300.7l-2.2,5.086h.583l2.017-4.656v-.269h0l-.4-.43h0Z" transform="translate(-1208.027 -300.431)" fill="#fff"/>
            </g>
            <g id="Group_813" data-name="Group 813" transform="translate(0.205 1.585)">
              <path id="Path_1113" data-name="Path 1113" d="M1190.479,312.466l.393.428v0h1.415l.183-.43Z" transform="translate(-1190.479 -312.466)" fill="#fff"/>
            </g>
            <g id="Group_814" data-name="Group 814" transform="translate(0 5.356)">
              <path id="Path_1114" data-name="Path 1114" d="M1193.665,341.086l0,0v1.621h-4.74l.4.429h4.74v-1.624h0Z" transform="translate(-1188.922 -341.086)" fill="#fff"/>
            </g>
          </g>
          <g id="Group_816" data-name="Group 816" transform="translate(0.17 0.167)">
            <path id="Path_1115" data-name="Path 1115" d="M1192.557,307.055a.167.167,0,0,1-.153-.233l2.189-5.055V301.7h-4.183v1.251h1.826a.165.165,0,0,1,.139.075.163.163,0,0,1,.014.157l-2.18,5.1v.058h4.4v-1.291Zm-1.609-4.864v.6h-.19v-.783h3.42l-.081.186Zm-.241,5.876,2.172-5.092h.2l-2.17,5.092Zm3.583-.52h-2.055l.081-.186h1.974Z" transform="translate(-1190.21 -301.7)" fill="#fff"/>
          </g>
        </g>
        <g id="Group_823" data-name="Group 823" transform="translate(9.776 0.1)">
          <g id="Group_821" data-name="Group 821">
            <g id="Group_818" data-name="Group 818" transform="translate(2.516)">
              <path id="Path_1116" data-name="Path 1116" d="M1166.848,300.7l-2.2,5.086h.582l2.017-4.656v-.269h0l-.4-.43h0Z" transform="translate(-1164.644 -300.431)" fill="#fff"/>
            </g>
            <g id="Group_819" data-name="Group 819" transform="translate(0.205 1.585)">
              <path id="Path_1117" data-name="Path 1117" d="M1147.1,312.466l.393.428v0h1.414l.183-.43Z" transform="translate(-1147.103 -312.466)" fill="#fff"/>
            </g>
            <g id="Group_820" data-name="Group 820" transform="translate(0 5.356)">
              <path id="Path_1118" data-name="Path 1118" d="M1150.29,341.086l0,0v1.621h-4.739l.4.429h4.739v-1.624h0Z" transform="translate(-1145.548 -341.086)" fill="#fff"/>
            </g>
          </g>
          <g id="Group_822" data-name="Group 822" transform="translate(0.169 0.167)">
            <path id="Path_1119" data-name="Path 1119" d="M1149.177,307.055a.168.168,0,0,1-.139-.075.165.165,0,0,1-.014-.158l2.19-5.055V301.7h-4.182v1.251h1.826a.167.167,0,0,1,.14.075.17.17,0,0,1,.014.157l-2.18,5.1v.058h4.4v-1.291Zm-1.609-4.864v.6h-.191v-.783h3.42l-.081.186Zm-.241,5.876,2.171-5.092h.2l-2.172,5.092Zm3.583-.52h-2.055l.081-.186h1.974Z" transform="translate(-1146.831 -301.7)" fill="#fff"/>
          </g>
        </g>
        <g id="Group_828" data-name="Group 828" transform="translate(49.458 0.101)">
          <g id="Group_826" data-name="Group 826">
            <g id="Group_824" data-name="Group 824" transform="translate(2.435)">
              <path id="Path_1120" data-name="Path 1120" d="M1465.9,301.912h-.641v4.029h.4v-3.6h.641v-1.475h0l-.4-.43h0Z" transform="translate(-1465.26 -300.438)" fill="#fff"/>
            </g>
            <g id="Group_825" data-name="Group 825" transform="translate(0 5.504)">
              <path id="Path_1121" data-name="Path 1121" d="M1449.92,342.217v1.476h-3.147l.4.429h3.146v-1.476Z" transform="translate(-1446.773 -342.217)" fill="#fff"/>
            </g>
          </g>
          <g id="Group_827" data-name="Group 827" transform="translate(0.168 0.166)">
            <path id="Path_1122" data-name="Path 1122" d="M1450.317,307.2a.168.168,0,0,1-.167-.167v-4.029a.167.167,0,0,1,.167-.167h.474V301.7h-2.669v1.142h.464a.166.166,0,0,1,.166.167v4.029a.167.167,0,0,1-.166.167h-.535v1.141h2.811V307.2Zm-1.7-5.053v.52h-.15V302h2v.153Zm.654,5.505h-.725v.52h-.15V307.5h.7v-4.678h.173Z" transform="translate(-1448.05 -301.7)" fill="#fff"/>
          </g>
        </g>
      </g>
    </g>
    <g id="Group_852" data-name="Group 852" transform="translate(1087.652 136.434)">
      <g id="Group_837" data-name="Group 837" transform="translate(0 6.594)">
        <g id="Group_836" data-name="Group 836">
          <g id="Group_832" data-name="Group 832" transform="translate(0.306 1.211)">
            <g id="Group_831" data-name="Group 831">
              <path id="Path_1123" data-name="Path 1123" d="M1215.718,282.621a.391.391,0,0,1-.319.166h-17.885a.218.218,0,0,0-.012.069.237.237,0,0,0,.236.237h17.966a.236.236,0,0,0,.013-.472Z" transform="translate(-1197.503 -282.621)" fill="#fff"/>
            </g>
          </g>
          <g id="Group_833" data-name="Group 833">
            <path id="Path_1124" data-name="Path 1124" d="M1212.947,273.432a.987.987,0,0,0-.907.6h1.365a.347.347,0,0,1,.362.342.076.076,0,0,1-.073.079h0a.077.077,0,0,1-.076-.074.2.2,0,0,0-.21-.2h-17.989a.237.237,0,1,0,0,.473h16.571a.99.99,0,0,0,.959.752h1.731v-1.976Z" transform="translate(-1195.179 -273.432)" fill="#fff"/>
          </g>
          <g id="Group_835" data-name="Group 835" transform="translate(17.525 0.029)">
            <g id="Group_834" data-name="Group 834">
              <path id="Path_1125" data-name="Path 1125" d="M1330.341,273.654h0v2.1h-1.883a1.122,1.122,0,0,1-.243-.027.986.986,0,0,0,.761.358h1.732v-1.976Z" transform="translate(-1328.214 -273.654)" fill="#fff"/>
            </g>
          </g>
        </g>
      </g>
      <g id="Group_851" data-name="Group 851" transform="translate(5.363 0)">
        <g id="Group_838" data-name="Group 838" transform="translate(0.388)">
          <path id="Path_1126" data-name="Path 1126" d="M1247.32,225.925a4.441,4.441,0,0,0-4.019-2.548h-.407A4.441,4.441,0,0,0,1238.84,226,9.248,9.248,0,0,1,1247.32,225.925Z" transform="translate(-1238.84 -223.377)" fill="#fff"/>
        </g>
        <g id="Group_839" data-name="Group 839" transform="translate(2.064 3.3)">
          <path id="Path_1127" data-name="Path 1127" d="M1254.24,248.424h-.2a2.486,2.486,0,0,0-2.484,2.482v1.25h.344v-1.25a2.139,2.139,0,0,1,2.139-2.138h.2a2.138,2.138,0,0,1,2.138,2.138v1.25h.345v-1.25A2.486,2.486,0,0,0,1254.24,248.424Z" transform="translate(-1251.56 -248.424)" fill="#fff"/>
        </g>
        <g id="Group_845" data-name="Group 845" transform="translate(3.467 4.095)">
          <g id="Group_844" data-name="Group 844">
            <g id="Group_843" data-name="Group 843">
              <g id="Group_842" data-name="Group 842">
                <g id="Group_840" data-name="Group 840">
                  <path id="Path_1128" data-name="Path 1128" d="M1263.2,257.4a.6.6,0,0,1,.145-.669,1.359,1.359,0,0,0,.46-1.373,1.96,1.96,0,0,0-.915-.895.94.94,0,0,1-.24,1.176c-.605.62-.458,1.121-.328,1.345a3.712,3.712,0,0,0,.289.416Z" transform="translate(-1262.209 -254.462)" fill="#fff"/>
                </g>
                <g id="Group_841" data-name="Group 841" transform="translate(1.261 1.35)">
                  <path id="Path_1129" data-name="Path 1129" d="M1271.8,266.294a.715.715,0,0,1,.239-.711,1.034,1.034,0,0,0,.36-.876.882.882,0,0,1,.372.794c.011.627-.316.793-.316.793Z" transform="translate(-1271.785 -264.707)" fill="#fff"/>
                </g>
              </g>
            </g>
          </g>
        </g>
        <g id="Group_850" data-name="Group 850" transform="translate(0 1.707)">
          <g id="Group_846" data-name="Group 846" transform="translate(0.162)">
            <path id="Path_1130" data-name="Path 1130" d="M1246.064,237.793c-.04-.135-.086-.268-.138-.4a9.079,9.079,0,0,0-8.671.082q-.074.2-.133.4A9.311,9.311,0,0,1,1246.064,237.793Z" transform="translate(-1237.122 -236.334)" fill="#fff"/>
          </g>
          <g id="Group_847" data-name="Group 847" transform="translate(0 1.237)">
            <path id="Path_1131" data-name="Path 1131" d="M1237,245.723a8.069,8.069,0,0,0-.995.517,4.4,4.4,0,0,0-.111.982v2.589H1237Z" transform="translate(-1235.893 -245.723)" fill="#fff"/>
          </g>
          <g id="Group_848" data-name="Group 848" transform="translate(1.254 0.508)">
            <path id="Path_1132" data-name="Path 1132" d="M1252.215,245.006v-4.187a9.265,9.265,0,0,0-6.806.035v4.152h.661v-1.25a2.635,2.635,0,0,1,2.633-2.632h.2a2.634,2.634,0,0,1,2.632,2.632v1.25Z" transform="translate(-1245.409 -240.189)" fill="#fff"/>
          </g>
          <g id="Group_849" data-name="Group 849" transform="translate(8.209 1.199)">
            <path id="Path_1133" data-name="Path 1133" d="M1298.208,245.439v4.126h1.083v-2.589a4.423,4.423,0,0,0-.132-1.075A8.466,8.466,0,0,0,1298.208,245.439Z" transform="translate(-1298.208 -245.439)" fill="#fff"/>
          </g>
        </g>
      </g>
    </g>
    <g id="Group_855" data-name="Group 855" transform="translate(1114.151 139.623)">
      <g id="Group_853" data-name="Group 853" transform="translate(1.495)">
        <path id="Path_1134" data-name="Path 1134" d="M1408.443,249.283a2.679,2.679,0,0,0-.087-.635.1.1,0,1,1,.2-.051,2.878,2.878,0,0,1,.093.683,3.084,3.084,0,0,1-.167,1.061c.76-.906.636-1.563-.161-2.759a1.99,1.99,0,0,0-.085,2.833A2.819,2.819,0,0,0,1408.443,249.283Z" transform="translate(-1407.678 -247.583)" fill="#fff" fill-rule="evenodd"/>
      </g>
      <g id="Group_854" data-name="Group 854" transform="translate(0 1.853)">
        <path id="Path_1135" data-name="Path 1135" d="M1400.52,261.646c-1.258.679-1.955,1.241-2.073,2.617-.118-1.376-.816-1.937-2.073-2.617-.195,1.83.246,2.61,1.831,3.4a7.31,7.31,0,0,1-.829-1.191.1.1,0,0,1,.176-.1,7.051,7.051,0,0,0,.853,1.211,5.4,5.4,0,0,1,.74-1.62,1.519,1.519,0,0,1,.751-.648.1.1,0,0,1,.053.194,1.382,1.382,0,0,0-.637.568,5.209,5.209,0,0,0-.735,1.639C1400.252,264.291,1400.719,263.518,1400.52,261.646Z" transform="translate(-1396.33 -261.646)" fill="#fff" fill-rule="evenodd"/>
      </g>
    </g>
    <g id="Group_865" data-name="Group 865" transform="translate(1080.76 126.285)">
      <g id="Group_856" data-name="Group 856" transform="translate(0 7.027)">
        <path id="Path_1136" data-name="Path 1136" d="M1146.583,203.651l.583-.722-2.543-2.054.568-.7-.612-.5-1.723,2.133.613.5.572-.708Z" transform="translate(-1142.857 -199.677)" fill="#fff"/>
      </g>
      <g id="Group_857" data-name="Group 857" transform="translate(2.846 4.48)">
        <path id="Path_1137" data-name="Path 1137" d="M1167.938,182.088l.021-.077a1.186,1.186,0,0,0-.294-1.15,1.347,1.347,0,0,0-1.042-.524,1.538,1.538,0,0,0-.983.394l-1.178.99,2.6,3.1.735-.618-.853-1.014.448-.376,1.307.632.818-.687Zm-1.015.18-.453.381-.79-.94.453-.381a.562.562,0,0,1,.812.108.666.666,0,0,1,.173.438A.524.524,0,0,1,1166.923,182.268Z" transform="translate(-1164.461 -180.337)" fill="#fff"/>
      </g>
      <g id="Group_858" data-name="Group 858" transform="translate(7.973 1.979)">
        <path id="Path_1138" data-name="Path 1138" d="M1206.235,164.727l.9-.451-3.363-2.921-.4.2.292,4.453.916-.457-.052-.562,1.285-.641Zm-1.772-.463-.018-.123a10.036,10.036,0,0,0-.24-1.216l-.105-.423.265.346a6.549,6.549,0,0,0,.829.917l.092.089Z" transform="translate(-1203.377 -161.355)" fill="#fff"/>
      </g>
      <g id="Group_859" data-name="Group 859" transform="translate(11.213 0.239)">
        <path id="Path_1139" data-name="Path 1139" d="M1230.82,148.911l-.181-.766-2.668.631.181.766.886-.209.751,3.18.9-.213-.751-3.18Z" transform="translate(-1227.971 -148.145)" fill="#fff"/>
      </g>
      <g id="Group_860" data-name="Group 860" transform="translate(15.226 0)">
        <path id="Path_1140" data-name="Path 1140" d="M1259.364,147.164l.081,3.267.927-.022-.08-3.267.9-.022-.019-.787-2.741.066.019.788Z" transform="translate(-1258.435 -146.332)" fill="#fff"/>
      </g>
      <g id="Group_861" data-name="Group 861" transform="translate(19.053 0.404)">
        <path id="Path_1141" data-name="Path 1141" d="M1288.981,153.529a2.179,2.179,0,0,0,.482.056,1.927,1.927,0,0,0,1.854-1.666,1.9,1.9,0,0,0-1.41-2.462,2.2,2.2,0,0,0-.488-.057,1.928,1.928,0,0,0-1.861,1.664A1.908,1.908,0,0,0,1288.981,153.529Zm-.494-2.253c.141-.62.531-1,1.018-1a.948.948,0,0,1,.211.024c.556.127.821.693.659,1.409-.143.626-.527,1.015-1,1.015a.9.9,0,0,1-.2-.023C1288.6,152.566,1288.324,151.995,1288.487,151.275Z" transform="translate(-1287.489 -149.4)" fill="#fff"/>
      </g>
      <g id="Group_862" data-name="Group 862" transform="translate(23.25 1.695)">
        <path id="Path_1142" data-name="Path 1142" d="M1323.242,161.853a1.348,1.348,0,0,0-.636-1.929l-1.359-.724-1.9,3.575.848.451.623-1.17.516.275-.1,1.449.943.5.029-1.72.079-.008A1.188,1.188,0,0,0,1323.242,161.853Zm-1.325-.1a.541.541,0,0,1-.258-.067l-.522-.278.577-1.084.523.278a.556.556,0,0,1,.2.793A.6.6,0,0,1,1321.917,161.757Z" transform="translate(-1319.345 -159.201)" fill="#fff"/>
      </g>
      <g id="Group_863" data-name="Group 863" transform="translate(26.645 4.148)">
        <path id="Path_1143" data-name="Path 1143" d="M1349.115,178.955l-1.392-1.137-.452.554.321.263-1.662,2.033-.357-.292-.453.553,1.464,1.2.452-.554-.363-.3,1.662-2.033.326.267Z" transform="translate(-1345.12 -177.817)" fill="#fff"/>
      </g>
      <g id="Group_864" data-name="Group 864" transform="translate(28.593 7.467)">
        <path id="Path_1144" data-name="Path 1144" d="M1364.451,203.354l-.288-.341-4.258,1.34.662.782.534-.184.928,1.1-.27.5.653.771Zm-2.664,1.357.115-.047a10.091,10.091,0,0,0,1.125-.522l.386-.2-.274.341a6.523,6.523,0,0,0-.695,1.023l-.064.111Z" transform="translate(-1359.905 -203.013)" fill="#fff"/>
      </g>
    </g>
    <g id="Group_868" data-name="Group 868" transform="translate(1077.252 139.623)">
      <g id="Group_866" data-name="Group 866" transform="translate(1.43)">
        <path id="Path_1145" data-name="Path 1145" d="M1127.631,249.283a2.617,2.617,0,0,1,.087-.635.1.1,0,0,0-.072-.123.1.1,0,0,0-.124.072,2.915,2.915,0,0,0-.093.683,3.081,3.081,0,0,0,.167,1.061c-.76-.906-.636-1.563.161-2.759a1.991,1.991,0,0,1,.085,2.833A2.812,2.812,0,0,1,1127.631,249.283Z" transform="translate(-1127.088 -247.583)" fill="#fff" fill-rule="evenodd"/>
      </g>
      <g id="Group_867" data-name="Group 867" transform="translate(0 1.853)">
        <path id="Path_1146" data-name="Path 1146" d="M1116.274,261.646c1.257.679,1.954,1.241,2.074,2.617.118-1.376.816-1.937,2.073-2.617.2,1.83-.246,2.61-1.831,3.4a7.262,7.262,0,0,0,.829-1.191.1.1,0,0,0-.177-.1,7.014,7.014,0,0,1-.852,1.211,5.382,5.382,0,0,0-.74-1.62,1.517,1.517,0,0,0-.751-.648.1.1,0,0,0-.053.194,1.38,1.38,0,0,1,.637.568,5.207,5.207,0,0,1,.735,1.639C1116.542,264.291,1116.075,263.518,1116.274,261.646Z" transform="translate(-1116.231 -261.646)" fill="#fff" fill-rule="evenodd"/>
      </g>
    </g>
    <g id="Group_884" data-name="Group 884" transform="translate(1081.398 157.07)">
      <g id="Group_883" data-name="Group 883" transform="translate(0)">
        <g id="Group_869" data-name="Group 869">
          <path id="Path_1147" data-name="Path 1147" d="M1149.268,382.943a1.554,1.554,0,0,1-.648-.462,1.119,1.119,0,0,1,.11-1.608,1.141,1.141,0,0,1,1.612.232,1.359,1.359,0,0,1,.306.714l-.09.028a1.334,1.334,0,0,0-.286-.694,1.058,1.058,0,0,0-1.475-.207,1.032,1.032,0,0,0-.107,1.486,1.422,1.422,0,0,0,.632.443Zm.117-.148a1.47,1.47,0,0,1-.614-.429.913.913,0,1,1,1.418-1.146,1.24,1.24,0,0,1,.262.668l-.09.023a1.213,1.213,0,0,0-.242-.643.828.828,0,1,0-1.279,1.05,1.356,1.356,0,0,0,.6.405Z" transform="translate(-1148.25 -380.554)" fill="#fff"/>
          <path id="Path_1148" data-name="Path 1148" d="M1148.748,382.506l-.056-.023a1.633,1.633,0,0,1-.681-.486,1.2,1.2,0,0,1,.123-1.722,1.131,1.131,0,0,1,.718-.256,1.317,1.317,0,0,1,1.007.5,1.442,1.442,0,0,1,.324.756l.008.067-.2.062v.011l-.251.066-.006-.1a1.129,1.129,0,0,0-.224-.6.753.753,0,0,0-1.061-.135.744.744,0,0,0-.092,1.083,1.279,1.279,0,0,0,.564.38l.1.039-.156.209h0Z" transform="translate(-1147.704 -380.019)" fill="#fff"/>
        </g>
        <g id="Group_870" data-name="Group 870" transform="translate(1.792 1.616)">
          <path id="Path_1149" data-name="Path 1149" d="M1163.243,395.217a.726.726,0,0,1-1.072.01.717.717,0,0,1-.031-1.059l.97-1.013.069.066-.963,1.006a.665.665,0,1,0,.963.919l.964-1.006.069.066Zm.811-1.16-.959,1a.545.545,0,1,1-.786-.754l.958-1,.069.066-.953,1a.451.451,0,1,0,.647.622l.956-1Z" transform="translate(-1161.84 -393.041)" fill="#fff"/>
          <path id="Path_1150" data-name="Path 1150" d="M1162.171,394.784a.853.853,0,0,1-.591-.254.8.8,0,0,1-.033-1.174l1.026-1.071.156.15h0l.187.178-1.01,1.055a.435.435,0,0,0-.141.3.377.377,0,0,0,.67.206l1.012-1.056.157.149h0l.185.179-1.023,1.069A.825.825,0,0,1,1162.171,394.784Z" transform="translate(-1161.305 -392.285)" fill="#fff"/>
        </g>
        <g id="Group_871" data-name="Group 871" transform="translate(3.804 3.61)">
          <path id="Path_1151" data-name="Path 1151" d="M1178.464,410.338a1.555,1.555,0,0,1-.744-.283,1.118,1.118,0,0,1-.3-1.582,1.14,1.14,0,0,1,1.617-.184,1.357,1.357,0,0,1,.479.613l-.08.05a1.339,1.339,0,0,0-.454-.6,1.056,1.056,0,0,0-1.479.173,1.032,1.032,0,0,0,.276,1.463,1.428,1.428,0,0,0,.724.268Zm.076-.173a1.472,1.472,0,0,1-.7-.26.912.912,0,1,1,1.078-1.468,1.243,1.243,0,0,1,.424.58l-.081.046a1.211,1.211,0,0,0-.4-.561.827.827,0,1,0-.968,1.339,1.352,1.352,0,0,0,.681.24Z" transform="translate(-1177.125 -407.957)" fill="#fff"/>
          <path id="Path_1152" data-name="Path 1152" d="M1177.969,409.891l-.06-.008a1.634,1.634,0,0,1-.782-.3,1.2,1.2,0,0,1-.321-1.7,1.147,1.147,0,0,1,.935-.468,1.357,1.357,0,0,1,.8.267,1.453,1.453,0,0,1,.506.649l.024.063-.177.11,0,.01-.226.127-.031-.094a1.128,1.128,0,0,0-.369-.521.817.817,0,0,0-.48-.162.706.706,0,0,0-.579.3.744.744,0,0,0,.188,1.07,1.279,1.279,0,0,0,.642.225l.106.012-.071.176h0l-.027.065h0Z" transform="translate(-1176.581 -407.421)" fill="#fff"/>
        </g>
        <g id="Group_872" data-name="Group 872" transform="translate(5.831 4.735)">
          <path id="Path_1153" data-name="Path 1153" d="M1192.894,418.67l-.082-.049,1.062-1.814.083.048Zm.1.061,1.063-1.815.083.048-1.063,1.815Z" transform="translate(-1192.7 -416.696)" fill="#fff"/>
          <rect id="Rectangle_1497" data-name="Rectangle 1497" width="2.265" height="0.474" transform="matrix(0.506, -0.863, 0.863, 0.506, 0, 1.954)" fill="#fff"/>
        </g>
        <g id="Group_873" data-name="Group 873" transform="translate(7.145 5.349)">
          <path id="Path_1154" data-name="Path 1154" d="M1203.641,421.438l.1.048.416,1.79.59-1.3.084.038-.7,1.532-.449-1.946-.015-.007-.832,1.824-.083-.038Zm.4,2.553-.416-1.8-.593,1.307-.084-.038.7-1.534.451,1.95.011.005.832-1.824.084.038-.884,1.938Z" transform="translate(-1202.65 -421.33)" fill="#fff"/>
          <path id="Path_1155" data-name="Path 1155" d="M1203.474,423.435l-.211-.1-.372-1.6-.527,1.162-.423-.193.952-2.086.214.1.37,1.6.525-1.158.422.193Z" transform="translate(-1201.941 -420.62)" fill="#fff"/>
        </g>
        <g id="Group_874" data-name="Group 874" transform="translate(9.444 6.516)">
          <path id="Path_1156" data-name="Path 1156" d="M1220.566,432.008l-.1-.03,1.516-1.789.086.026.253,2.321-.1-.029-.226-2.188-.012,0Zm.22.066-.1-.03.323-.4,1.043.313.049.512-.1-.03-.039-.423-.915-.275Zm1.258-.223-.964-.29.835-.985Zm-.192-1.065-.623.734.714.214Z" transform="translate(-1220.326 -430.096)" fill="#fff"/>
          <path id="Path_1157" data-name="Path 1157" d="M1221.481,432.037l-.221-.067h0l-.265-.08-.039-.423-.811-.243-.266.332-.221-.067h0l-.267-.081,1.63-1.924.188.056Zm-1.046-1.171.479.144-.061-.637Z" transform="translate(-1219.391 -429.484)" fill="#fff"/>
        </g>
        <g id="Group_875" data-name="Group 875" transform="translate(13.415 7.224)">
          <path id="Path_1158" data-name="Path 1158" d="M1250.63,437.571l-.1-.009,1.125-2.055.089.008.713,2.221-.1-.009-.66-2.1h-.012Zm.228.021-.1-.009.237-.456,1.083.1.151.491-.1-.009L1252,437.3l-.951-.086Zm1.186-.47-1-.091.62-1.131Zm-.4-1-.463.843.741.067Z" transform="translate(-1250.398 -435.422)" fill="#fff"/>
          <path id="Path_1159" data-name="Path 1159" d="M1251.709,437.265l-.506-.046-.123-.406-.842-.076-.194.378-.507-.046,1.209-2.21.2.017Zm-1.259-.937.5.046-.187-.611Z" transform="translate(-1249.537 -434.858)" fill="#fff"/>
        </g>
        <g id="Group_876" data-name="Group 876" transform="translate(17.528 7.275)">
          <path id="Path_1160" data-name="Path 1160" d="M1281.432,435.946l.095-.009.189,2.011.948-.089.008.081-1.043.1Zm.215-.02.1-.009.172,1.831.732-.069.008.081-.827.077Z" transform="translate(-1281.344 -435.828)" fill="#fff"/>
          <path id="Path_1161" data-name="Path 1161" d="M1280.972,437.544l-.211-2.254.472-.044.172,1.831.732-.069.04.423Z" transform="translate(-1280.76 -435.245)" fill="#fff"/>
        </g>
        <g id="Group_877" data-name="Group 877" transform="translate(19.543 6.879)">
          <path id="Path_1162" data-name="Path 1162" d="M1296.945,435.223l-.1.021.464-2.3.087-.019,1.343,1.911-.1.021-1.255-1.808-.012,0Zm.224-.048-.1.021.09-.506,1.065-.228.291.425-.1.021-.239-.352-.934.2Zm.994-.8-.984.211.256-1.265Zm-.682-.84-.191.944.728-.156Z" transform="translate(-1296.742 -432.836)" fill="#fff"/>
          <path id="Path_1163" data-name="Path 1163" d="M1296.057,434.752l.5-2.472.192-.041,1.444,2.056-.226.048h0l-.272.058-.239-.352-.827.177-.073.419Zm.781-1.612-.128.634.489-.1Z" transform="translate(-1296.057 -432.238)" fill="#fff"/>
        </g>
        <g id="Group_878" data-name="Group 878" transform="translate(22.835 5.968)">
          <path id="Path_1164" data-name="Path 1164" d="M1321.849,426.251l.088-.037.781,1.864.878-.367.031.076-.966.4Zm.2-.084.088-.037.711,1.7.679-.284.031.075-.766.32Z" transform="translate(-1321.743 -426.025)" fill="#fff"/>
          <path id="Path_1165" data-name="Path 1165" d="M1321.919,427.6l-.875-2.089.437-.183.711,1.7.678-.284.164.392Z" transform="translate(-1321.043 -425.325)" fill="#fff"/>
        </g>
        <g id="Group_879" data-name="Group 879" transform="translate(24.501 4.841)">
          <path id="Path_1166" data-name="Path 1166" d="M1335.525,419.945l-1-1.846.912-.5.039.072-.828.45.924,1.7.834-.453.039.072Zm.308-1.575-.707.384-.326-.6.721-.392.039.072-.638.347.248.457.624-.339Zm.523.918-.727.4-.456-.841.708-.384.039.072-.623.339.378.7.643-.35Z" transform="translate(-1334.414 -417.493)" fill="#fff"/>
          <path id="Path_1167" data-name="Path 1167" d="M1334.768,419.331l-1.079-1.989,1.054-.573.116.214h0l.087.159-.638.347.17.314.624-.339.2.373-.624.339.3.555.643-.35.086.159h0l.115.215Z" transform="translate(-1333.69 -416.769)" fill="#fff"/>
        </g>
        <g id="Group_880" data-name="Group 880" transform="translate(26.46 3.49)">
          <path id="Path_1168" data-name="Path 1168" d="M1350.557,407.255a1.48,1.48,0,0,0-.8.272,1.02,1.02,0,1,0,1.189,1.651.96.96,0,0,0,.349-1.238l-.917.661-.048-.066,1-.723a1.055,1.055,0,0,1-.342,1.439,1.134,1.134,0,0,1-1.605-.191,1.15,1.15,0,0,1,.328-1.605,1.608,1.608,0,0,1,.815-.292Zm.051.19a1.4,1.4,0,0,0-.741.242.826.826,0,1,0,.974,1.33.731.731,0,0,0,.348-.781l-.7.51-.048-.066.809-.583a.825.825,0,0,1-.359.994.914.914,0,1,1-1.066-1.48,1.533,1.533,0,0,1,.764-.258Z" transform="translate(-1349.105 -407.077)" fill="#fff"/>
          <path id="Path_1169" data-name="Path 1169" d="M1349.714,409.009a1.135,1.135,0,0,1-.933-.469,1.228,1.228,0,0,1,.346-1.718,1.7,1.7,0,0,1,.856-.306l.066-.005.076.257h0l.048.191-.1,0a1.327,1.327,0,0,0-.695.226.756.756,0,0,0-.2,1.06.71.71,0,0,0,.587.307h0a.848.848,0,0,0,.5-.168.686.686,0,0,0,.333-.569l-.66.478-.143-.2h0l-.107-.147,1.142-.823.045.078a1.131,1.131,0,0,1-.365,1.545A1.34,1.34,0,0,1,1349.714,409.009Z" transform="translate(-1348.564 -406.509)" fill="#fff"/>
        </g>
        <g id="Group_881" data-name="Group 881" transform="translate(28.389 1.613)">
          <path id="Path_1170" data-name="Path 1170" d="M1364.071,394.173l.083-.079,1.817.277-.99-1.029.067-.064,1.164,1.215-1.974-.3-.012.011,1.386,1.447-.067.064Zm2.52.574-1.823-.278.994,1.033-.067.064-1.165-1.217,1.978.3.01-.009-1.386-1.447.067-.064,1.473,1.538Z" transform="translate(-1363.956 -393.017)" fill="#fff"/>
          <path id="Path_1171" data-name="Path 1171" d="M1364.785,395.069l-1.584-1.655.17-.163,1.619.247-.88-.915.183-.177h0l.152-.145,1.585,1.655-.168.161-1.625-.248.885.92Z" transform="translate(-1363.2 -392.261)" fill="#fff"/>
        </g>
        <g id="Group_882" data-name="Group 882" transform="translate(30.59 0.28)">
          <path id="Path_1172" data-name="Path 1172" d="M1381.784,384.923l-.064.079-1.08-2.082.056-.069,2.243.649-.064.079-2.11-.623-.008.01Zm.415-1.425-.634.781-.594-1.146Zm-1.057-.228.442.855.469-.578Zm.786,1.475-.064.079-.247-.451.686-.845.492.15-.064.079-.406-.125-.6.741Z" transform="translate(-1380.544 -382.758)" fill="#fff"/>
          <path id="Path_1173" data-name="Path 1173" d="M1381.07,384.537l-1.161-2.239.123-.152,2.412.7-.146.179h0l-.175.215-.406-.125-.533.656.205.372-.174.216h0Zm-.4-1.745.3.574.315-.388Z" transform="translate(-1379.909 -382.146)" fill="#fff"/>
        </g>
      </g>
    </g>
  </g>
</svg>
