<svg width="68.645" height="20.151" viewBox="0 0 68.645 20.151">
  <g id="Group_1483" data-name="Group 1483" transform="translate(-288.355 -767.485)">
    <g id="Group_1482" data-name="Group 1482" transform="translate(253.672 533.095)">
      <path id="Path_3178" data-name="Path 3178" d="M87.489,280.973q-.411.07-.823.143.428,2.418.854,4.838l.49-.086q-.372-2.162-.746-4.323.409-.071.82-.14-.149-.887-.3-1.774h0l-.6-.431h0l.3,1.772" transform="translate(-41.538 -35.804)" fill="#fff"/>
      <path id="Path_3179" data-name="Path 3179" d="M81.251,312.055q.15.886.3,1.775-1.918.324-3.832.708s0,0,0,0l.582.419a0,0,0,0,1,0,0h0q1.9-.374,3.819-.692-.147-.887-.295-1.776-.286-.218-.576-.434" transform="translate(-34.387 -62.058)" fill="#fff"/>
      <path id="Path_3180" data-name="Path 3180" d="M75.131,287.1a.207.207,0,0,1-.242-.164l-.861-4.837a.21.21,0,0,1,.178-.238l.61-.107q-.119-.685-.236-1.372-1.734.3-3.463.64.135.683.27,1.366l.6-.117a.213.213,0,0,1,.253.159q.462,2.412.926,4.824a.207.207,0,0,1-.167.24l-.659.129q.135.684.271,1.366,1.712-.34,3.432-.635-.118-.687-.235-1.373l-.673.116m-3.271-5.66.12.622-.192.037-.157-.806q1.291-.251,2.586-.478c.011.062.021.123.032.184q-1.2.21-2.389.441m2.077,6.438-.889.169c.041.208.081.415.12.622l-.182.035c-.053-.268-.105-.538-.158-.805.287-.057.574-.112.861-.166q-.528-2.8-1.057-5.607l.221-.041,1.083,5.792" transform="translate(-29.112 -36.75)" fill="#fff"/>
      <path id="Path_3181" data-name="Path 3181" d="M48.1,296.853a.776.776,0,0,1,.271-.01.839.839,0,0,0-.891-.386q-.5.115-.992.234.284,1.189.569,2.377l.494-.118q-.22-.934-.44-1.868.494-.116.989-.229" transform="translate(-9.43 -49.578)" fill="#fff"/>
      <path id="Path_3182" data-name="Path 3182" d="M47.658,290.055a3.166,3.166,0,0,1,.983,1.885,2.885,2.885,0,0,1-2.266,3.636q-.463.107-.924.217.262,1.094.524,2.189-1.048.25-2.093.518l.607.386q1.04-.262,2.084-.508-.259-1.1-.516-2.189c.307-.073.614-.143.921-.214a2.879,2.879,0,0,0,2.267-3.625,2.951,2.951,0,0,0-1.589-2.3" transform="translate(-7.351 -44.479)" fill="#fff"/>
      <path id="Path_3183" data-name="Path 3183" d="M39.829,288.118a2.846,2.846,0,0,0-2.17-.278q-1.492.345-2.976.725l2,7.842q.845-.216,1.692-.419-.241-.995-.48-1.99a.208.208,0,0,1,.158-.247q.463-.11.925-.218a2.677,2.677,0,0,0,2.1-3.394,2.835,2.835,0,0,0-1.25-2.021m-2.158,4.205a.21.21,0,0,1-.255-.148q-.287-1.189-.573-2.376a.211.211,0,0,1,.164-.25q.5-.118.993-.234c.645-.15,1.222.316,1.4,1.125.187.843-.119,1.5-.757,1.653q-.487.113-.974.23m2.211-.617a1.313,1.313,0,0,1-1.024.668,1.425,1.425,0,0,0,.425-.216,1.509,1.509,0,0,0,.526-1.488,2.741,2.741,0,0,0-.553-1.367,2.086,2.086,0,0,1,.633.828,2.323,2.323,0,0,1-.006,1.577m-1.757-3.295q-1.288.3-2.572.615.81,3.249,1.621,6.5l-.186.046q-.838-3.334-1.675-6.672,1.286-.323,2.575-.621a2.45,2.45,0,0,1,1.961.3,2.526,2.526,0,0,0-1.724-.162" transform="translate(0 -42.634)" fill="#fff"/>
      <path id="Path_3184" data-name="Path 3184" d="M188.039,286.01s-.244,1.245-.578,2.435l.658-.016c.132-.48.214-.816.288-1.159q-.184-.631-.368-1.26" transform="translate(-122.077 -41.247)" fill="#fff"/>
      <path id="Path_3185" data-name="Path 3185" d="M176.9,306.533q-1.239.016-2.48.055-.176.535-.348,1.071-1.113.038-2.223.095l0,0c.168.162.334.325.5.488,0,0,0,.007,0,.01h.009s0,0,0,0l0,0q1.108-.053,2.215-.088.175-.534.352-1.069,1.085-.03,2.168-.042-.1-.261-.2-.522" transform="translate(-109.601 -57.646)" fill="#fff"/>
      <path id="Path_3186" data-name="Path 3186" d="M193.472,269.4h-.014l.009,0q-.313-.257-.629-.512,1.83,4.218,3.446,8.481c0,.045,0,.09,0,.134q-.957-.007-1.914,0c.065.175.129.349.193.523q1.108-.008,2.216.006c0-.113.006-.226.01-.339q-1.557-4.166-3.316-8.291" transform="translate(-126.373 -27.567)" fill="#fff"/>
      <path id="Path_3187" data-name="Path 3187" d="M176.816,269.917c-.276.005-.552.011-.83.019q-1.609,4.155-3.014,8.345.923-.046,1.846-.079.15-.467.3-.934a.208.208,0,0,1,.191-.141q1.242-.039,2.484-.055a.207.207,0,0,1,.2.132q.174.46.345.919.911-.008,1.822,0-1.572-4.122-3.345-8.2m-3.124,8.021-.2.01q1.308-3.84,2.79-7.652l.388-.008c.027.059.052.118.078.177l-.326.007q-1.449,3.718-2.732,7.466m3.669-2.435a.2.2,0,0,1-.035.176.211.211,0,0,1-.165.082q-.637.011-1.272.028a.214.214,0,0,1-.172-.078.2.2,0,0,1-.038-.18c.326-1.167.568-2.405.57-2.417a.211.211,0,0,1,.2-.167h0a.213.213,0,0,1,.213.148q.353,1.2.694,2.408m-1.743.84c.017-.06.034-.12.05-.18q1.161-.033,2.32-.046-.393-1.418-.8-2.835l.192-.008q.434,1.508.849,3.019-1.306.013-2.61.051" transform="translate(-110.499 -28.388)" fill="#fff"/>
      <path id="Path_3188" data-name="Path 3188" d="M226.949,279.3q-.492-.019-.986-.034-.032,1.051-.064,2.1l.505.017q.027-.79.054-1.579c.328.012.656.024.984.037a.921.921,0,0,1,.313.07.846.846,0,0,0-.805-.614" transform="translate(-152.79 -35.856)" fill="#fff"/>
      <path id="Path_3189" data-name="Path 3189" d="M236.458,280.814a2.633,2.633,0,0,0,1.206-2.23,2.864,2.864,0,0,0-.939-2.448,3.049,3.049,0,0,1,.464,1.893,2.632,2.632,0,0,1-1.2,2.234q.671,1.581,1.309,3.17c0,.037,0,.073-.006.109q-1.167-.074-2.335-.128s0,0,0-.006l-.008,0q.233.273.462.546a.028.028,0,0,0,.007-.008l0,.01q1.162.059,2.325.136c0-.037,0-.073.007-.11q-.628-1.59-1.292-3.174" transform="translate(-160.019 -33.357)" fill="#fff"/>
      <path id="Path_3190" data-name="Path 3190" d="M217.793,298.77l-.832-.028q-.042,1.331-.083,2.663-1.063-.033-2.124-.048l-.02.013c.161.177.32.354.479.532l.01-.013q1.063.019,2.126.056.045-1.331.092-2.662l.555.02c-.067-.177-.135-.355-.2-.533" transform="translate(-143.869 -51.42)" fill="#fff"/>
      <path id="Path_3191" data-name="Path 3191" d="M220.494,275.825a.2.2,0,0,1,.08-.247,2.429,2.429,0,0,0,1.1-2.079,2.619,2.619,0,0,0-2.717-2.932q-1.514-.057-3.028-.082-.065,4.046-.13,8.092.865.014,1.73.04.036-1.23.072-2.46a.207.207,0,0,1,.217-.2q.417.013.833.028a.212.212,0,0,1,.19.134q.493,1.288.963,2.581.964.044,1.927.1-.6-1.493-1.238-2.983m-3.846-4.667q-.074,3.5-.15,7.008l-.19,0q.072-3.6.143-7.192,1.315.027,2.629.077a2.434,2.434,0,0,1,1.805.8,2.509,2.509,0,0,0-1.612-.608q-1.313-.053-2.626-.082m2.146,3.43c-.323-.013-.647-.025-.97-.033a.209.209,0,0,1-.207-.211q.03-1.051.061-2.1a.21.21,0,0,1,.222-.2l.989.034a1.127,1.127,0,0,1,1.069,1.283,1.142,1.142,0,0,1-1.164,1.226m.838.395a1.415,1.415,0,0,0,.84-1.215,2.574,2.574,0,0,0-.161-1.37,1.954,1.954,0,0,1,.365.9,2.186,2.186,0,0,1-.393,1.423,1.223,1.223,0,0,1-1.086.349,1.329,1.329,0,0,0,.436-.09m.489,3.3q-.442-1.129-.9-2.256l.236.01q.458,1.127.9,2.257l-.235-.012" transform="translate(-144.722 -28.842)" fill="#fff"/>
      <path id="Path_3192" data-name="Path 3192" d="M268.721,273.481q-.107.96-.211,1.921-1.318-.144-2.639-.263-.054.606-.109,1.211l.508.046q.033-.344.065-.689,1.314.123,2.628.271.108-.96.218-1.92h0l-.458-.576" transform="translate(-184.643 -31.236)" fill="#fff"/>
      <path id="Path_3193" data-name="Path 3193" d="M267.414,289.513h0l-.449-.575,0,0q-.1.965-.208,1.929-1.175-.126-2.351-.232-.062.691-.123,1.382l.494.045c.027-.286.053-.572.081-.858q1.17.11,2.341.24.108-.966.215-1.933" transform="translate(-183.461 -43.586)" fill="#fff"/>
      <path id="Path_3194" data-name="Path 3194" d="M258.156,306.172q-.216-.287-.434-.574-.111,1.009-.222,2.018-2.362-.261-4.732-.434a.221.221,0,0,0,0-.023l-.014.008q.225.28.448.559l.015-.018,0,.033q2.36.181,4.713.45.115-1.01.229-2.019Z" transform="translate(-174.25 -56.899)" fill="#fff"/>
      <path id="Path_3195" data-name="Path 3195" d="M255.982,278.946a.206.206,0,0,1-.191-.221q.061-.691.122-1.382a.209.209,0,0,1,.23-.184q1.072.1,2.143.21l.162-1.529q-1.084-.114-2.168-.212a.211.211,0,0,1-.2-.222q.054-.606.107-1.212a.212.212,0,0,1,.236-.184q1.213.109,2.427.24.082-.758.164-1.517-2.244-.242-4.491-.41-.3,4.041-.606,8.083,2.167.163,4.329.4.087-.807.175-1.615-1.218-.131-2.439-.241m.066-2.912q.975.085,1.949.185c-.008.076-.015.151-.024.226q-.972-.1-1.946-.186c.007-.076.014-.152.021-.226m-1.45,4.278-.233-.019q.294-3.756.588-7.511,1.8.141,3.6.329c-.008.076-.016.151-.023.226q-1.673-.175-3.35-.309-.29,3.642-.583,7.285m3.357-.518q-1.11-.116-2.221-.215c.006-.075.013-.15.02-.225q1.114.1,2.225.215c-.008.075-.016.15-.024.226" transform="translate(-175.179 -30.31)" fill="#fff"/>
      <path id="Path_3196" data-name="Path 3196" d="M296.77,282.533l.492.07q.428-2.967.854-5.933h0q-.219-.294-.44-.588-.451,3.226-.9,6.452" transform="translate(-209.42 -33.313)" fill="#fff"/>
      <path id="Path_3197" data-name="Path 3197" d="M290.039,310.581q-.2-.3-.407-.6-.155.985-.313,1.969-2.244-.355-4.5-.634l-.008,0c.14.193.281.387.42.581a.01.01,0,0,0,0-.005q2.245.285,4.48.649.16-.984.32-1.968Z" transform="translate(-199.868 -60.404)" fill="#fff"/>
      <path id="Path_3198" data-name="Path 3198" d="M288.108,282.446a.207.207,0,0,1-.18-.231q.433-3.129.865-6.255-.912-.127-1.824-.24-.5,4.021-1,8.043,2.053.255,4.1.578.124-.783.247-1.568-1.1-.173-2.2-.327m.192-5.9c-.232-.031-.466-.063-.7-.092q-.463,3.554-.926,7.109l-.233-.031q.471-3.668.942-7.335.473.061.946.124c-.01.075-.02.151-.031.225m1.459,6.8q-.966-.149-1.934-.283c.011-.075.021-.15.032-.224q.969.134,1.936.282c-.011.075-.023.15-.034.225" transform="translate(-200.786 -33.025)" fill="#fff"/>
      <path id="Path_3199" data-name="Path 3199" d="M327.39,287.756l.49.094,1.132-5.887h0c-.137-.2-.274-.405-.412-.608q-.6,3.2-1.205,6.4" transform="translate(-233.887 -37.526)" fill="#fff"/>
      <path id="Path_3200" data-name="Path 3200" d="M320.3,316.2c-.125-.2-.252-.41-.379-.614q-.2.976-.406,1.951-2.228-.462-4.469-.846l-.008,0c.131.2.262.4.392.6l0,0q2.233.389,4.453.86.206-.975.413-1.951Z" transform="translate(-224.015 -64.877)" fill="#fff"/>
      <path id="Path_3201" data-name="Path 3201" d="M318.431,287.279a.208.208,0,0,1-.169-.239q.58-3.1,1.159-6.206-.905-.169-1.814-.326-.692,3.992-1.382,7.986,2.042.354,4.076.772.161-.777.32-1.555-1.094-.224-2.191-.432m.468-5.879c-.231-.043-.462-.084-.694-.126l-1.26,7.058-.232-.042q.643-3.64,1.286-7.283c.314.056.628.112.941.17q-.02.112-.041.223m1.142,6.859q-.961-.194-1.923-.374c.014-.075.029-.149.042-.223q.963.18,1.925.374l-.045.223" transform="translate(-224.966 -36.85)" fill="#fff"/>
      <path id="Path_3202" data-name="Path 3202" d="M154.839,270.932q-1.26,3.181-2.387,6.384l.728-.056q1.047-2.926,2.207-5.835c-.007-.109-.012-.218-.018-.327h0c-.182-.165-.366-.329-.55-.494,0,0,0,0,0,0,.007.108.013.217.02.326" transform="translate(-94.103 -28.937)" fill="#fff"/>
      <path id="Path_3203" data-name="Path 3203" d="M135.748,281.614l.56.468v0q.91-.09,1.82-.168l.193-.542q-1.287.108-2.573.24" transform="translate(-80.756 -37.542)" fill="#fff"/>
      <path id="Path_3204" data-name="Path 3204" d="M143.561,303.038l0,.005q.06.986.118,1.974-2.919.174-5.832.478l0,0q.272.234.541.471v0h0q2.9-.292,5.811-.454-.055-.989-.111-1.978l0,0-.524-.494" transform="translate(-82.427 -54.853)" fill="#fff"/>
      <path id="Path_3205" data-name="Path 3205" d="M139.274,278.383a.212.212,0,0,1-.181-.077.2.2,0,0,1-.033-.191q1.118-3.183,2.364-6.348c0-.027,0-.055-.006-.082q-2.741.167-5.478.444.077.759.154,1.518,1.18-.119,2.364-.218a.218.218,0,0,1,.188.076.191.191,0,0,1,.034.19q-1.154,3.218-2.178,6.453c0,.023,0,.046.007.07q2.712-.28,5.43-.445-.049-.787-.1-1.572-1.286.079-2.569.182m-2.574-5.728c.023.242.046.484.07.725l-.246.024c-.031-.317-.062-.633-.093-.95q2.231-.218,4.465-.364l-.09.233q-2.054.136-4.106.332m.386,7.161q1.038-3.222,2.2-6.427l.255-.019q-1.172,3.2-2.215,6.422l-.244.024m4.391-.993q-1.279.082-2.554.189c.027-.078.053-.156.081-.234q1.228-.1,2.458-.18c.005.076.01.15.015.226" transform="translate(-80.909 -29.8)" fill="#fff"/>
      <path id="Path_3206" data-name="Path 3206" d="M119.021,274.168q-1.086,3.245-2.041,6.5l.725-.1q.89-2.978,1.891-5.946-.017-.163-.036-.325h0c-.191-.155-.384-.308-.576-.462h0c.012.109.025.217.037.325" transform="translate(-65.759 -31.524)" fill="#fff"/>
      <path id="Path_3207" data-name="Path 3207" d="M99.119,285.823l.584.436a0,0,0,0,1,0,0q.9-.138,1.812-.266c.053-.183.108-.368.163-.552q-1.281.177-2.56.379" transform="translate(-51.487 -40.795)" fill="#fff"/>
      <path id="Path_3208" data-name="Path 3208" d="M108.564,306.115l0,0q.111.983.223,1.965-2.908.331-5.807.794v0l.565.442,0,0q2.885-.449,5.785-.768-.108-.984-.217-1.97h0l-.55-.465" transform="translate(-54.569 -57.312)" fill="#fff"/>
      <path id="Path_3209" data-name="Path 3209" d="M102.514,281.778a.216.216,0,0,1-.187-.067.2.2,0,0,1-.043-.189q.948-3.239,2.021-6.467c0-.027-.006-.055-.009-.082q-2.732.316-5.454.741.118.755.235,1.508,1.175-.184,2.353-.346a.223.223,0,0,1,.192.066.193.193,0,0,1,.044.188q-.981,3.275-1.83,6.562l.012.07q2.7-.426,5.4-.739-.09-.781-.181-1.564-1.28.147-2.558.32M99.631,276.2q.055.36.109.72l-.244.037q-.072-.472-.144-.943,2.218-.338,4.446-.605l-.079.238q-2.047.246-4.088.554m.774,7.129q.863-3.274,1.856-6.537l.254-.034q-1,3.262-1.869,6.534l-.241.037m4.336-1.229q-1.273.151-2.543.326.034-.118.069-.238,1.221-.168,2.447-.313l.027.225" transform="translate(-51.267 -32.428)" fill="#fff"/>
      <path id="Path_3210" data-name="Path 3210" d="M364.31,292.1c-.272-.069-.542-.136-.814-.2l-1.172,4.771.484.12q.532-2.128,1.063-4.258c.27.068.541.135.81.2q.223-.871.447-1.743h0c-.125-.212-.252-.425-.379-.637h0q-.219.871-.439,1.743" transform="translate(-261.801 -44.72)" fill="#fff"/>
      <path id="Path_3211" data-name="Path 3211" d="M349.774,322.852l-.441,1.745q-1.9-.478-3.8-.9l0,0q.184.308.365.618l0,0v0q1.9.427,3.785.912l.448-1.744q-.176-.315-.353-.631" transform="translate(-248.38 -70.685)" fill="#fff"/>
      <path id="Path_3212" data-name="Path 3212" d="M349.844,294.2a.209.209,0,0,1-.156-.248q.582-2.386,1.164-4.774a.21.21,0,0,1,.26-.146l.6.15q.169-.676.338-1.351-1.714-.429-3.434-.813-.153.679-.3,1.359l.592.134a.209.209,0,0,1,.167.247q-.549,2.395-1.1,4.789a.208.208,0,0,1-.25.152l-.654-.148q-.152.679-.3,1.359,1.705.38,3.4.806.171-.674.34-1.351l-.665-.165m-.713-6.5q-.071.309-.141.618l-.19-.044q.09-.4.182-.8,1.284.291,2.564.607c-.015.061-.029.122-.044.182q-1.184-.293-2.37-.564m-.7,6.73q-.442-.1-.884-.2l-.141.618-.182-.041c.061-.268.121-.534.181-.8.286.065.572.13.857.2l1.3-5.556.22.052q-.673,2.868-1.348,5.736" transform="translate(-249.369 -42.055)" fill="#fff"/>
      <path id="Path_3213" data-name="Path 3213" d="M108.1,241.358l-.159-.935-3.111.528.158.935,1.014-.172.616,3.64,1.092-.186-.617-3.639Z" transform="translate(-56.052 -4.821)" fill="#fff"/>
      <path id="Path_3214" data-name="Path 3214" d="M128.6,241.524l.845,1.407,1.265-.153-1.1-1.63.048-.042a1.365,1.365,0,0,0,.442-1.3,1.522,1.522,0,0,0-1.6-1.418,2.234,2.234,0,0,0-.269.016l-1.756.212.556,4.6,1.136-.137-.179-1.486Zm-.895-2.11.635-.077a.593.593,0,0,1,.668.578.726.726,0,0,1-.1.5.558.558,0,0,1-.408.241l-.635.077Z" transform="translate(-73.347 -3.198)" fill="#fff"/>
      <path id="Path_3215" data-name="Path 3215" d="M153.581,239.727l.267.58,1.2-.07-2.227-4.588-.543.032-1.7,4.818,1.22-.072.2-.607Zm-1.289-.847a11.4,11.4,0,0,0,.291-1.374l.055-.347.086.34a7.46,7.46,0,0,0,.456,1.326l.04.1-.955.055Z" transform="translate(-92.612 -1.006)" fill="#fff"/>
      <path id="Path_3216" data-name="Path 3216" d="M177.007,235.514l-.034-.948-3.156.115.035.948,1.029-.037.134,3.69,1.106-.04-.135-3.69Z" transform="translate(-111.174 -0.141)" fill="#fff"/>
      <path id="Path_3217" data-name="Path 3217" d="M195.612,235.35l.02,3.692,1.106-.006-.019-3.692,1.022-.005-.005-.949-3.157.017,0,.949Z" transform="translate(-127.764)" fill="#fff"/>
      <path id="Path_3218" data-name="Path 3218" d="M217.008,239.187a2.156,2.156,0,0,0,2.276-2.317,2.179,2.179,0,0,0-2.123-2.458h-.089a2.4,2.4,0,0,0-.063,4.776m.084-3.745h.036c.626.02,1.03.579,1.005,1.391-.026.8-.451,1.331-1.059,1.331h-.034c-.645-.021-1.061-.583-1.035-1.4.026-.792.462-1.323,1.087-1.323" transform="translate(-143.976 -0.017)" fill="#fff"/>
      <path id="Path_3219" data-name="Path 3219" d="M243.181,238.767l.556,1.544,1.271.1-.76-1.812.056-.032a1.368,1.368,0,0,0,.685-1.185,1.577,1.577,0,0,0-.37-1.2,1.726,1.726,0,0,0-1.189-.535l-1.764-.133-.349,4.622,1.141.086.113-1.494Zm-.467-2.243.638.048a.56.56,0,0,1,.417.216.688.688,0,0,1,.126.481.607.607,0,0,1-.594.631l-.05,0-.637-.048Z" transform="translate(-165.11 -0.893)" fill="#fff"/>
      <path id="Path_3220" data-name="Path 3220" d="M265.66,237.516l-.1.861.466.053-.329,2.889-.518-.059-.1.861,2.182.249.1-.861-.526-.059.328-2.89.474.054.1-.861Z" transform="translate(-184.101 -2.498)" fill="#fff"/>
      <path id="Path_3221" data-name="Path 3221" d="M282.668,244.641l.135.624,1.192.189L282.8,240.5l-.537-.085-2.689,4.343,1.206.191.321-.552Zm-1.078-1.1a11.327,11.327,0,0,0,.578-1.28l.129-.326.012.351a7.269,7.269,0,0,0,.162,1.392l.018.1-.945-.149Z" transform="translate(-195.682 -4.812)" fill="#fff"/>
    </g>
  </g>
</svg>
