<svg xmlns="http://www.w3.org/2000/svg" xmlns:xlink="http://www.w3.org/1999/xlink" width="1200" height="1000" viewBox="0 0 562.679 355.399">
  <defs>
    <radialGradient id="radial-gradient" cx="0.589" cy="0.441" r="0.475" gradientTransform="matrix(-1.104, 0, 0, 1, 37.813, 0)" gradientUnits="objectBoundingBox">
      <stop offset="0.01" stop-color="#ffcf0e"/>
      <stop offset="0.57" stop-color="#faae17"/>
      <stop offset="1" stop-color="#f6921e"/>
    </radialGradient>
    <clipPath id="clip-path">
      <path id="Trazado_1247" data-name="Trazado 1247" d="M204.909,41.52c-.2,0-10.192.917-9.937.747s1.223,3.669,4.6,3.4a6.319,6.319,0,0,0,5.334-4.145Z" transform="translate(-194.967 -41.52)" fill="none"/>
    </clipPath>
  </defs>
  <g id="Asset_6" data-name="Asset 6" transform="translate(0 -0.054)" style="isolation: isolate">
    <g id="Layer_2" data-name="Layer 2" transform="translate(0 0.054)">
      <g id="Layer_1" data-name="Layer 1">
        <path id="Trazado_1206" data-name="Trazado 1206" d="M230.007,42.774a4.365,4.365,0,0,0,3.4-1.478l9.223-10.7a4.382,4.382,0,0,0,1.121-3.159,3.092,3.092,0,0,0-1.087-2.157c-.73-.595-2.14-1.7-3.176-2.548,0,0-1.953-1.512-4.23-2.99l-.493-.34-1.172-.781-1.7-1.019-.917-.595c-.747-.442-1.444-.866-2.106-1.206l-1.7-.934a2.5,2.5,0,0,0-1.206-.306,4.077,4.077,0,0,0-3.4,2.48l-6.9,13.4a4.128,4.128,0,0,0,1.7,5.47l10.294,6.166a4.331,4.331,0,0,0,2.378.7Z" transform="translate(150.361 10.08)" fill="#fce5dc" fill-rule="evenodd"/>
        <path id="Trazado_1207" data-name="Trazado 1207" d="M226.681,17.029a.917.917,0,0,1,.374.085l1.7.951c.883.459,1.868,1.087,2.939,1.7l1.7,1c.561.357,1.1.747,1.7,1.121,2.225,1.461,4.111,2.9,4.111,2.9,1,.8,2.412,1.919,3.125,2.514a2.038,2.038,0,0,1-.238,2.837L232.8,40.861a2.633,2.633,0,0,1-2,.883,2.463,2.463,0,0,1-1.444-.442l-10.378-6.183a2.344,2.344,0,0,1-.985-3.159l6.794-13.4a2.514,2.514,0,0,1,1.851-1.529m0-3.482a5.809,5.809,0,0,0-4.96,3.4l-6.879,13.4a5.86,5.86,0,0,0,2.48,7.763l10.192,6.132a6.166,6.166,0,0,0,7.932-1.1L244.7,32.4a6.03,6.03,0,0,0,1.529-4.433,4.841,4.841,0,0,0-1.7-3.4c-.73-.611-2.191-1.7-3.227-2.582,0,0-2-1.546-4.331-3.074l-.493-.323-1.189-.8h0l-1.7-1.019-.917-.544c-.747-.459-1.461-.9-2.174-1.274l-1.7-.917a4.162,4.162,0,0,0-2.021-.51Z" transform="translate(149.628 9.36)" fill="#fce5dc"/>
        <path id="Trazado_1208" data-name="Trazado 1208" d="M186.261,36.3c.8,0,2.48-.153,3.754-.2,0,0,3.125-.153,5.826-.153s5.809.153,5.843.153c1.257,0,2.939.153,3.737.2h.153a3.4,3.4,0,0,0,2.99-3.584l1.495-21.538a3.771,3.771,0,0,0-.917-2.752,3.822,3.822,0,0,0-2.6-1.274h-1.359c-1.291,0-3.4-.187-4.688-.221h-9.257c-1.291,0-3.4.136-4.688.221h-1.41a3.788,3.788,0,0,0-2.582,1.274,3.72,3.72,0,0,0-.934,2.752l1.495,21.538a3.4,3.4,0,0,0,2.99,3.584Z" transform="translate(126.876 4.749)" fill="#fce5dc" fill-rule="evenodd"/>
        <path id="Trazado_1209" data-name="Trazado 1209" d="M196.482,8.854h4.6c1.274,0,3.4.153,4.637.238H207.1a2.31,2.31,0,0,1,2.157,2.463l-1.495,21.538c0,1.257-.781,2.242-1.546,2.242h0l-3.754-.2S199.335,35,196.55,35s-5.894.136-5.894.136l-3.771.2h0c-.764,0-1.444-.985-1.546-2.242l-1.495-21.538a2.31,2.31,0,0,1,2.174-2.463l1.393-.1,4.637-.221h4.569M196.482,6h-4.739c-1.308,0-3.4.153-4.739.238h-1.393a5.2,5.2,0,0,0-4.875,5.571l1.495,21.538a4.858,4.858,0,0,0,4.433,4.943h.255l3.788-.017s3.091-.136,5.758-.136,5.741.136,5.758.136l3.72.2h.255a4.875,4.875,0,0,0,4.45-4.943L212.143,12a5.266,5.266,0,0,0-1.291-3.8,5.1,5.1,0,0,0-3.6-1.7h-1.359c-1.291,0-3.4-.187-4.722-.238h-3.091Z" transform="translate(126.253 4.099)" fill="#fce5dc"/>
        <path id="Trazado_1210" data-name="Trazado 1210" d="M217.212,37.807a4.246,4.246,0,0,0,4.009-2.786l5.724-15.831c.934-2.565.612-3.227.442-3.6l-.306-.645-.713-.289-.578-.2-.611-.221c-.51-.187-1.138-.408-1.835-.628l-1.7-.51c-1.7-.527-3.7-1.138-5.741-1.614l-1.308-.323c-.866-.221-1.784-.459-2.65-.628l-3.4-.7c-1.172-.238-1.953-.374-2.531-.459l-.679-.1h-.187c-1.7,0-2.106,1.834-2.412,3.7l-2.769,16.986a4.162,4.162,0,0,0,3.261,4.722l12.892,3.007a3.907,3.907,0,0,0,1.087.153Z" transform="translate(139.664 6.384)" fill="#fce5dc" fill-rule="evenodd"/>
        <path id="Trazado_1211" data-name="Trazado 1211" d="M205.845,11.753h.578c.578.085,1.41.238,2.412.442l3.4.7c1.257.238,2.582.611,3.907.934,2.667.611,5.3,1.512,7.27,2.089,1,.306,1.818.628,2.378.832l.578.2c.187,0,0,1.1-.459,2.293l-5.724,15.831a2.565,2.565,0,0,1-2.378,1.7,2.225,2.225,0,0,1-.662-.085l-12.892-3.024a2.429,2.429,0,0,1-1.8-2.718l2.769-16.986c.2-1.257.51-2.242.7-2.242m0-3.5c-3.3,0-3.89,3.618-4.145,5.1L199,30.3a5.928,5.928,0,0,0,4.62,6.709l12.773,3.108a5.691,5.691,0,0,0,1.512.2,6.03,6.03,0,0,0,5.656-3.958l5.724-15.814c.968-2.684.849-3.924.374-4.926a3.55,3.55,0,0,0-2.021-1.851l-.561-.2h0l-.561-.2c-.527-.187-1.155-.425-1.9-.662h0l-1.7-.493c-1.7-.544-3.754-1.155-5.826-1.7L215.8,10.19c-.9-.221-1.834-.459-2.735-.645l-2.973-.595-.425-.085c-1.206-.255-2-.391-2.616-.476L206.49,8.3h-.272Z" transform="translate(138.972 5.65)" fill="#fce5dc"/>
        <path id="Trazado_1212" data-name="Trazado 1212" d="M162.8,49.1a2.412,2.412,0,0,0,1.495-.476c.561-.425,1.885-1.376,2.9-2.055l9.75-5.86c1.121-.578,2.6-1.325,3.4-1.7a2.565,2.565,0,0,0,1.342-1.529,4.111,4.111,0,0,0-.357-3.159l-9.716-18.685a3.737,3.737,0,0,0-3.4-2.038,3.788,3.788,0,0,0-1.7.442l-1.427.781-3.4,1.885-2.565,1.563-1.7,1.1-.645.425-2.174,1.546-2.259,1.6c-1.07.815-1.936,1.495-1.987,1.546s-.934.764-1.919,1.6l-1.291,1.07a3.72,3.72,0,0,0-1.342,2.565,3.771,3.771,0,0,0,.917,2.752l12.994,15.016a4.264,4.264,0,0,0,3.091,1.7Z" transform="translate(101.859 9.409)" fill="#fce5dc" fill-rule="evenodd"/>
        <path id="Trazado_1213" data-name="Trazado 1213" d="M168.826,15.655a2.276,2.276,0,0,1,2.038,1.24l9.614,18.685c.595,1.138.442,2.344-.306,2.7s-2.293,1.121-3.4,1.7l-9.818,5.877c-1.053.73-2.412,1.7-3.007,2.14a1.036,1.036,0,0,1-.611.187,2.9,2.9,0,0,1-2-1.121L148.341,32.114a2.276,2.276,0,0,1,.272-3.244l1.274-1.07,1.885-1.58,1.936-1.495,2.276-1.6,2.14-1.529.645-.442,1.7-1.053,1.478-.9.306-.187.747-.459,3.4-1.868,1.427-.764a2.225,2.225,0,0,1,1.07-.272m0-2.9a5.232,5.232,0,0,0-2.463.611l-1.41.764c-1.155.611-2.7,1.478-3.482,1.9h0l-.747.459-.289.187-1.495.9c-.476.289-1.495.934-1.784,1.138l-.645.425L154.388,20.7l-2.259,1.6h0l-1.936,1.512-1.953,1.7-1.291,1.087a5.1,5.1,0,0,0-1.851,3.567,5.181,5.181,0,0,0,1.257,3.8l13.028,15.016a5.792,5.792,0,0,0,4.2,2.123,3.924,3.924,0,0,0,2.378-.781c.544-.408,1.818-1.308,2.8-1.987l9.682-5.809c1.07-.578,2.531-1.308,3.227-1.7a4.026,4.026,0,0,0,1.835-2.174,5.588,5.588,0,0,0-.442-4.3l-9.614-18.685a5.181,5.181,0,0,0-4.62-2.8Z" transform="translate(101.354 8.815)" fill="#fce5dc"/>
        <path id="Trazado_1214" data-name="Trazado 1214" d="M174.634,37.241a4.654,4.654,0,0,0,1.087-.136l11.669-2.735a4.162,4.162,0,0,0,3.261-4.722L188.121,14.14c-.306-1.953-.73-3.72-2.4-3.72h-.17l-.679.119a16.362,16.362,0,0,0-2.344.425l-3.176.645c-.8.153-1.7.374-2.463.578l-1.24.306c-1.885.442-3.72,1-5.334,1.512l-1.546.459-1.7.595-.561.2-.561.2c-.713.255-1.478.934-1.1,2.718A16.992,16.992,0,0,0,165.394,20l5.232,14.455a4.247,4.247,0,0,0,4.009,2.786Z" transform="translate(115.096 7.187)" fill="#fce5dc" fill-rule="evenodd"/>
        <path id="Trazado_1215" data-name="Trazado 1215" d="M186.336,12.868a4.858,4.858,0,0,1,.679,2.242l2.565,15.508a2.412,2.412,0,0,1-1.9,2.735l-11.686,2.752a2.242,2.242,0,0,1-.662.1,2.565,2.565,0,0,1-2.378-1.7l-5.232-14.455c-.425-1.206-.645-2.242-.476-2.31l.527-.187c.544-.187,1.291-.476,2.225-.764,1.835-.544,4.3-1.376,6.794-1.953,1.24-.289,2.48-.645,3.652-.883l3.176-.645c.934-.187,1.7-.34,2.259-.408l.544-.085h0m0-3.4h-.544l-.51.085a16.2,16.2,0,0,0-2.446.442l-1.308.272-1.835.374c-.883.17-1.7.391-2.6.611l-1.172.289c-1.953.459-3.822,1.036-5.486,1.546l-1.512.459h0a16.284,16.284,0,0,0-1.7.611l-.544.187h0l-.544.187a3.5,3.5,0,0,0-2,1.834c-.493,1.036-.595,2.225.391,4.943l5.232,14.455a6.013,6.013,0,0,0,5.656,3.941,5.69,5.69,0,0,0,1.512-.2l11.618-2.718a5.945,5.945,0,0,0,4.349-6.676L190.446,14.55c-.272-1.7-.849-5.1-4.128-5.1Z" transform="translate(114.47 6.489)" fill="#fce5dc"/>
        <path id="Trazado_1216" data-name="Trazado 1216" d="M151.809,54.755a4.535,4.535,0,0,0,3.754-1.936L163.1,42.95a4.043,4.043,0,0,0-.493-5.69L152.3,28.529c-1.97-1.7-2.7-1.7-3.057-1.7h-.815l-.578.645L145.9,29.887c-.917,1.189-2.7,3.567-4.45,6.3-.527.815-1.019,1.7-1.512,2.48l-.595,1.019c-.493.849-.917,1.7-1.291,2.361-.153.289-.289.578-.442.832-.357.679-.628,1.274-.866,1.7q-.136.306-.255.561l-.578,1.24.255.747c.136.374.391,1.07,2.888,2.191L150.025,54.3a4.246,4.246,0,0,0,1.784.374Z" transform="translate(94.947 18.651)" fill="#fce5dc" fill-rule="evenodd"/>
        <path id="Trazado_1217" data-name="Trazado 1217" d="M149.858,29.337a5.724,5.724,0,0,1,1.936,1.257l10.361,8.731a2.327,2.327,0,0,1,.255,3.278l-7.593,9.954a2.837,2.837,0,0,1-2.344,1.206,2.5,2.5,0,0,1-1.053-.221l-10.99-4.977c-1.172-.527-2.055-1.1-1.97-1.274l.255-.561c.272-.544.611-1.342,1.1-2.259s1.036-2,1.7-3.125,1.325-2.31,2.089-3.4c1.478-2.31,3.074-4.518,4.331-6.132l1.546-1.936.374-.459h0m0-3.5a3.6,3.6,0,0,0-2.735,1.274h0l-.391.476-.7.866-.866,1.019h0c-.917,1.189-2.735,3.584-4.5,6.387-.578.849-1.087,1.7-1.563,2.548l-.595,1h0c-.493.849-.917,1.7-1.308,2.4l-.442.832c-.374.7-.662,1.325-.9,1.834l-.238.527h0l-.255.561a3.55,3.55,0,0,0-.119,2.735c.391,1.053,1.189,2,3.8,3.193l10.871,5.164a6,6,0,0,0,2.5.527,6.336,6.336,0,0,0,5.1-2.65l7.559-9.767a5.792,5.792,0,0,0-.73-8.119l-10.294-8.867c-2.174-1.834-3.3-2.089-4.2-2.089Z" transform="translate(94.333 17.911)" fill="#fce5dc"/>
        <path id="Trazado_1218" data-name="Trazado 1218" d="M241,59.519a5.334,5.334,0,0,0,2.106-.476l16.069-7.287a3.89,3.89,0,0,0,2.089-2.191,3.142,3.142,0,0,0-.085-2.48l-1.1-2.361c-.221-.476-.527-1.121-.917-1.851-.136-.289-.815-1.563-.815-1.563l-.951-1.7-.612-1.036c-.51-.849-1.019-1.7-1.614-2.616-1.7-2.735-3.057-4.484-3.108-4.552-.781-1.019-1.7-2.31-2.225-2.871l-1.308-1.7-1.053-1.257a2.582,2.582,0,0,0-2.038-.9,4.4,4.4,0,0,0-2.735,1.1L227.767,38.422a4.06,4.06,0,0,0-1.495,2.8,2.565,2.565,0,0,0,.73,1.953c.561.578,1.7,1.834,2.514,2.769l7.083,9.308c.679,1.019,1.529,2.361,1.868,2.956A2.752,2.752,0,0,0,241,59.485Z" transform="translate(158.071 17.149)" fill="#fce5dc" fill-rule="evenodd"/>
        <path id="Trazado_1219" data-name="Trazado 1219" d="M246.028,26.769a1.121,1.121,0,0,1,.917.374L248,28.4l1.308,1.614c.425.544,1.427,1.818,2.191,2.837,0,0,1.325,1.7,3.057,4.467.578.866,1.07,1.7,1.563,2.548l.2.357.408.679.917,1.7.391.713c.136.289.289.578.442.849.357.679.645,1.291.883,1.8v.2l1.019,2.157a2.123,2.123,0,0,1-1.291,2.718L243,58.329a3.584,3.584,0,0,1-1.495.34,1.393,1.393,0,0,1-1.274-.527c-.357-.628-1.24-2.021-1.936-3.091l-7.134-9.376c-.832-.968-2.021-2.259-2.616-2.871s-.306-1.8.662-2.616l15.016-12.672a2.973,2.973,0,0,1,1.8-.747m0-2.9a5.775,5.775,0,0,0-3.669,1.427L227.428,37.946a5.384,5.384,0,0,0-2,3.839,3.924,3.924,0,0,0,1.138,3.04,31.583,31.583,0,0,1,2.429,2.667l7.015,9.223a23.518,23.518,0,0,1,1.7,2.854,4.229,4.229,0,0,0,3.89,1.919,6.794,6.794,0,0,0,2.7-.594l16.086-7.219a5.4,5.4,0,0,0,2.837-3.007,4.569,4.569,0,0,0-.119-3.6L262.08,44.91l-.085-.2c-.238-.493-.544-1.155-.951-1.936l-.442-.815-.374-.73h0l-.968-1.7-.391-.679-.187-.459c-.493-.849-1.019-1.7-1.7-2.65a45.353,45.353,0,0,0-3.193-4.654c-.781-1.036-1.7-2.327-2.242-2.888a12.586,12.586,0,0,1-1.325-1.7l-.374-.442-.679-.815a4.009,4.009,0,0,0-3.159-1.41Z" transform="translate(157.475 16.555)" fill="#fce5dc"/>
        <path id="Trazado_1220" data-name="Trazado 1220" d="M150.979,72.317a3.55,3.55,0,0,0,3.788-3.227v-.9c0-5.453,2.99-16.578,3.024-16.7a3.7,3.7,0,0,0-2.718-4.569l-14.523-3.4a16.477,16.477,0,0,0-2.582-.476h-1.138l-.323,1.121v.289a8.59,8.59,0,0,1-.2.9l-.2,1.019c-.255,1.274-.628,3.4-.815,4.637v.1l-.527,6.064c0,1.172-.187,2.65-.187,3.125v9.257c0,1.7,1.7,2.82,3.771,2.82Z" transform="translate(94.011 29.983)" fill="#fce5dc" fill-rule="evenodd"/>
        <path id="Trazado_1221" data-name="Trazado 1221" d="M138.6,45.079a17.242,17.242,0,0,1,2.242.425l14.523,3.4a2.242,2.242,0,0,1,1.7,2.786s-3.074,11.364-3.074,17.071v.9a2.106,2.106,0,0,1-2.327,1.7h-12.74c-1.274,0-2.327-.611-2.327-1.359v-9.1c0-.391.1-1.7.187-3.04l.527-6.064c.2-1.257.561-3.4.815-4.569l.2-1.036a2.947,2.947,0,0,1,.2-.9v-.221h0m0-2.9a2.939,2.939,0,0,0-2.871,2.208v.221h0a8.436,8.436,0,0,1-.221.951l-.2,1.019c-.255,1.291-.628,3.4-.832,4.705v.187l-.527,6.1c-.085,1.172-.187,2.684-.2,3.193s0,1.07,0,1.461v7.831c0,2.429,2.259,4.263,5.232,4.263h12.74a4.977,4.977,0,0,0,5.232-4.671v-.9c0-5.249,2.956-16.2,2.99-16.307a5.1,5.1,0,0,0-3.788-6.37l-14.523-3.4a13.114,13.114,0,0,0-2.922-.51Z" transform="translate(93.379 29.347)" fill="#fce5dc"/>
        <rect id="Rectángulo_1546" data-name="Rectángulo 1546" width="21.453" height="24.919" rx="1.88" transform="translate(225.982 105.85)" fill="#fce5dc"/>
        <path id="Trazado_1222" data-name="Trazado 1222" d="M136.59,63.6h15.067a2.327,2.327,0,0,1,2.327,2.327V84.441a2.344,2.344,0,0,1-2.327,2.327H136.59a2.344,2.344,0,0,1-2.327-2.327V65.927A2.327,2.327,0,0,1,136.59,63.6m0-1.7a4.077,4.077,0,0,0-4.06,4.077V84.492a4.06,4.06,0,0,0,4.06,4.06h15.067a4.06,4.06,0,0,0,4.06-4.06V65.927a4.077,4.077,0,0,0-4.06-4.077Z" transform="translate(92.586 43.116)" fill="#fce5dc"/>
        <path id="Trazado_1223" data-name="Trazado 1223" d="M250.743,69.76c2.4,0,4.06-1.172,4.06-2.837V59.534c0-.391-.119-1.834-.2-2.99l-.306-3.941h0c-.2-1.291-.544-3.244-.764-4.382l-.136-.628a6.808,6.808,0,0,0-.17-.764l-.374-1.529h-1.393a13.334,13.334,0,0,0-2.667.493L238.105,48.34a3.907,3.907,0,0,0-2.514,1.834,4.009,4.009,0,0,0-.442,3.024l2.089,10.684c.119,1.308.2,2.667.2,3.125,0,1.7,1.7,2.82,4.077,2.82Z" transform="translate(164.192 31.555)" fill="#fce5dc" fill-rule="evenodd"/>
        <path id="Trazado_1224" data-name="Trazado 1224" d="M252.175,47.747h0V47.9a5.784,5.784,0,0,0,.17.73l.119.645c.221,1.087.561,3.024.764,4.3l.306,3.873c.1,1.274.187,2.582.187,2.888v7.321c0,.595-1.053,1.087-2.327,1.087h-9.24c-1.291,0-2.327-.476-2.327-1.07s-.1-2.089-.221-3.4L237.5,53.437a2.225,2.225,0,0,1,1.7-2.769l10.684-2.548a19.841,19.841,0,0,1,2.259-.459m0-3.482a13.283,13.283,0,0,0-3.057.544l-10.7,2.548a5.741,5.741,0,0,0-4.247,6.93l2.055,10.565c.119,1.274.187,2.514.187,2.871,0,2.65,2.446,4.552,5.826,4.552h9.24c3.4,0,5.809-1.919,5.809-4.569V60.283c0-.34-.136-2.242-.187-3.091l-.323-3.89v-.255c-.2-1.308-.561-3.3-.781-4.45l-.136-.612a2.768,2.768,0,0,0-.187-.866h0v-.17a3.516,3.516,0,0,0-3.4-2.65Z" transform="translate(163.456 30.772)" fill="#fce5dc"/>
        <rect id="Rectángulo_1547" data-name="Rectángulo 1547" width="17.377" height="20.842" rx="2.4" transform="translate(402.45 108.194)" fill="#fce5dc"/>
        <path id="Trazado_1225" data-name="Trazado 1225" d="M241.691,66.219h9.24a2.327,2.327,0,0,1,2.327,2.327V81.252a2.344,2.344,0,0,1-2.327,2.327h-9.24a2.327,2.327,0,0,1-2.259-2.327V68.546a2.327,2.327,0,0,1,2.327-2.327m0-3.5a5.826,5.826,0,0,0-5.809,5.826V81.252a5.809,5.809,0,0,0,5.809,5.809H251a5.809,5.809,0,0,0,5.809-5.809V68.546A5.826,5.826,0,0,0,251,62.72Z" transform="translate(164.835 43.724)" fill="#fce5dc"/>
        <path id="Trazado_1226" data-name="Trazado 1226" d="M221.1,21.68h4.5c75.5.815,76.3,42.244,76.3,52.3v40.885H144.78V73.98C144.78,63.924,145.6,22.5,221.1,21.68Z" transform="translate(101.144 15.054)" fill="#fce5dc" stroke="#fff" stroke-miterlimit="10" stroke-width="3.19" fill-rule="evenodd"/>
        <path id="Trazado_1227" data-name="Trazado 1227" d="M186.41,21.72h8.051c75.52.815,76.318,42.244,76.318,52.3v40.817H259.144V73.952C259.144,64.066,258.38,23.775,186.41,21.72Z" transform="translate(130.227 15.082)" fill-rule="evenodd" opacity="0.5" fill="url(#radial-gradient)" style="mix-blend-mode: overlay;isolation: isolate"/>
        <path id="Trazado_1228" data-name="Trazado 1228" d="M167.845,55.939c.7-.662,1.444-1.257,2.089-1.834-.221,10.039,2.82,17.36,8.272,21.674-2.055-7.355-3.091-14.625-1.427-22.082s6.047-13.419,11.89-18.447c-1.138,14.421,4.467,25.632,15.406,34.38a29.766,29.766,0,0,0-1.987,3.3,8.8,8.8,0,0,0,.849,9.206c1.9,2.684,4.807,2.446,6.081-.561a30.687,30.687,0,0,0,1.189-4.739c.1-.51.1-1.053.187-1.868A64.768,64.768,0,0,1,229.3,105.334c-1.6-1.919-82.484,8.068-84.59,13.436v-1.7c.51-11.686,2.6-22.557,8.986-32.1a36.008,36.008,0,0,0,1.7,5.317,6.268,6.268,0,0,0,7.423,3.3,4.467,4.467,0,0,0,3.227-6.166,14.522,14.522,0,0,0-2.157-3.652,16.68,16.68,0,0,1-3.5-15.933,26.362,26.362,0,0,1,7.457-11.89Z" transform="translate(101.095 24.534)" fill="#fd7b7b" fill-rule="evenodd"/>
        <path id="Trazado_1229" data-name="Trazado 1229" d="M224.514,22.837h2.259c75.5.815,76.3,42.244,76.3,52.3v39.747H145.953V75.154c0-10.056.815-51.485,76.318-52.3h2.242m0-2.854h-2.276c-32.9.357-56.054,8.34-68.674,23.78a48.07,48.07,0,0,0-10.514,31.458v42.635h163V75.154A48.122,48.122,0,0,0,295.532,43.78C282.861,28.374,259.76,20.391,226.858,20Z" transform="translate(99.919 13.88)" fill="#fce5dc"/>
        <rect id="Rectángulo_1548" data-name="Rectángulo 1548" width="223.706" height="17.716" transform="translate(221.107 128.934)" fill="#fce5dc"/>
        <rect id="Rectángulo_1549" data-name="Rectángulo 1549" width="20.604" height="10.039" transform="translate(200.724 27.102)" fill="#fce5dc"/>
        <rect id="Rectángulo_1550" data-name="Rectángulo 1550" width="10.311" height="10.039" transform="translate(193.573 8.758)" fill="#fce5dc"/>
        <rect id="Rectángulo_1551" data-name="Rectángulo 1551" width="26.345" height="11.381" transform="translate(411.198 3.747)" fill="#fce5dc"/>
        <rect id="Rectángulo_1552" data-name="Rectángulo 1552" width="17.037" height="10.039" transform="translate(176.536 8.758)" fill="#fce5dc"/>
        <path id="Trazado_1230" data-name="Trazado 1230" d="M207.728,83.57,188.7,117.389,145.05,147.522l2.684,7.763L203.55,133.2l28.078-33.446Z" transform="translate(101.332 58.29)" fill="#ffb282"/>
        <path id="Trazado_1231" data-name="Trazado 1231" d="M207.728,83.57,188.7,117.389,145.05,147.522l2.684,7.763L203.55,133.2l28.078-33.446Z" transform="translate(101.332 58.29)" fill="#ffb282" opacity="0.2" style="mix-blend-mode: multiply;isolation: isolate"/>
        <path id="Trazado_1232" data-name="Trazado 1232" d="M177.255,83.57l-3.125,5.52L193.1,99.758l1.019-6.981Z" transform="translate(121.648 58.29)" fill="#fd7b7b"/>
        <path id="Trazado_1233" data-name="Trazado 1233" d="M192.837,108.027,175.97,98.82l23.543-37.08Z" transform="translate(122.933 43.04)" fill="#f7f2ef"/>
        <path id="Trazado_1234" data-name="Trazado 1234" d="M192.837,108.027,175.97,98.82l23.543-37.08Z" transform="translate(122.933 43.04)" fill="#f7f2ef" style="mix-blend-mode: multiply;isolation: isolate"/>
        <path id="Trazado_1235" data-name="Trazado 1235" d="M231.54,56.668s39.068-1.121,35.942,31.781-5.4,43.79-3.176,54.1,12.723,45.506,12.723,45.506-27.67,9.478-52.793,8.646-43.586-48.24-43.586-48.24l7-59.961S181.6,55.275,231.54,56.668Z" transform="translate(126.203 39.466)" fill="#f7f2ef"/>
        <line id="Línea_9" data-name="Línea 9" x2="562.679" transform="translate(0 354.984)" fill="none" stroke="#fce5dc" stroke-miterlimit="10" stroke-width="0.83"/>
        <path id="Trazado_1236" data-name="Trazado 1236" d="M189.01,105.72s-10.514,19.551-12.926,49.09,11.771,60.385,11.771,60.385L261.268,201.4l-7.3-84.93Z" transform="translate(122.82 73.764)" fill="#98171c"/>
        <path id="Trazado_1237" data-name="Trazado 1237" d="M215.13,151.37,190.619,87.52a8.34,8.34,0,0,1,4.518-10.667l44.69-18.922,4.111,1.308,5.622,2.854L198.45,84.6l24.681,63.867Z" transform="translate(132.778 40.378)" fill="#fd7b7b"/>
        <path id="Trazado_1238" data-name="Trazado 1238" d="M183.58,105.72s24.324,12.06,64.955,10.7a55.952,55.952,0,0,0,15.287-2.123" transform="translate(128.249 73.764)" fill="none" stroke="#98171c" stroke-miterlimit="10" stroke-width="5"/>
        <path id="Trazado_1239" data-name="Trazado 1239" d="M215.43,62.218c-1.291.17-25.36-.73-25.36-.73s3.992-4.96,3.839-7.491-1.936-5.351-1.614-7.236S196.2,39.27,196.2,39.27L215.43,49.343Z" transform="translate(132.783 27.342)" fill="#98171c" style="mix-blend-mode: multiply;isolation: isolate"/>
        <path id="Trazado_1240" data-name="Trazado 1240" d="M214.554,62.235c-1.274.17-24.494-.747-24.494-.747s3.992-4.943,3.839-7.474-1.936-5.368-1.614-7.236,3.907-7.508,3.907-7.508l19.245,10.073Z" transform="translate(132.776 27.342)" fill="#98171c" style="mix-blend-mode: multiply;isolation: isolate"/>
        <path id="Trazado_1241" data-name="Trazado 1241" d="M224.256,75.024c1.7-.187,28.452-7.576,28.316-7.78s0-3.958-1.376-5.656-3.057-2.276-3.72-3.686.17-6.642-1.376-8.765-4.026-3.142-5.554-5.249-4.247-13.436-7.372-16.018-9.92-10.65-25.343-7.168S192.22,34.19,192.22,34.19l1.7,3.686L210.259,55.27Z" transform="translate(134.285 13.771)" fill="#98171c" style="mix-blend-mode: multiply;isolation: isolate"/>
        <path id="Trazado_1242" data-name="Trazado 1242" d="M224.256,75.024c1.7-.187,28.452-7.576,28.316-7.78s0-3.958-1.376-5.656-3.057-2.276-3.72-3.686.17-6.642-1.376-8.765-4.026-3.142-5.554-5.249-4.247-13.436-7.372-16.018-9.92-10.65-25.343-7.168S192.22,34.19,192.22,34.19l1.7,3.686L210.259,55.27Z" transform="translate(134.285 13.771)" fill="#98171c"/>
        <path id="Trazado_1243" data-name="Trazado 1243" d="M241.255,83.12c-.645,0-11.89-3.4-11.89-3.4l-4.688-27.042a6.013,6.013,0,0,0,5.1,1c2.735-.917,8.391-9.24,1.325-13.028s-8.629,4.433-8.629,4.433l-2.021.34s-4.773-23.1-17.7-22.422-12.672,29.573-6.438,36.6C201.3,65.233,209.9,64.6,209.9,64.6l2.038,14.914-4.943,3.754s-.544,12.315-.085,12.281S241.255,83.12,241.255,83.12Z" transform="translate(134.238 15.97)" fill="#ffb282"/>
        <path id="Trazado_1244" data-name="Trazado 1244" d="M197.236,36.93c-.272.221-2.157,3.89,1.07,4.314" transform="translate(137.235 25.707)" fill="none" stroke="#231f20" stroke-linecap="round" stroke-linejoin="round" stroke-width="0.8"/>
        <path id="Trazado_1245" data-name="Trazado 1245" d="M205.256,41.42c-.221,0-10.548.968-10.344.781s1.274,3.8,4.807,3.533a6.574,6.574,0,0,0,5.537-4.314Z" transform="translate(136.163 28.844)" fill="#845037"/>
        <g id="Grupo_891" data-name="Grupo 891" transform="translate(331.172 70.434)" clip-path="url(#clip-path)">
          <path id="Trazado_1246" data-name="Trazado 1246" d="M203.4,43.509a7.457,7.457,0,0,0-4.094-.764,4.858,4.858,0,0,0-3.075,2.038l3.041.8Z" transform="translate(-194.085 -40.69)" fill="#ffa6a0"/>
        </g>
        <path id="Trazado_1248" data-name="Trazado 1248" d="M217.885,36.1a6.794,6.794,0,0,0-4.484,1.1,4.382,4.382,0,0,0-1.8,3.4" transform="translate(147.824 25.098)" fill="none" stroke="#231f20" stroke-linecap="round" stroke-linejoin="round" stroke-width="0.8"/>
        <circle id="Elipse_244" data-name="Elipse 244" cx="4.026" cy="4.026" r="4.026" transform="translate(343.305 62.45)" fill="#fd7b7b"/>
        <circle id="Elipse_245" data-name="Elipse 245" cx="7.627" cy="7.627" r="7.627" transform="translate(335.117 51.342)" fill="none" stroke="#98171c" stroke-linecap="round" stroke-linejoin="round" stroke-width="0.8"/>
        <circle id="Elipse_246" data-name="Elipse 246" cx="6.591" cy="6.591" r="6.591" transform="translate(320.526 53.771)" fill="none" stroke="#98171c" stroke-linecap="round" stroke-linejoin="round" stroke-width="0.8"/>
        <line id="Línea_10" data-name="Línea 10" x1="4.773" y1="0.136" transform="translate(350.371 59.07)" fill="none" stroke="#98171c" stroke-linecap="round" stroke-linejoin="round" stroke-width="0.8"/>
        <line id="Línea_11" data-name="Línea 11" x1="1.274" transform="translate(333.674 59.563)" fill="none" stroke="#98171c" stroke-linecap="round" stroke-linejoin="round" stroke-width="0.8"/>
        <circle id="Elipse_247" data-name="Elipse 247" cx="0.798" cy="0.798" r="0.798" transform="translate(328.883 59.563)" fill="#231f20" stroke="#231f20" stroke-linecap="round" stroke-linejoin="round" stroke-width="0.8"/>
        <circle id="Elipse_248" data-name="Elipse 248" cx="0.798" cy="0.798" r="0.798" transform="translate(341.13 58.17)" fill="#231f20" stroke="#231f20" stroke-linecap="round" stroke-linejoin="round" stroke-width="0.8"/>
        <path id="Trazado_1249" data-name="Trazado 1249" d="M253.13,102.925c2.021-9.971,7,2.14,6.693,2.769-2.038,4.077-15.287,24.868-17.9,29.794A2.548,2.548,0,0,1,239,136.846c-2.6-.713-9.444-4.247-15.287-6.234-21.521-7.3-31.441-12.468-42.125-16.561a2.871,2.871,0,0,0-3.142.628c-2.6,2.531-9.58,10.192-11.177,10.6-.459.136-.849-.34-1.189-.7a1.206,1.206,0,0,1-.272-1.291l2.123-4.484c.323-.883-.781-2.038-1.7-1.919h-.544a1.257,1.257,0,0,0-1.036.9l-2.531,9.206a1.291,1.291,0,0,1-.612.747,1.223,1.223,0,0,1-1.835-1.121c.306-2.344,1.308-7.032,1.6-8.867a.2.2,0,0,0-.374-.119l-3.55,9.138a4.586,4.586,0,0,1-2.973,2.378.594.594,0,0,1-.595-.255l3.992-11.4-.136-.085c-.951,1.206-4.179,5.2-5.673,6.964a3.822,3.822,0,0,1-3.924,1.223c-.459-.119-.747-.306-.527-.595,0,0,11.449-15.287,13.147-16.731a16.357,16.357,0,0,1,9.308-3.618,164.252,164.252,0,0,1,17.479.713c9.733.645,28.876,3.924,41.7,6.625a1.053,1.053,0,0,0,1.223-.34c1.308-2.242,18.685-25.768,14.727-16.561S252.247,107.274,253.13,102.925Z" transform="translate(102.999 64.855)" fill="#ffb282"/>
        <path id="Trazado_1250" data-name="Trazado 1250" d="M232.988,136.035l-3.176-.272a73.039,73.039,0,0,1-16.307-4.535,64.785,64.785,0,0,1-15.95-9l-2.956-2.8,26.753-47.561a16.7,16.7,0,0,1,9.682-6.642l.595,6.234c-1.257.289-2.106,4.348-2.106,4.365l-23.78,39.068a44.59,44.59,0,0,0,10.786,6.659,79.309,79.309,0,0,0,14.778,4.247c4.416-6.2,13.215-10.973,13.181-16.544l4.654-5.486c.1,12.723-12.723,28.027-14.2,29.9Z" transform="translate(135.948 45.471)" fill="#fd7b7b"/>
        <path id="Trazado_1251" data-name="Trazado 1251" d="M244.914,95.193c0,11.007-10.582,27.772-10.582,27.772a76.216,76.216,0,0,1-19.6-5.1c-11.194-4.416-13.13-8.255-13.13-8.255l18.09-35.433s10.956-7.049,14.727-7.882" transform="translate(140.838 46.225)" fill="none" stroke="#f7f2ef" stroke-miterlimit="10" stroke-width="7"/>
        <path id="Trazado_1252" data-name="Trazado 1252" d="M246.6,98.805c0,11.007-13.045,27.585-13.045,27.585a76.437,76.437,0,0,1-19.619-5.1C202.757,116.879,199.19,111.1,199.19,111.1l26.753-41.7a10.786,10.786,0,0,1,5.945-4.043" transform="translate(139.155 45.569)" fill="none" stroke="#f7f2ef" stroke-linecap="round" stroke-linejoin="round" stroke-width="3" style="mix-blend-mode: multiply;isolation: isolate"/>
        <path id="Trazado_1253" data-name="Trazado 1253" d="M246.6,98.805c0,11.007-13.045,27.585-13.045,27.585a76.437,76.437,0,0,1-19.619-5.1C202.757,116.879,199.19,111.1,199.19,111.1l26.753-41.7a10.786,10.786,0,0,1,5.945-4.043" transform="translate(139.155 45.569)" fill="none" stroke="#f7f2ef" stroke-linecap="round" stroke-linejoin="round" stroke-width="3" style="mix-blend-mode: multiply;isolation: isolate"/>
        <rect id="Rectángulo_1553" data-name="Rectángulo 1553" width="288.711" height="145.281" transform="translate(434.027 354.984) rotate(180)" fill="#fff"/>
        <rect id="Rectángulo_1554" data-name="Rectángulo 1554" width="288.711" height="145.281" transform="translate(375.238 354.984) rotate(180)" fill="#fce5dc"/>
        <rect id="Rectángulo_1555" data-name="Rectángulo 1555" width="89.788" height="145.281" transform="translate(470.224 354.984) rotate(180)" fill="#ffb282"/>
        <path id="Trazado_1254" data-name="Trazado 1254" d="M194.86,39.03l5.571,2.174a95.275,95.275,0,0,0,24.035,5.962l10.277,1.155,5.928-23.186s8.493-3.6,3.3-11.007c-2.871-4.077-8.391-.679-8.391-.679s3.244-9.512-8.493-12.4c-8.17-2-12.621,6.132-12.621,6.132S211.523-3.01,203.438.981c-8.391,4.23-2.4,13.589-2.4,13.589Z" transform="translate(136.13 -0.054)" fill="#f7f2ef"/>
        <path id="Trazado_1255" data-name="Trazado 1255" d="M114.22,118.79h84.556v1.8a6.217,6.217,0,0,1-6.217,6.217H120.437a6.217,6.217,0,0,1-6.217-6.217v-1.8Z" transform="translate(79.794 82.895)" fill="#ccc"/>
        <path id="Trazado_1256" data-name="Trazado 1256" d="M183.551,137.728l-60.878.153-20.213-45.1,60.861-.153Z" transform="translate(71.579 64.619)" fill="#ccc"/>
        <rect id="Rectángulo_1556" data-name="Rectángulo 1556" width="28.469" height="3.04" transform="translate(250.153 201.685)" fill="#999"/>
        <path id="Trazado_1257" data-name="Trazado 1257" d="M181.791,137.728l-60.878.153L100.7,92.783l60.878-.153Z" transform="translate(70.349 64.619)" fill="#999"/>
        <rect id="Rectángulo_1557" data-name="Rectángulo 1557" width="38.677" height="1.936" transform="translate(202.507 204.725)" fill="#999"/>
        <ellipse id="Elipse_249" data-name="Elipse 249" cx="4.671" cy="8.102" rx="4.671" ry="8.102" transform="translate(199.493 178.686) rotate(-52.8)" fill="#ccc"/>
        <rect id="Rectángulo_1558" data-name="Rectángulo 1558" width="6.489" height="13.623" rx="1.39" transform="translate(172.748 128.594)" fill="#ffb282"/>
        <rect id="Rectángulo_1559" data-name="Rectángulo 1559" width="6.489" height="13.623" rx="1.39" transform="translate(172.748 85.755)" fill="#fd7b7b"/>
        <rect id="Rectángulo_1560" data-name="Rectángulo 1560" width="13.623" height="6.489" rx="1.39" transform="translate(147.761 110.742)" fill="#fce5dc"/>
        <rect id="Rectángulo_1561" data-name="Rectángulo 1561" width="13.623" height="6.489" rx="1.39" transform="translate(153.736 131.661) rotate(-45)" fill="#fce5dc"/>
        <rect id="Rectángulo_1562" data-name="Rectángulo 1562" width="13.623" height="6.489" rx="1.39" transform="matrix(0.707, -0.707, 0.707, 0.707, 184.011, 101.352)" fill="#fd7b7b"/>
        <rect id="Rectángulo_1563" data-name="Rectángulo 1563" width="6.489" height="13.623" rx="1.39" transform="translate(153.727 96.305) rotate(-45)" fill="#fce5dc"/>
        <rect id="Rectángulo_1564" data-name="Rectángulo 1564" width="6.489" height="13.623" rx="1.39" transform="translate(184.018 126.62) rotate(-45)" fill="#ffb282"/>
        <rect id="Rectángulo_1565" data-name="Rectángulo 1565" width="13.623" height="6.489" rx="1.39" transform="translate(190.6 110.742)" fill="#ffb282"/>
        <rect id="Rectángulo_1567" data-name="Rectángulo 1567" width="25.926" height="10.039" transform="translate(242.947 289.002)" fill="#ffb282"/>
        <rect id="Rectángulo_1568" data-name="Rectángulo 1568" width="26.345" height="11.381" transform="translate(318.743 265.646)" fill="#ffb282"/>
        <rect id="Rectángulo_1571" data-name="Rectángulo 1571" width="26.345" height="11.381" transform="translate(160.838 242.646)" fill="#ffb282"/>
        <rect id="Rectángulo_1566" data-name="Rectángulo 1566" width="22.037" height="10.039" transform="translate(211.595 270.657)" fill="#ffb282"/>
        <rect id="Rectángulo_1569" data-name="Rectángulo 1569" width="26.037" height="10.039" transform="translate(138.988 309.657)" fill="#ffb282"/>
      </g>
    </g>
  </g>
</svg>
