<svg xmlns="http://www.w3.org/2000/svg" width="60.61" height="18.604" viewBox="0 0 60.61 18.604">
  <g id="Visa" transform="translate(-1150 -361)">
    <path id="Path_229" data-name="Path 229" d="M61.9,18.917,64.972.9h4.9L66.8,18.917Z" transform="translate(1109.465 360.411)" fill="#f6f6f6"/>
    <path id="Path_230" data-name="Path 230" d="M99.738.759A12.222,12.222,0,0,0,95.355,0c-4.867,0-8.284,2.451-8.284,5.937-.035,2.589,2.451,4.038,4.315,4.9,1.9.9,2.554,1.45,2.554,2.244,0,1.208-1.519,1.76-2.934,1.76a10.558,10.558,0,0,1-4.625-.932l-.69-.311L85,17.638a15.51,15.51,0,0,0,5.488.966c5.177,0,8.525-2.416,8.56-6.144.035-2.036-1.277-3.624-4.107-4.9-1.726-.828-2.761-1.381-2.761-2.244,0-.759.9-1.553,2.8-1.553a8.5,8.5,0,0,1,3.659.69l.449.207.656-3.9" transform="translate(1094.339 361)" fill="#f6f6f6"/>
    <path id="Path_231" data-name="Path 231" d="M138.268,1h-3.8a2.46,2.46,0,0,0-2.589,1.484l-7.283,16.5h5.143s.828-2.209,1.035-2.692h6.282c.138.621.587,2.692.587,2.692H142.2L138.268,1m-6.04,11.6c.414-1.035,1.967-5.039,1.967-5.039-.035.035.414-1.035.656-1.726l.345,1.553s.932,4.315,1.139,5.212Z" transform="translate(1068.407 360.345)" fill="#f6f6f6"/>
    <path id="Path_232" data-name="Path 232" d="M27.015.9,22.183,13.188,21.665,10.7A13.929,13.929,0,0,0,14.9,3.144l4.384,15.774H24.5L32.227.9H27.015" transform="translate(1140.243 360.411)" fill="#f6f6f6"/>
    <path id="Path_233" data-name="Path 233" d="M7.973.9H.069L0,1.28C6.178,2.764,10.251,6.388,11.943,10.7L10.217,2.419A2.077,2.077,0,0,0,7.973.9" transform="translate(1150 360.411)" fill="#fdbcbc"/>
  </g>
</svg>